JonovaCondensed-Regular.ufo
<glyph name="dollar" format="2">
  <advance width="840"/>
  <unicode hex="0024"/>
  <outline>
    <contour>
      <point x="575" y="1207" type="line"/>
      <point x="542" y="1279"/>
      <point x="458" y="1352"/>
      <point x="409" y="1362" type="qcurve"/>
      <point x="409" y="839" type="line"/>
      <point x="468" y="803"/>
      <point x="573" y="720"/>
      <point x="652" y="610"/>
      <point x="698" y="465"/>
      <point x="698" y="368" type="qcurve"/>
      <point x="698" y="291"/>
      <point x="653" y="155"/>
      <point x="576" y="48"/>
      <point x="470" y="-21"/>
      <point x="409" y="-30" type="qcurve"/>
      <point x="409" y="-152" type="line"/>
      <point x="332" y="-170" type="line"/>
      <point x="332" y="-30" type="line"/>
      <point x="287" y="-29"/>
      <point x="209" y="-2"/>
      <point x="144" y="41"/>
      <point x="90" y="96"/>
      <point x="69" y="125" type="qcurve"/>
      <point x="146" y="227" type="line"/>
      <point x="158" y="202"/>
      <point x="193" y="149"/>
      <point x="239" y="104"/>
      <point x="298" y="74"/>
      <point x="332" y="72" type="qcurve"/>
      <point x="332" y="663" type="line"/>
      <point x="275" y="695"/>
      <point x="179" y="776"/>
      <point x="110" y="881"/>
      <point x="72" y="1014"/>
      <point x="72" y="1097" type="qcurve"/>
      <point x="72" y="1161"/>
      <point x="111" y="1286"/>
      <point x="180" y="1388"/>
      <point x="276" y="1456"/>
      <point x="332" y="1464" type="qcurve"/>
      <point x="332" y="1586" type="line"/>
      <point x="409" y="1604" type="line"/>
      <point x="409" y="1464" type="line"/>
      <point x="447" y="1462"/>
      <point x="518" y="1433"/>
      <point x="581" y="1390"/>
      <point x="633" y="1336"/>
      <point x="652" y="1309" type="qcurve"/>
    </contour>
    <contour>
      <point x="576" y="321" type="qcurve"/>
      <point x="576" y="366"/>
      <point x="554" y="444"/>
      <point x="512" y="515"/>
      <point x="449" y="581"/>
      <point x="409" y="613" type="qcurve"/>
      <point x="409" y="72" type="line"/>
      <point x="446" y="79"/>
      <point x="508" y="117"/>
      <point x="552" y="179"/>
      <point x="576" y="265"/>
    </contour>
    <contour>
      <point x="194" y="1136" type="qcurve"/>
      <point x="194" y="1090"/>
      <point x="211" y="1025"/>
      <point x="245" y="972"/>
      <point x="297" y="923"/>
      <point x="332" y="893" type="qcurve"/>
      <point x="332" y="1362" type="line"/>
      <point x="310" y="1357"/>
      <point x="261" y="1325"/>
      <point x="220" y="1270"/>
      <point x="194" y="1190"/>
    </contour>
  </outline>
</glyph>
<glyph name="percent" format="2">
  <advance width="1200"/>
  <unicode hex="0025"/>
  <outline>
    <contour>
      <point x="1034" y="1434" type="line" name="at02"/>
      <point x="265" y="-30" type="line" name="ab01"/>
      <point x="167" y="0" type="line" name="ab02"/>
      <point x="936" y="1464" type="line" name="at01"/>
    </contour>
    <contour>
      <point x="287" y="1434" type="qcurve" name="at03"/>
      <point x="328" y="1434"/>
      <point x="404" y="1390"/>
      <point x="464" y="1300"/>
      <point x="500" y="1162"/>
      <point x="500" y="1068" type="qcurve" name="dh04"/>
      <point x="500" y="974"/>
      <point x="464" y="836"/>
      <point x="404" y="746" name="hr00"/>
      <point x="328" y="702"/>
      <point x="287" y="702" type="qcurve" name="dv03"/>
      <point x="248" y="702"/>
      <point x="171" y="746"/>
      <point x="111" y="836"/>
      <point x="75" y="974"/>
      <point x="75" y="1068" type="qcurve" name="dh01"/>
      <point x="75" y="1162"/>
      <point x="111" y="1300"/>
      <point x="171" y="1390"/>
      <point x="248" y="1434"/>
    </contour>
    <contour>
      <point x="287" y="1352" type="qcurve" name="sv01"/>
      <point x="260" y="1352"/>
      <point x="216" y="1324"/>
      <point x="185" y="1258"/>
      <point x="167" y="1149"/>
      <point x="167" y="1068" type="qcurve" name="dh02"/>
      <point x="167" y="987"/>
      <point x="185" y="878"/>
      <point x="216" y="812"/>
      <point x="260" y="784"/>
      <point x="287" y="784" type="qcurve" name="dv04"/>
      <point x="314" y="784"/>
      <point x="359" y="812"/>
      <point x="391" y="878"/>
      <point x="409" y="987"/>
      <point x="409" y="1068" type="qcurve" name="dh03"/>
      <point x="409" y="1149"/>
      <point x="391" y="1258"/>
      <point x="359" y="1324"/>
      <point x="314" y="1352"/>
    </contour>
    <contour>
      <point x="912" y="732" type="qcurve" name="dv02"/>
      <point x="953" y="732"/>
      <point x="1029" y="688"/>
      <point x="1088" y="598"/>
      <point x="1125" y="460"/>
      <point x="1125" y="366" type="qcurve" name="dh08"/>
      <point x="1125" y="272"/>
      <point x="1088" y="134"/>
      <point x="1029" y="44"/>
      <point x="953" y="0"/>
      <point x="912" y="0" type="qcurve" name="ab03"/>
      <point x="872" y="0"/>
      <point x="796" y="44"/>
      <point x="736" y="134"/>
      <point x="700" y="272"/>
      <point x="700" y="366" type="qcurve" name="dh05"/>
      <point x="700" y="460"/>
      <point x="736" y="598"/>
      <point x="796" y="688"/>
      <point x="872" y="732"/>
    </contour>
    <contour>
      <point x="912" y="650" type="qcurve" name="dv01"/>
      <point x="885" y="650"/>
      <point x="841" y="622"/>
      <point x="809" y="556"/>
      <point x="791" y="447"/>
      <point x="791" y="366" type="qcurve" name="dh06"/>
      <point x="791" y="285"/>
      <point x="809" y="176"/>
      <point x="841" y="110"/>
      <point x="885" y="82"/>
      <point x="912" y="82" type="qcurve" name="sv02"/>
      <point x="939" y="82"/>
      <point x="983" y="110"/>
      <point x="1016" y="176"/>
      <point x="1034" y="285"/>
      <point x="1034" y="366" type="qcurve" name="dh07"/>
      <point x="1034" y="447"/>
      <point x="1016" y="556"/>
      <point x="983" y="622"/>
      <point x="939" y="650"/>
    </contour>
  </outline>
</glyph>
<glyph name="quotesingle" format="2">
  <advance width="576"/>
  <unicode hex="0027"/>
  <outline>
    <contour>
      <point x="247" y="901" type="line"/>
      <point x="187" y="1434" type="line"/>
      <point x="217" y="1464" type="line"/>
      <point x="359" y="1464" type="line"/>
      <point x="389" y="1434" type="line"/>
      <point x="329" y="901" type="line"/>
    </contour>
  </outline>
</glyph>
<glyph name="asterisk" format="2">
  <advance width="1024"/>
  <unicode hex="002A"/>
  <guideline x="0" y="923" angle="30"/>
  <guideline x="0" y="1514" angle="330"/>
  <guideline x="0" y="1219" angle="0"/>
  <guideline x="512" y="0" angle="90"/>
  <outline>
    <contour>
      <point x="430" y="1584" type="line" name="av01"/>
      <point x="594" y="1584" type="line"/>
      <point x="532" y="1263" type="line"/>
      <point x="540" y="1258" type="line"/>
      <point x="787" y="1472" type="line"/>
      <point x="869" y="1330" type="line" name="sv01"/>
      <point x="560" y="1224" type="line"/>
      <point x="560" y="1214" type="line" name="dh02"/>
      <point x="868" y="1106" type="line" name="iv03"/>
      <point x="787" y="964" type="line"/>
      <point x="540" y="1180" type="line"/>
      <point x="532" y="1175" type="line" name="dv01"/>
      <point x="594" y="854" type="line" name="av02"/>
      <point x="430" y="854" type="line" name="iv02"/>
      <point x="492" y="1175" type="line"/>
      <point x="484" y="1180" type="line"/>
      <point x="237" y="966" type="line"/>
      <point x="155" y="1108" type="line" name="sv02"/>
      <point x="464" y="1214" type="line"/>
      <point x="464" y="1223" type="line" name="dh01"/>
      <point x="155" y="1330" type="line" name="iv01"/>
      <point x="237" y="1472" type="line"/>
      <point x="484" y="1258" type="line"/>
      <point x="492" y="1263" type="line" name="dv02"/>
    </contour>
  </outline>
</glyph>
<glyph name="four" format="2">
  <advance width="840"/>
  <unicode hex="0034"/>
  <outline>
    <contour>
      <point x="512" y="1464" type="line" name="ah02"/>
      <point x="534" y="1464" type="line"/>
      <point x="633" y="1434" type="line" name="sh01"/>
      <point x="205" y="481" type="line" name="sh02"/>
      <point x="512" y="496" type="line" name="sh03"/>
      <point x="512" y="667" type="line"/>
      <point x="611" y="707" type="line"/>
      <point x="633" y="707" type="line" name="sh04"/>
      <point x="633" y="502" type="line" name="sv01"/>
      <point x="756" y="508" type="line"/>
      <point x="737" y="365" type="line"/>
      <point x="633" y="365" type="line" name="sh05"/>
      <point x="633" y="0" type="line" name="ab01"/>
      <point x="512" y="0" type="line" name="sh06"/>
      <point x="512" y="365" type="line" name="dv01"/>
      <point x="63" y="365" type="line" name="ah01"/>
      <point x="63" y="385" type="line"/>
    </contour>
  </outline>
</glyph>
<glyph name="five" format="2">
  <advance width="840"/>
  <unicode hex="0035"/>
  <outline>
    <contour>
      <point x="137" y="777" type="line" name="sh01"/>
      <point x="137" y="1434" type="line"/>
      <point x="689" y="1434" type="line" name="at01"/>
      <point x="673" y="1309" type="line" name="sv01"/>
      <point x="258" y="1332" type="line" name="sh03"/>
      <point x="258" y="893" type="line"/>
      <point x="266" y="893" type="line" name="sh04"/>
      <point x="290" y="910"/>
      <point x="364" y="931"/>
      <point x="402" y="931" type="qcurve" name="dv02"/>
      <point x="473" y="931"/>
      <point x="596" y="858"/>
      <point x="686" y="729"/>
      <point x="737" y="552"/>
      <point x="737" y="447" type="qcurve" name="sh05"/>
      <point x="737" y="351"/>
      <point x="689" y="178"/>
      <point x="596" y="47"/>
      <point x="460" y="-30"/>
      <point x="372" y="-30" type="qcurve" name="ab01"/>
      <point x="324" y="-30"/>
      <point x="239" y="-2"/>
      <point x="167" y="42"/>
      <point x="110" y="97"/>
      <point x="92" y="125" type="qcurve"/>
      <point x="168" y="227" type="line" name="ih01"/>
      <point x="182" y="200"/>
      <point x="223" y="145"/>
      <point x="275" y="100"/>
      <point x="338" y="72"/>
      <point x="371" y="72" type="qcurve" name="sv02"/>
      <point x="420" y="72"/>
      <point x="506" y="126"/>
      <point x="570" y="225"/>
      <point x="608" y="363"/>
      <point x="608" y="447" type="qcurve" name="ah01"/>
      <point x="608" y="543"/>
      <point x="566" y="686"/>
      <point x="503" y="781"/>
      <point x="428" y="829"/>
      <point x="395" y="829" type="qcurve" name="dv01"/>
      <point x="349" y="829"/>
      <point x="286" y="803"/>
      <point x="258" y="777" type="qcurve" name="sh02"/>
    </contour>
  </outline>
</glyph>
<glyph name="eight" format="2">
  <advance width="840"/>
  <unicode hex="0038"/>
  <outline>
    <contour>
      <point x="419" y="1464" type="qcurve"/>
      <point x="478" y="1464"/>
      <point x="575" y="1406"/>
      <point x="644" y="1312"/>
      <point x="683" y="1192"/>
      <point x="683" y="1131" type="qcurve"/>
      <point x="683" y="1037"/>
      <point x="627" y="885"/>
      <point x="566" y="834" type="qcurve"/>
      <point x="566" y="824" type="line"/>
      <point x="620" y="789"/>
      <point x="694" y="700"/>
      <point x="739" y="595"/>
      <point x="758" y="475"/>
      <point x="758" y="409" type="qcurve"/>
      <point x="758" y="328"/>
      <point x="713" y="170"/>
      <point x="627" y="46"/>
      <point x="501" y="-30"/>
      <point x="419" y="-30" type="qcurve"/>
      <point x="338" y="-30"/>
      <point x="213" y="46"/>
      <point x="128" y="170"/>
      <point x="83" y="327"/>
      <point x="83" y="408" type="qcurve"/>
      <point x="83" y="472"/>
      <point x="102" y="592"/>
      <point x="146" y="698"/>
      <point x="218" y="789"/>
      <point x="272" y="824" type="qcurve"/>
      <point x="272" y="834" type="line"/>
      <point x="211" y="885"/>
      <point x="156" y="1037"/>
      <point x="156" y="1131" type="qcurve"/>
      <point x="156" y="1192"/>
      <point x="194" y="1312"/>
      <point x="264" y="1406"/>
      <point x="361" y="1464"/>
    </contour>
    <contour>
      <point x="419" y="1362" type="qcurve"/>
      <point x="386" y="1362"/>
      <point x="335" y="1321"/>
      <point x="297" y="1253"/>
      <point x="278" y="1162"/>
      <point x="278" y="1113" type="qcurve"/>
      <point x="278" y="1063"/>
      <point x="297" y="975"/>
      <point x="335" y="908"/>
      <point x="386" y="869"/>
      <point x="419" y="869" type="qcurve"/>
      <point x="452" y="869"/>
      <point x="504" y="908"/>
      <point x="542" y="975"/>
      <point x="561" y="1063"/>
      <point x="561" y="1113" type="qcurve"/>
      <point x="561" y="1162"/>
      <point x="542" y="1253"/>
      <point x="504" y="1321"/>
      <point x="452" y="1362"/>
    </contour>
    <contour>
      <point x="419" y="767" type="qcurve"/>
      <point x="373" y="767"/>
      <point x="297" y="712"/>
      <point x="242" y="617"/>
      <point x="212" y="492"/>
      <point x="212" y="422" type="qcurve"/>
      <point x="212" y="352"/>
      <point x="242" y="225"/>
      <point x="297" y="129"/>
      <point x="373" y="72"/>
      <point x="419" y="72" type="qcurve"/>
      <point x="465" y="72"/>
      <point x="542" y="129"/>
      <point x="598" y="225"/>
      <point x="629" y="352"/>
      <point x="629" y="422" type="qcurve"/>
      <point x="629" y="492"/>
      <point x="598" y="617"/>
      <point x="543" y="712"/>
      <point x="466" y="767"/>
    </contour>
  </outline>
</glyph>
<glyph name="nine" format="2">
  <advance width="840"/>
  <unicode hex="0039"/>
  <outline>
    <contour>
      <point x="176" y="72" type="line"/>
      <point x="272" y="72"/>
      <point x="441" y="174"/>
      <point x="567" y="359"/>
      <point x="641" y="617"/>
      <point x="641" y="773" type="qcurve"/>
      <point x="633" y="773" type="line"/>
      <point x="614" y="722"/>
      <point x="557" y="650"/>
      <point x="493" y="605"/>
      <point x="426" y="585"/>
      <point x="397" y="585" type="qcurve"/>
      <point x="325" y="585"/>
      <point x="207" y="649"/>
      <point x="123" y="765"/>
      <point x="77" y="926"/>
      <point x="77" y="1022" type="qcurve"/>
      <point x="77" y="1126"/>
      <point x="131" y="1290"/>
      <point x="223" y="1404"/>
      <point x="341" y="1464"/>
      <point x="404" y="1464" type="qcurve"/>
      <point x="470" y="1464"/>
      <point x="599" y="1388"/>
      <point x="700" y="1230"/>
      <point x="762" y="987"/>
      <point x="762" y="821" type="qcurve"/>
      <point x="762" y="714"/>
      <point x="732" y="505"/>
      <point x="669" y="316"/>
      <point x="573" y="155"/>
      <point x="440" y="37"/>
      <point x="269" y="-30"/>
      <point x="163" y="-30" type="qcurve"/>
    </contour>
    <contour>
      <point x="397" y="687" type="qcurve"/>
      <point x="450" y="687"/>
      <point x="533" y="743"/>
      <point x="589" y="833"/>
      <point x="618" y="946"/>
      <point x="618" y="1002" type="qcurve"/>
      <point x="618" y="1085"/>
      <point x="590" y="1218"/>
      <point x="534" y="1312"/>
      <point x="455" y="1362"/>
      <point x="404" y="1362" type="qcurve"/>
      <point x="356" y="1362"/>
      <point x="282" y="1312"/>
      <point x="232" y="1222"/>
      <point x="206" y="1097"/>
      <point x="206" y="1022" type="qcurve"/>
      <point x="206" y="951"/>
      <point x="230" y="828"/>
      <point x="278" y="738"/>
      <point x="349" y="687"/>
    </contour>
  </outline>
</glyph>
<glyph name="colon" format="2">
  <advance width="576"/>
  <unicode hex="003A"/>
  <outline>
    <contour>
      <point x="228" y="93" type="qcurve" name="sh01"/>
      <point x="228" y="118"/>
      <point x="247" y="163"/>
      <point x="281" y="197"/>
      <point x="325" y="216"/>
      <point x="351" y="216" type="qcurve" name="sv01"/>
      <point x="376" y="216"/>
      <point x="421" y="197"/>
      <point x="454" y="163"/>
      <point x="474" y="118"/>
      <point x="474" y="93" type="qcurve" name="sh02"/>
      <point x="474" y="68"/>
      <point x="454" y="23"/>
      <point x="421" y="-10"/>
      <point x="376" y="-30"/>
      <point x="351" y="-30" type="qcurve" name="ab01"/>
      <point x="325" y="-30"/>
      <point x="281" y="-10"/>
      <point x="247" y="23"/>
      <point x="228" y="68"/>
    </contour>
    <contour>
      <point x="228" y="881" type="qcurve" name="sh03"/>
      <point x="228" y="906"/>
      <point x="247" y="951"/>
      <point x="281" y="984"/>
      <point x="325" y="1004"/>
      <point x="351" y="1004" type="qcurve" name="at01"/>
      <point x="376" y="1004"/>
      <point x="421" y="984"/>
      <point x="454" y="951"/>
      <point x="474" y="906"/>
      <point x="474" y="881" type="qcurve" name="sh04"/>
      <point x="474" y="855"/>
      <point x="454" y="811"/>
      <point x="421" y="777"/>
      <point x="376" y="758"/>
      <point x="351" y="758" type="qcurve" name="sv02"/>
      <point x="325" y="758"/>
      <point x="281" y="777"/>
      <point x="247" y="811"/>
      <point x="228" y="855"/>
    </contour>
  </outline>
</glyph>
<glyph name="greater" format="2">
  <advance width="1152"/>
  <unicode hex="003E"/>
  <outline>
    <contour>
      <point x="818" y="498" type="line"/>
      <point x="163" y="876" type="line"/>
      <point x="186" y="1004" type="line"/>
      <point x="990" y="538" type="line"/>
      <point x="990" y="436" type="line"/>
      <point x="185" y="-30" type="line"/>
      <point x="162" y="98" type="line"/>
      <point x="818" y="478" type="line"/>
    </contour>
  </outline>
</glyph>
<glyph name="question" format="2">
  <advance width="768"/>
  <unicode hex="003F"/>
  <outline>
    <contour>
      <point x="136" y="1309" type="line" name="ah02"/>
      <point x="190" y="1387"/>
      <point x="316" y="1464"/>
      <point x="398" y="1464" type="qcurve" name="at01"/>
      <point x="440" y="1464"/>
      <point x="529" y="1428"/>
      <point x="601" y="1357"/>
      <point x="647" y="1251"/>
      <point x="647" y="1181" type="qcurve" name="dh04"/>
      <point x="647" y="1116"/>
      <point x="602" y="1008"/>
      <point x="536" y="913"/>
      <point x="458" y="828"/>
      <point x="392" y="743"/>
      <point x="347" y="656"/>
      <point x="347" y="607" type="qcurve" name="dh02"/>
      <point x="347" y="568"/>
      <point x="369" y="514"/>
      <point x="401" y="481"/>
      <point x="435" y="467"/>
      <point x="448" y="467" type="qcurve"/>
      <point x="434" y="365" type="line" name="ah01"/>
      <point x="404" y="365"/>
      <point x="341" y="395"/>
      <point x="289" y="454"/>
      <point x="256" y="541"/>
      <point x="256" y="598" type="qcurve" name="dh01"/>
      <point x="256" y="663"/>
      <point x="297" y="773"/>
      <point x="359" y="871"/>
      <point x="430" y="960"/>
      <point x="491" y="1050"/>
      <point x="533" y="1145"/>
      <point x="533" y="1200" type="qcurve" name="dh03"/>
      <point x="533" y="1237"/>
      <point x="510" y="1297"/>
      <point x="473" y="1339"/>
      <point x="424" y="1362"/>
      <point x="398" y="1362" type="qcurve" name="sv02"/>
      <point x="365" y="1362"/>
      <point x="311" y="1339"/>
      <point x="266" y="1297"/>
      <point x="229" y="1240"/>
      <point x="212" y="1207" type="qcurve" name="iv01"/>
    </contour>
    <contour>
      <point x="302" y="66" type="qcurve" name="ih01"/>
      <point x="302" y="106"/>
      <point x="358" y="162"/>
      <point x="398" y="162" type="qcurve" name="sv01"/>
      <point x="438" y="162"/>
      <point x="494" y="106"/>
      <point x="494" y="66" type="qcurve" name="sh01"/>
      <point x="494" y="26"/>
      <point x="438" y="-30"/>
      <point x="398" y="-30" type="qcurve" name="ab01"/>
      <point x="358" y="-30"/>
      <point x="302" y="26"/>
    </contour>
  </outline>
</glyph>
<glyph name="at" format="2">
  <advance width="1536"/>
  <unicode hex="0040"/>
  <outline>
    <contour>
      <point x="452" y="398" type="qcurve"/>
      <point x="452" y="491"/>
      <point x="498" y="666"/>
      <point x="581" y="801"/>
      <point x="693" y="882"/>
      <point x="760" y="882" type="qcurve"/>
      <point x="826" y="882"/>
      <point x="922" y="814"/>
      <point x="956" y="760" type="qcurve"/>
      <point x="964" y="760" type="line"/>
      <point x="977" y="852" type="line"/>
      <point x="1076" y="882" type="line"/>
      <point x="1098" y="882" type="line"/>
      <point x="1017" y="271" type="line"/>
      <point x="1013" y="241"/>
      <point x="1009" y="196"/>
      <point x="1009" y="182" type="qcurve"/>
      <point x="1009" y="167"/>
      <point x="1015" y="139"/>
      <point x="1029" y="116"/>
      <point x="1052" y="102"/>
      <point x="1070" y="102" type="qcurve"/>
      <point x="1121" y="102"/>
      <point x="1211" y="159"/>
      <point x="1277" y="271"/>
      <point x="1316" y="439"/>
      <point x="1316" y="550" type="qcurve"/>
      <point x="1316" y="632"/>
      <point x="1285" y="793"/>
      <point x="1223" y="939"/>
      <point x="1130" y="1065"/>
      <point x="1010" y="1156"/>
      <point x="861" y="1208"/>
      <point x="773" y="1208" type="qcurve"/>
      <point x="697" y="1208"/>
      <point x="556" y="1152"/>
      <point x="432" y="1051"/>
      <point x="331" y="911"/>
      <point x="259" y="742"/>
      <point x="219" y="549"/>
      <point x="219" y="447" type="qcurve"/>
      <point x="219" y="345"/>
      <point x="259" y="154"/>
      <point x="331" y="-14"/>
      <point x="432" y="-154"/>
      <point x="555" y="-254"/>
      <point x="697" y="-310"/>
      <point x="773" y="-310" type="qcurve"/>
      <point x="875" y="-310"/>
      <point x="1052" y="-206"/>
      <point x="1139" y="-105" type="qcurve"/>
      <point x="1204" y="-192" type="line"/>
      <point x="1155" y="-252"/>
      <point x="1046" y="-335"/>
      <point x="934" y="-388"/>
      <point x="824" y="-412"/>
      <point x="773" y="-412" type="qcurve"/>
      <point x="684" y="-412"/>
      <point x="519" y="-350"/>
      <point x="376" y="-238"/>
      <point x="257" y="-81"/>
      <point x="173" y="110"/>
      <point x="128" y="329"/>
      <point x="128" y="447" type="qcurve"/>
      <point x="128" y="566"/>
      <point x="173" y="787"/>
      <point x="257" y="979"/>
      <point x="376" y="1136"/>
      <point x="519" y="1248"/>
      <point x="684" y="1310"/>
      <point x="773" y="1310" type="qcurve"/>
      <point x="872" y="1310"/>
      <point x="1043" y="1251"/>
      <point x="1184" y="1146"/>
      <point x="1293" y="1001"/>
      <point x="1369" y="831"/>
      <point x="1408" y="642"/>
      <point x="1408" y="544" type="qcurve"/>
      <point x="1408" y="480"/>
      <point x="1389" y="349"/>
      <point x="1350" y="228"/>
      <point x="1289" y="123"/>
      <point x="1206" y="45"/>
      <point x="1098" y="0"/>
      <point x="1031" y="0" type="qcurve"/>
      <point x="1011" y="0"/>
      <point x="974" y="18"/>
      <point x="942" y="47"/>
      <point x="917" y="83"/>
      <point x="911" y="102" type="qcurve"/>
      <point x="903" y="102" type="line"/>
      <point x="884" y="81"/>
      <point x="839" y="44"/>
      <point x="787" y="16"/>
      <point x="731" y="0"/>
      <point x="703" y="0" type="qcurve"/>
      <point x="642" y="0"/>
      <point x="548" y="60"/>
      <point x="485" y="167"/>
      <point x="452" y="312"/>
    </contour>
    <contour>
      <point x="544" y="393" type="qcurve"/>
      <point x="544" y="334"/>
      <point x="566" y="229"/>
      <point x="608" y="149"/>
      <point x="671" y="102"/>
      <point x="712" y="102" type="qcurve"/>
      <point x="759" y="102"/>
      <point x="840" y="169"/>
      <point x="900" y="279"/>
      <point x="935" y="416"/>
      <point x="935" y="487" type="qcurve"/>
      <point x="935" y="539"/>
      <point x="918" y="644"/>
      <point x="878" y="728"/>
      <point x="814" y="780"/>
      <point x="767" y="780" type="qcurve"/>
      <point x="720" y="780"/>
      <point x="638" y="718"/>
      <point x="578" y="612"/>
      <point x="544" y="471"/>
    </contour>
  </outline>
</glyph>
<glyph name="A" format="2">
  <advance width="1008"/>
  <unicode hex="0041"/>
  <anchor x="400" y="0" name="AccentBelow"/>
  <anchor x="500" y="1600" name="AccentDefault"/>
  <anchor x="400" y="712" name="AccentMiddle"/>
  <anchor x="550" y="0" name="AccentOgonek"/>
  <outline>
    <contour>
      <point x="814" y="-30" type="line"/>
      <point x="694" y="365" type="line"/>
      <point x="254" y="365" type="line"/>
      <point x="134" y="-30" type="line"/>
      <point x="44" y="0" type="line"/>
      <point x="488" y="1464" type="line"/>
      <point x="521" y="1464" type="line"/>
      <point x="964" y="0" type="line"/>
    </contour>
    <contour>
      <point x="470" y="1102" type="line"/>
      <point x="291" y="487" type="line"/>
      <point x="656" y="487" type="line"/>
      <point x="478" y="1102" type="line"/>
    </contour>
  </outline>
</glyph>
<glyph name="B" format="2">
  <advance width="936"/>
  <unicode hex="0042"/>
  <anchor x="350" y="0" name="AccentBelow"/>
  <anchor x="400" y="1600" name="AccentDefault"/>
  <anchor x="400" y="712" name="AccentMiddle"/>
  <outline>
    <contour>
      <point x="137" y="1434" type="line"/>
      <point x="416" y="1434" type="line"/>
      <point x="504" y="1434"/>
      <point x="648" y="1401"/>
      <point x="750" y="1326"/>
      <point x="806" y="1202"/>
      <point x="806" y="1111" type="qcurve"/>
      <point x="806" y="1062"/>
      <point x="788" y="983"/>
      <point x="758" y="920"/>
      <point x="719" y="873"/>
      <point x="681" y="838"/>
      <point x="645" y="816"/>
      <point x="632" y="810" type="qcurve"/>
      <point x="632" y="800" type="line"/>
      <point x="653" y="793"/>
      <point x="706" y="765"/>
      <point x="759" y="721"/>
      <point x="811" y="660"/>
      <point x="851" y="580"/>
      <point x="875" y="478"/>
      <point x="875" y="416" type="qcurve"/>
      <point x="875" y="320"/>
      <point x="815" y="166"/>
      <point x="701" y="58"/>
      <point x="534" y="0"/>
      <point x="427" y="0" type="qcurve"/>
      <point x="137" y="0" type="line"/>
    </contour>
    <contour>
      <point x="273" y="839" type="line"/>
      <point x="418" y="839" type="line"/>
      <point x="474" y="839"/>
      <point x="566" y="868"/>
      <point x="633" y="931"/>
      <point x="670" y="1030"/>
      <point x="670" y="1101" type="qcurve"/>
      <point x="670" y="1156"/>
      <point x="635" y="1236"/>
      <point x="570" y="1288"/>
      <point x="476" y="1312"/>
      <point x="418" y="1312" type="qcurve"/>
      <point x="273" y="1312" type="line"/>
    </contour>
    <contour>
      <point x="273" y="717" type="line"/>
      <point x="273" y="122" type="line"/>
      <point x="424" y="122" type="line"/>
      <point x="584" y="122"/>
      <point x="731" y="275"/>
      <point x="731" y="418" type="qcurve"/>
      <point x="731" y="505"/>
      <point x="688" y="621"/>
      <point x="614" y="689"/>
      <point x="516" y="717"/>
      <point x="461" y="717" type="qcurve"/>
    </contour>
  </outline>
</glyph>
<glyph name="E" format="2">
  <advance width="816"/>
  <unicode hex="0045"/>
  <anchor x="350" y="0" name="AccentBelow"/>
  <anchor x="400" y="1600" name="AccentDefault"/>
  <anchor x="350" y="712" name="AccentMiddle"/>
  <anchor x="250" y="0" name="AccentOgonek"/>
  <outline>
    <contour>
      <point x="137" y="1434" type="line"/>
      <point x="740" y="1434" type="line"/>
      <point x="721" y="1292" type="line"/>
      <point x="273" y="1312" type="line"/>
      <point x="273" y="839" type="line"/>
      <point x="659" y="839" type="line"/>
      <point x="643" y="717" type="line"/>
      <point x="273" y="717" type="line"/>
      <point x="273" y="122" type="line"/>
      <point x="740" y="142" type="line"/>
      <point x="721" y="0" type="line"/>
      <point x="137" y="0" type="line"/>
    </contour>
  </outline>
</glyph>
<glyph name="I" format="2">
  <advance width="432"/>
  <unicode hex="0049"/>
  <anchor x="120" y="0" name="AccentBelow"/>
  <anchor x="220" y="1600" name="AccentDefault"/>
  <anchor x="150" y="712" name="AccentMiddle"/>
  <anchor x="-150" y="0" name="AccentOgonek"/>
  <outline>
    <contour>
      <point x="284" y="1464" type="line"/>
      <point x="284" y="0" type="line"/>
      <point x="148" y="0" type="line"/>
      <point x="148" y="1434" type="line"/>
    </contour>
  </outline>
</glyph>
<glyph name="J" format="2">
  <advance width="552"/>
  <unicode hex="004A"/>
  <anchor x="150" y="0" name="AccentBelow"/>
  <anchor x="350" y="1600" name="AccentDefault"/>
  <anchor x="250" y="712" name="AccentMiddle"/>
  <outline>
    <contour>
      <point x="279" y="1434" type="line"/>
      <point x="416" y="1464" type="line"/>
      <point x="416" y="492" type="line"/>
      <point x="416" y="324"/>
      <point x="352" y="119"/>
      <point x="242" y="7"/>
      <point x="95" y="-30"/>
      <point x="12" y="-30" type="qcurve"/>
      <point x="30" y="112" type="line"/>
      <point x="59" y="112"/>
      <point x="117" y="120"/>
      <point x="173" y="143"/>
      <point x="221" y="185"/>
      <point x="258" y="252"/>
      <point x="279" y="349"/>
      <point x="279" y="415" type="qcurve"/>
    </contour>
  </outline>
</glyph>
<glyph name="M" format="2">
  <advance width="1368"/>
  <unicode hex="004D"/>
  <anchor x="550" y="0" name="AccentBelow"/>
  <anchor x="650" y="1600" name="AccentDefault"/>
  <anchor x="550" y="712" name="AccentMiddle"/>
  <outline>
    <contour>
      <point x="306" y="1061" type="line"/>
      <point x="299" y="1061" type="line"/>
      <point x="155" y="-30" type="line"/>
      <point x="65" y="0" type="line"/>
      <point x="254" y="1434" type="line"/>
      <point x="336" y="1464" type="line"/>
      <point x="677" y="314" type="line"/>
      <point x="685" y="314" type="line"/>
      <point x="1034" y="1464" type="line"/>
      <point x="1115" y="1434" type="line"/>
      <point x="1304" y="0" type="line"/>
      <point x="1154" y="-30" type="line"/>
      <point x="1017" y="1061" type="line"/>
      <point x="1010" y="1061" type="line"/>
      <point x="678" y="-30" type="line"/>
      <point x="629" y="-30" type="line"/>
    </contour>
  </outline>
</glyph>
<glyph name="N" format="2">
  <advance width="1128"/>
  <unicode hex="004E"/>
  <anchor x="450" y="0" name="AccentBelow"/>
  <anchor x="550" y="1600" name="AccentDefault"/>
  <anchor x="500" y="712" name="AccentMiddle"/>
  <outline>
    <contour>
      <point x="221" y="1464" type="line"/>
      <point x="900" y="305" type="line"/>
      <point x="908" y="305" type="line"/>
      <point x="908" y="1464" type="line"/>
      <point x="999" y="1434" type="line"/>
      <point x="999" y="0" type="line"/>
      <point x="908" y="0" type="line"/>
      <point x="228" y="1159" type="line"/>
      <point x="221" y="1159" type="line"/>
      <point x="221" y="0" type="line"/>
      <point x="129" y="0" type="line"/>
      <point x="129" y="1434" type="line"/>
    </contour>
  </outline>
</glyph>
<glyph name="R" format="2">
  <advance width="936"/>
  <unicode hex="0052"/>
  <anchor x="400" y="0" name="AccentBelow"/>
  <anchor x="400" y="1600" name="AccentDefault"/>
  <anchor x="400" y="712" name="AccentMiddle"/>
  <outline>
    <contour>
      <point x="137" y="1434" type="line"/>
      <point x="442" y="1434" type="line"/>
      <point x="537" y="1434"/>
      <point x="680" y="1380"/>
      <point x="776" y="1277"/>
      <point x="825" y="1128"/>
      <point x="825" y="1034" type="qcurve"/>
      <point x="825" y="972"/>
      <point x="795" y="867"/>
      <point x="744" y="782"/>
      <point x="678" y="715"/>
      <point x="608" y="668"/>
      <point x="536" y="638"/>
      <point x="506" y="632" type="qcurve"/>
      <point x="506" y="625" type="line"/>
      <point x="897" y="0" type="line"/>
      <point x="740" y="-30" type="line"/>
      <point x="394" y="595" type="line"/>
      <point x="273" y="595" type="line"/>
      <point x="273" y="0" type="line"/>
      <point x="137" y="0" type="line"/>
    </contour>
    <contour>
      <point x="273" y="1312" type="line"/>
      <point x="273" y="717" type="line"/>
      <point x="422" y="717" type="line"/>
      <point x="475" y="717"/>
      <point x="569" y="762"/>
      <point x="640" y="844"/>
      <point x="681" y="962"/>
      <point x="681" y="1034" type="qcurve"/>
      <point x="681" y="1104"/>
      <point x="648" y="1209"/>
      <point x="588" y="1278"/>
      <point x="505" y="1312"/>
      <point x="455" y="1312" type="qcurve"/>
    </contour>
  </outline>
</glyph>
<glyph name="T" format="2">
  <advance width="864"/>
  <unicode hex="0054"/>
  <anchor x="350" y="0" name="AccentBelow"/>
  <anchor x="280" y="0" name="AccentCedilla"/>
  <anchor x="450" y="1600" name="AccentDefault"/>
  <anchor x="350" y="712" name="AccentMiddle"/>
  <outline>
    <contour>
      <point x="43" y="1434" type="line"/>
      <point x="840" y="1434" type="line"/>
      <point x="821" y="1292" type="line"/>
      <point x="500" y="1312" type="line"/>
      <point x="500" y="0" type="line"/>
      <point x="364" y="0" type="line"/>
      <point x="364" y="1312" type="line"/>
      <point x="24" y="1292" type="line"/>
    </contour>
  </outline>
</glyph>
<glyph name="U" format="2">
  <advance width="1128"/>
  <unicode hex="0055"/>
  <anchor x="450" y="0" name="AccentBelow"/>
  <anchor x="550" y="1600" name="AccentDefault"/>
  <anchor x="500" y="712" name="AccentMiddle"/>
  <anchor x="300" y="0" name="AccentOgonek"/>
  <outline>
    <contour>
      <point x="273" y="1464" type="line"/>
      <point x="273" y="542" type="line"/>
      <point x="273" y="411"/>
      <point x="326" y="238"/>
      <point x="413" y="134"/>
      <point x="523" y="92"/>
      <point x="579" y="92" type="qcurve"/>
      <point x="641" y="92"/>
      <point x="756" y="137"/>
      <point x="846" y="242"/>
      <point x="900" y="414"/>
      <point x="900" y="542" type="qcurve"/>
      <point x="900" y="1464" type="line"/>
      <point x="992" y="1434" type="line"/>
      <point x="992" y="562" type="line"/>
      <point x="992" y="410"/>
      <point x="931" y="187"/>
      <point x="819" y="41"/>
      <point x="661" y="-30"/>
      <point x="564" y="-30" type="qcurve"/>
      <point x="467" y="-30"/>
      <point x="310" y="41"/>
      <point x="197" y="186"/>
      <point x="137" y="409"/>
      <point x="137" y="562" type="qcurve"/>
      <point x="137" y="1434" type="line"/>
    </contour>
  </outline>
</glyph>
<glyph name="V" format="2">
  <advance width="936"/>
  <unicode hex="0056"/>
  <anchor x="350" y="0" name="AccentBelow"/>
  <anchor x="500" y="1600" name="AccentDefault"/>
  <anchor x="350" y="712" name="AccentMiddle"/>
  <outline>
    <contour>
      <point x="493" y="283" type="line"/>
      <point x="500" y="283" type="line"/>
      <point x="818" y="1464" type="line"/>
      <point x="908" y="1434" type="line"/>
      <point x="515" y="0" type="line"/>
      <point x="423" y="0" type="line"/>
      <point x="32" y="1434" type="line"/>
      <point x="182" y="1464" type="line"/>
    </contour>
  </outline>
</glyph>
<glyph name="W" format="2">
  <advance width="1416"/>
  <unicode hex="0057"/>
  <outline>
    <contour>
      <point x="1057" y="348" type="line"/>
      <point x="1064" y="348" type="line"/>
      <point x="1295" y="1464" type="line"/>
      <point x="1385" y="1434" type="line"/>
      <point x="1076" y="0" type="line"/>
      <point x="984" y="0" type="line"/>
      <point x="716" y="1131" type="line"/>
      <point x="708" y="1131" type="line"/>
      <point x="432" y="0" type="line"/>
      <point x="341" y="0" type="line"/>
      <point x="32" y="1434" type="line"/>
      <point x="182" y="1464" type="line"/>
      <point x="414" y="348" type="line"/>
      <point x="422" y="348" type="line"/>
      <point x="693" y="1464" type="line"/>
      <point x="785" y="1464" type="line"/>
    </contour>
  </outline>
</glyph>
<glyph name="Y" format="2">
  <advance width="936"/>
  <unicode hex="0059"/>
  <outline>
    <contour>
      <point x="500" y="660" type="line"/>
      <point x="818" y="1464" type="line"/>
      <point x="908" y="1434" type="line"/>
      <point x="548" y="532" type="line"/>
      <point x="548" y="0" type="line"/>
      <point x="412" y="0" type="line"/>
      <point x="412" y="514" type="line"/>
      <point x="32" y="1434" type="line"/>
      <point x="182" y="1464" type="line"/>
      <point x="492" y="660" type="line"/>
    </contour>
  </outline>
</glyph>
<glyph name="Z" format="2">
  <advance width="936"/>
  <unicode hex="005A"/>
  <anchor x="350" y="0" name="AccentBelow"/>
  <anchor x="500" y="1600" name="AccentDefault"/>
  <anchor x="350" y="712" name="AccentMiddle"/>
  <outline>
    <contour>
      <point x="145" y="1434" type="line" name="at01"/>
      <point x="895" y="1434" type="line" name="ah04"/>
      <point x="895" y="1414" type="line"/>
      <point x="246" y="132" type="line" name="sh01"/>
      <point x="246" y="122" type="line" name="sv01"/>
      <point x="895" y="143" type="line" name="ah02"/>
      <point x="876" y="0" type="line" name="ab01"/>
      <point x="32" y="0" type="line" name="ah03"/>
      <point x="32" y="20" type="line"/>
      <point x="680" y="1302" type="line" name="sh02"/>
      <point x="680" y="1312" type="line" name="sv02"/>
      <point x="126" y="1292" type="line" name="ah01"/>
    </contour>
  </outline>
</glyph>
<glyph name="bracketright" format="2">
  <advance width="736"/>
  <unicode hex="005D"/>
  <outline>
    <contour>
      <point x="82" y="1564" type="line"/>
      <point x="462" y="1564" type="line"/>
      <point x="462" y="-178" type="line"/>
      <point x="82" y="-178" type="line"/>
      <point x="100" y="-76" type="line"/>
      <point x="320" y="-76" type="line"/>
      <point x="320" y="1464" type="line"/>
      <point x="100" y="1464" type="line"/>
    </contour>
  </outline>
</glyph>
<glyph name="grave" format="2">
  <advance width="568"/>
  <unicode hex="0060"/>
  <guideline x="0" y="1683" angle="0"/>
  <guideline x="0" y="1376" angle="45"/>
  <guideline x="1736" y="0" angle="135"/>
  <guideline x="91" y="0" angle="90"/>
  <guideline x="-681" y="0" angle="45"/>
  <guideline x="1518" y="0" angle="135"/>
  <outline>
    <contour>
      <point x="439" y="1116" type="line" name="av02"/>
      <point x="73" y="1404" type="line" name="ah01"/>
      <point x="73" y="1434" type="line"/>
      <point x="155" y="1521" type="line" name="av01"/>
      <point x="185" y="1521" type="line"/>
      <point x="496" y="1176" type="line" name="ah02"/>
    </contour>
  </outline>
</glyph>
<glyph name="a" format="2">
  <advance width="840"/>
  <unicode hex="0061"/>
  <outline>
    <contour>
      <point x="115" y="849" type="line"/>
      <point x="176" y="925"/>
      <point x="338" y="1004"/>
      <point x="424" y="1004" type="qcurve"/>
      <point x="480" y="1004"/>
      <point x="589" y="960"/>
      <point x="674" y="862"/>
      <point x="728" y="708"/>
      <point x="728" y="597" type="qcurve"/>
      <point x="728" y="174" type="line"/>
      <point x="728" y="72"/>
      <point x="786" y="72" type="qcurve"/>
      <point x="773" y="-30" type="line"/>
      <point x="732" y="-30"/>
      <point x="676" y="3"/>
      <point x="639" y="54"/>
      <point x="618" y="115"/>
      <point x="614" y="142" type="qcurve"/>
      <point x="606" y="142" type="line"/>
      <point x="588" y="115"/>
      <point x="531" y="55"/>
      <point x="458" y="4"/>
      <point x="372" y="-30"/>
      <point x="326" y="-30" type="qcurve"/>
      <point x="278" y="-30"/>
      <point x="194" y="4"/>
      <point x="130" y="69"/>
      <point x="93" y="164"/>
      <point x="93" y="225" type="qcurve"/>
      <point x="93" y="313"/>
      <point x="164" y="449"/>
      <point x="296" y="541"/>
      <point x="487" y="589"/>
      <point x="606" y="589" type="qcurve"/>
      <point x="606" y="637" type="line"/>
      <point x="606" y="716"/>
      <point x="572" y="819"/>
      <point x="518" y="879"/>
      <point x="454" y="902"/>
      <point x="424" y="902" type="qcurve"/>
      <point x="394" y="902"/>
      <point x="330" y="879"/>
      <point x="269" y="839"/>
      <point x="213" y="781"/>
      <point x="191" y="747" type="qcurve"/>
    </contour>
    <contour>
      <point x="606" y="507" type="line"/>
      <point x="572" y="507"/>
      <point x="488" y="501"/>
      <point x="401" y="482"/>
      <point x="319" y="447"/>
      <point x="254" y="389"/>
      <point x="215" y="305"/>
      <point x="215" y="246" type="qcurve"/>
      <point x="215" y="164"/>
      <point x="288" y="72"/>
      <point x="354" y="72" type="qcurve"/>
      <point x="392" y="72"/>
      <point x="464" y="104"/>
      <point x="529" y="157"/>
      <point x="584" y="226"/>
      <point x="606" y="263" type="qcurve"/>
    </contour>
  </outline>
</glyph>
<glyph name="b" format="2">
  <advance width="840"/>
  <unicode hex="0062"/>
  <outline>
    <contour>
      <point x="228" y="190" type="line"/>
      <point x="264" y="139"/>
      <point x="360" y="72"/>
      <point x="414" y="72" type="qcurve"/>
      <point x="450" y="72"/>
      <point x="535" y="114"/>
      <point x="608" y="212"/>
      <point x="657" y="372"/>
      <point x="657" y="489" type="qcurve"/>
      <point x="657" y="587"/>
      <point x="617" y="741"/>
      <point x="551" y="847"/>
      <point x="466" y="902"/>
      <point x="422" y="902" type="qcurve"/>
      <point x="387" y="902"/>
      <point x="329" y="881"/>
      <point x="280" y="848"/>
      <point x="242" y="806"/>
      <point x="228" y="785" type="qcurve"/>
    </contour>
    <contour>
      <point x="107" y="1464" type="line"/>
      <point x="206" y="1494" type="line"/>
      <point x="228" y="1494" type="line"/>
      <point x="228" y="902" type="line"/>
      <point x="236" y="902" type="line"/>
      <point x="252" y="921"/>
      <point x="298" y="958"/>
      <point x="351" y="987"/>
      <point x="412" y="1004"/>
      <point x="445" y="1004" type="qcurve"/>
      <point x="515" y="1004"/>
      <point x="638" y="928"/>
      <point x="732" y="791"/>
      <point x="786" y="602"/>
      <point x="786" y="488" type="qcurve"/>
      <point x="786" y="357"/>
      <point x="725" y="163"/>
      <point x="624" y="34"/>
      <point x="492" y="-30"/>
      <point x="422" y="-30" type="qcurve"/>
      <point x="389" y="-30"/>
      <point x="324" y="-12"/>
      <point x="249" y="37"/>
      <point x="161" y="123"/>
      <point x="107" y="190" type="qcurve"/>
    </contour>
  </outline>
</glyph>
<glyph name="c" format="2">
  <advance width="768"/>
  <unicode hex="0063"/>
  <anchor x="320" y="0" name="AccentBelow"/>
  <anchor x="300" y="0" name="AccentCedilla"/>
  <anchor x="400" y="1100" name="AccentDefault"/>
  <anchor x="300" y="486" name="AccentMiddle"/>
  <outline>
    <contour>
      <point x="630" y="747" type="line"/>
      <point x="620" y="768"/>
      <point x="585" y="822"/>
      <point x="536" y="869"/>
      <point x="473" y="902"/>
      <point x="435" y="902" type="qcurve"/>
      <point x="382" y="902"/>
      <point x="292" y="837"/>
      <point x="227" y="724"/>
      <point x="191" y="573"/>
      <point x="191" y="487" type="qcurve"/>
      <point x="191" y="400"/>
      <point x="227" y="249"/>
      <point x="292" y="137"/>
      <point x="381" y="72"/>
      <point x="435" y="72" type="qcurve"/>
      <point x="473" y="72"/>
      <point x="536" y="105"/>
      <point x="585" y="152"/>
      <point x="620" y="206"/>
      <point x="630" y="227" type="qcurve"/>
      <point x="707" y="125" type="line"/>
      <point x="687" y="96"/>
      <point x="633" y="40"/>
      <point x="566" y="-3"/>
      <point x="483" y="-30"/>
      <point x="435" y="-30" type="qcurve"/>
      <point x="355" y="-30"/>
      <point x="218" y="48"/>
      <point x="118" y="186"/>
      <point x="62" y="376"/>
      <point x="62" y="487" type="qcurve"/>
      <point x="62" y="598"/>
      <point x="119" y="788"/>
      <point x="219" y="926"/>
      <point x="355" y="1004"/>
      <point x="435" y="1004" type="qcurve"/>
      <point x="483" y="1004"/>
      <point x="566" y="976"/>
      <point x="633" y="932"/>
      <point x="687" y="877"/>
      <point x="707" y="849" type="qcurve"/>
    </contour>
  </outline>
</glyph>
<glyph name="d" format="2">
  <advance width="840"/>
  <unicode hex="0064"/>
  <anchor x="350" y="0" name="AccentBelow"/>
  <anchor x="300" y="0" name="AccentCedilla"/>
  <anchor x="400" y="1600" name="AccentDefault"/>
  <anchor x="450" y="1200" name="AccentMiddle"/>
  <outline>
    <contour>
      <point x="614" y="1464" type="line"/>
      <point x="713" y="1494" type="line"/>
      <point x="735" y="1494" type="line"/>
      <point x="735" y="179" type="line"/>
      <point x="735" y="125"/>
      <point x="762" y="72"/>
      <point x="794" y="72" type="qcurve"/>
      <point x="780" y="-30" type="line"/>
      <point x="737" y="-30"/>
      <point x="678" y="7"/>
      <point x="642" y="60"/>
      <point x="624" y="119"/>
      <point x="621" y="142" type="qcurve"/>
      <point x="614" y="142" type="line"/>
      <point x="599" y="114"/>
      <point x="558" y="54"/>
      <point x="503" y="3"/>
      <point x="432" y="-30"/>
      <point x="386" y="-30" type="qcurve"/>
      <point x="323" y="-30"/>
      <point x="206" y="40"/>
      <point x="116" y="172"/>
      <point x="62" y="365"/>
      <point x="62" y="488" type="qcurve"/>
      <point x="62" y="594"/>
      <point x="115" y="782"/>
      <point x="206" y="922"/>
      <point x="326" y="1004"/>
      <point x="393" y="1004" type="qcurve"/>
      <point x="426" y="1004"/>
      <point x="488" y="986"/>
      <point x="543" y="957"/>
      <point x="589" y="921"/>
      <point x="606" y="902" type="qcurve"/>
      <point x="614" y="902" type="line"/>
    </contour>
    <contour>
      <point x="614" y="785" type="line"/>
      <point x="599" y="806"/>
      <point x="560" y="848"/>
      <point x="511" y="881"/>
      <point x="451" y="902"/>
      <point x="416" y="902" type="qcurve"/>
      <point x="369" y="902"/>
      <point x="287" y="844"/>
      <point x="226" y="736"/>
      <point x="191" y="583"/>
      <point x="191" y="489" type="qcurve"/>
      <point x="191" y="375"/>
      <point x="230" y="217"/>
      <point x="292" y="117"/>
      <point x="370" y="72"/>
      <point x="409" y="72" type="qcurve"/>
      <point x="444" y="72"/>
      <point x="505" y="105"/>
      <point x="557" y="158"/>
      <point x="598" y="227"/>
      <point x="614" y="263" type="qcurve"/>
    </contour>
  </outline>
</glyph>
<glyph name="g" format="2">
  <advance width="840"/>
  <unicode hex="0067"/>
  <anchor x="320" y="-400" name="AccentBelow"/>
  <anchor x="400" y="1100" name="AccentDefault"/>
  <anchor x="350" y="486" name="AccentMiddle"/>
  <outline>
    <contour>
      <point x="612" y="974" type="line"/>
      <point x="711" y="1004" type="line"/>
      <point x="734" y="1004" type="line"/>
      <point x="734" y="0" type="line"/>
      <point x="734" y="-126"/>
      <point x="676" y="-310"/>
      <point x="581" y="-431"/>
      <point x="455" y="-490"/>
      <point x="388" y="-490" type="qcurve"/>
      <point x="347" y="-490"/>
      <point x="263" y="-471"/>
      <point x="186" y="-432"/>
      <point x="118" y="-374"/>
      <point x="91" y="-335" type="qcurve"/>
      <point x="167" y="-233" type="line"/>
      <point x="206" y="-305"/>
      <point x="320" y="-388"/>
      <point x="388" y="-388" type="qcurve"/>
      <point x="431" y="-388"/>
      <point x="513" y="-353"/>
      <point x="575" y="-271"/>
      <point x="612" y="-138"/>
      <point x="612" y="-40" type="qcurve"/>
      <point x="612" y="142" type="line"/>
      <point x="605" y="142" type="line"/>
      <point x="600" y="127"/>
      <point x="566" y="79"/>
      <point x="512" y="33"/>
      <point x="437" y="0"/>
      <point x="392" y="0" type="qcurve"/>
      <point x="332" y="0"/>
      <point x="215" y="71"/>
      <point x="125" y="200"/>
      <point x="69" y="379"/>
      <point x="69" y="488" type="qcurve"/>
      <point x="69" y="599"/>
      <point x="125" y="778"/>
      <point x="215" y="905"/>
      <point x="332" y="974"/>
      <point x="393" y="974" type="qcurve"/>
      <point x="420" y="974"/>
      <point x="476" y="961"/>
      <point x="531" y="933"/>
      <point x="583" y="886"/>
      <point x="605" y="852" type="qcurve"/>
      <point x="612" y="852" type="line"/>
    </contour>
    <contour>
      <point x="612" y="743" type="line"/>
      <point x="574" y="813"/>
      <point x="474" y="872"/>
      <point x="416" y="872" type="qcurve"/>
      <point x="371" y="872"/>
      <point x="291" y="817"/>
      <point x="232" y="716"/>
      <point x="198" y="575"/>
      <point x="198" y="488" type="qcurve"/>
      <point x="198" y="386"/>
      <point x="236" y="240"/>
      <point x="298" y="146"/>
      <point x="375" y="102"/>
      <point x="415" y="102" type="qcurve"/>
      <point x="454" y="102"/>
      <point x="518" y="132"/>
      <point x="569" y="177"/>
      <point x="603" y="230"/>
      <point x="612" y="254" type="qcurve"/>
    </contour>
  </outline>
</glyph>
<glyph name="i" format="2">
  <advance width="432"/>
  <unicode hex="0069"/>
  <anchor x="120" y="0" name="AccentBelow"/>
  <anchor x="220" y="1600" name="AccentDefault"/>
  <anchor x="120" y="486" name="AccentMiddle"/>
  <anchor x="-150" y="0" name="AccentOgonek"/>
  <outline>
    <contour>
      <point x="155" y="974" type="line"/>
      <point x="254" y="1004" type="line"/>
      <point x="277" y="1004" type="line"/>
      <point x="277" y="0" type="line"/>
      <point x="155" y="0" type="line"/>
    </contour>
    <contour>
      <point x="120" y="1272" type="qcurve"/>
      <point x="120" y="1312"/>
      <point x="176" y="1368"/>
      <point x="216" y="1368" type="qcurve"/>
      <point x="256" y="1368"/>
      <point x="312" y="1312"/>
      <point x="312" y="1272" type="qcurve"/>
      <point x="312" y="1232"/>
      <point x="256" y="1176"/>
      <point x="216" y="1176" type="qcurve"/>
      <point x="176" y="1176"/>
      <point x="120" y="1232"/>
    </contour>
  </outline>
</glyph>
<glyph name="j" format="2">
  <advance width="432"/>
  <unicode hex="006A"/>
  <anchor x="150" y="-400" name="AccentBelow"/>
  <anchor x="220" y="1600" name="AccentDefault"/>
  <anchor x="120" y="486" name="AccentMiddle"/>
  <outline>
    <contour>
      <point x="155" y="974" type="line"/>
      <point x="254" y="1004" type="line"/>
      <point x="277" y="1004" type="line"/>
      <point x="277" y="-77" type="line"/>
      <point x="277" y="-196"/>
      <point x="240" y="-354"/>
      <point x="172" y="-450"/>
      <point x="73" y="-490"/>
      <point x="11" y="-490" type="qcurve"/>
      <point x="24" y="-388" type="line"/>
      <point x="51" y="-388"/>
      <point x="99" y="-365"/>
      <point x="135" y="-310"/>
      <point x="155" y="-220"/>
      <point x="155" y="-152" type="qcurve"/>
    </contour>
    <contour>
      <point x="120" y="1272" type="qcurve"/>
      <point x="120" y="1312"/>
      <point x="176" y="1368"/>
      <point x="216" y="1368" type="qcurve"/>
      <point x="256" y="1368"/>
      <point x="312" y="1312"/>
      <point x="312" y="1272" type="qcurve"/>
      <point x="312" y="1232"/>
      <point x="256" y="1176"/>
      <point x="216" y="1176" type="qcurve"/>
      <point x="176" y="1176"/>
      <point x="120" y="1232"/>
    </contour>
  </outline>
</glyph>
<glyph name="p" format="2">
  <advance width="840"/>
  <unicode hex="0070"/>
  <anchor x="350" y="-400" name="AccentBelow"/>
  <anchor x="400" y="1100" name="AccentDefault"/>
  <anchor x="350" y="486" name="AccentMiddle"/>
  <outline>
    <contour>
      <point x="228" y="974" type="line"/>
      <point x="228" y="902" type="line"/>
      <point x="236" y="902" type="line"/>
      <point x="252" y="921"/>
      <point x="297" y="958"/>
      <point x="350" y="987"/>
      <point x="410" y="1004"/>
      <point x="443" y="1004" type="qcurve"/>
      <point x="513" y="1004"/>
      <point x="635" y="928"/>
      <point x="726" y="791"/>
      <point x="779" y="602"/>
      <point x="779" y="488" type="qcurve"/>
      <point x="779" y="357"/>
      <point x="720" y="163"/>
      <point x="621" y="34"/>
      <point x="491" y="-30"/>
      <point x="420" y="-30" type="qcurve"/>
      <point x="394" y="-30"/>
      <point x="337" y="-13"/>
      <point x="285" y="16"/>
      <point x="242" y="52"/>
      <point x="228" y="72" type="qcurve"/>
      <point x="228" y="-460" type="line"/>
      <point x="129" y="-490" type="line"/>
      <point x="107" y="-490" type="line"/>
      <point x="107" y="944" type="line"/>
      <point x="206" y="974" type="line"/>
    </contour>
    <contour>
      <point x="228" y="190" type="line"/>
      <point x="264" y="139"/>
      <point x="359" y="72"/>
      <point x="413" y="72" type="qcurve"/>
      <point x="449" y="72"/>
      <point x="532" y="114"/>
      <point x="602" y="212"/>
      <point x="650" y="372"/>
      <point x="650" y="489" type="qcurve"/>
      <point x="650" y="587"/>
      <point x="611" y="741"/>
      <point x="547" y="847"/>
      <point x="464" y="902"/>
      <point x="420" y="902" type="qcurve"/>
      <point x="385" y="902"/>
      <point x="327" y="881"/>
      <point x="280" y="848"/>
      <point x="242" y="806"/>
      <point x="228" y="785" type="qcurve"/>
    </contour>
  </outline>
</glyph>
<glyph name="r" format="2">
  <advance width="552"/>
  <unicode hex="0072"/>
  <anchor x="220" y="0" name="AccentBelow"/>
  <anchor x="320" y="1100" name="AccentDefault"/>
  <anchor x="120" y="486" name="AccentMiddle"/>
  <outline>
    <contour>
      <point x="236" y="974" type="line"/>
      <point x="236" y="808" type="line"/>
      <point x="243" y="808" type="line"/>
      <point x="277" y="905"/>
      <point x="363" y="1004"/>
      <point x="425" y="1004" type="qcurve"/>
      <point x="441" y="1004"/>
      <point x="474" y="992"/>
      <point x="502" y="974"/>
      <point x="523" y="953"/>
      <point x="528" y="944" type="qcurve"/>
      <point x="508" y="786" type="line"/>
      <point x="494" y="806"/>
      <point x="437" y="842"/>
      <point x="405" y="842" type="qcurve"/>
      <point x="360" y="842"/>
      <point x="296" y="783"/>
      <point x="255" y="699"/>
      <point x="236" y="607"/>
      <point x="236" y="574" type="qcurve"/>
      <point x="236" y="0" type="line"/>
      <point x="114" y="0" type="line"/>
      <point x="114" y="944" type="line"/>
      <point x="213" y="974" type="line"/>
    </contour>
  </outline>
</glyph>
<glyph name="s" format="2">
  <advance width="648"/>
  <unicode hex="0073"/>
  <anchor x="250" y="0" name="AccentBelow"/>
  <anchor x="200" y="0" name="AccentCedilla"/>
  <anchor x="350" y="1100" name="AccentDefault"/>
  <anchor x="250" y="486" name="AccentMiddle"/>
  <outline>
    <contour>
      <point x="146" y="227" type="line"/>
      <point x="161" y="193"/>
      <point x="200" y="136"/>
      <point x="246" y="95"/>
      <point x="297" y="72"/>
      <point x="323" y="72" type="qcurve"/>
      <point x="350" y="72"/>
      <point x="401" y="91"/>
      <point x="440" y="132"/>
      <point x="465" y="194"/>
      <point x="465" y="238" type="qcurve"/>
      <point x="465" y="272"/>
      <point x="447" y="325"/>
      <point x="407" y="372"/>
      <point x="342" y="414"/>
      <point x="296" y="437" type="qcurve"/>
      <point x="263" y="453"/>
      <point x="196" y="507"/>
      <point x="143" y="583"/>
      <point x="109" y="685"/>
      <point x="109" y="749" type="qcurve"/>
      <point x="109" y="807"/>
      <point x="143" y="902"/>
      <point x="201" y="968"/>
      <point x="278" y="1004"/>
      <point x="322" y="1004" type="qcurve"/>
      <point x="358" y="1004"/>
      <point x="427" y="980"/>
      <point x="489" y="938"/>
      <point x="542" y="882"/>
      <point x="563" y="849" type="qcurve"/>
      <point x="488" y="747" type="line"/>
      <point x="476" y="778"/>
      <point x="442" y="834"/>
      <point x="400" y="877"/>
      <point x="350" y="902"/>
      <point x="323" y="902" type="qcurve"/>
      <point x="302" y="902"/>
      <point x="266" y="884"/>
      <point x="239" y="850"/>
      <point x="223" y="800"/>
      <point x="223" y="768" type="qcurve"/>
      <point x="223" y="733"/>
      <point x="246" y="673"/>
      <point x="284" y="624"/>
      <point x="333" y="587"/>
      <point x="359" y="575" type="qcurve"/>
      <point x="415" y="548"/>
      <point x="498" y="484"/>
      <point x="553" y="404"/>
      <point x="579" y="306"/>
      <point x="579" y="246" type="qcurve"/>
      <point x="579" y="182"/>
      <point x="536" y="80"/>
      <point x="465" y="8"/>
      <point x="373" y="-30"/>
      <point x="323" y="-30" type="qcurve"/>
      <point x="176" y="-30"/>
      <point x="69" y="125" type="qcurve"/>
    </contour>
  </outline>
</glyph>
<glyph name="u" format="2">
  <advance width="840"/>
  <unicode hex="0075"/>
  <anchor x="350" y="0" name="AccentBelow"/>
  <anchor x="400" y="1100" name="AccentDefault"/>
  <anchor x="350" y="486" name="AccentMiddle"/>
  <anchor x="350" y="0" name="AccentOgonek"/>
  <outline>
    <contour>
      <point x="236" y="1004" type="line"/>
      <point x="236" y="305" type="line"/>
      <point x="236" y="240"/>
      <point x="261" y="151"/>
      <point x="303" y="96"/>
      <point x="356" y="72"/>
      <point x="384" y="72" type="qcurve"/>
      <point x="425" y="72"/>
      <point x="493" y="107"/>
      <point x="548" y="163"/>
      <point x="590" y="230"/>
      <point x="606" y="263" type="qcurve"/>
      <point x="606" y="974" type="line"/>
      <point x="705" y="1004" type="line"/>
      <point x="728" y="1004" type="line"/>
      <point x="728" y="189" type="line"/>
      <point x="728" y="123"/>
      <point x="756" y="72"/>
      <point x="786" y="72" type="qcurve"/>
      <point x="773" y="-30" type="line"/>
      <point x="731" y="-30"/>
      <point x="676" y="2"/>
      <point x="640" y="52"/>
      <point x="620" y="113"/>
      <point x="614" y="142" type="qcurve"/>
      <point x="606" y="142" type="line"/>
      <point x="593" y="116"/>
      <point x="549" y="56"/>
      <point x="486" y="4"/>
      <point x="407" y="-30"/>
      <point x="359" y="-30" type="qcurve"/>
      <point x="313" y="-30"/>
      <point x="225" y="4"/>
      <point x="156" y="79"/>
      <point x="114" y="197"/>
      <point x="114" y="280" type="qcurve"/>
      <point x="114" y="974" type="line"/>
      <point x="213" y="1004" type="line"/>
    </contour>
  </outline>
</glyph>
<glyph name="x" format="2">
  <advance width="768"/>
  <unicode hex="0078"/>
  <anchor x="300" y="0" name="AccentBelow"/>
  <anchor x="350" y="1100" name="AccentDefault"/>
  <anchor x="300" y="486" name="AccentMiddle"/>
  <outline>
    <contour>
      <point x="175" y="1004" type="line"/>
      <point x="393" y="602" type="line"/>
      <point x="401" y="602" type="line"/>
      <point x="632" y="1004" type="line"/>
      <point x="725" y="974" type="line"/>
      <point x="449" y="509" type="line"/>
      <point x="449" y="499" type="line"/>
      <point x="725" y="0" type="line"/>
      <point x="591" y="-30" type="line"/>
      <point x="376" y="372" type="line"/>
      <point x="368" y="372" type="line"/>
      <point x="136" y="-30" type="line"/>
      <point x="44" y="0" type="line"/>
      <point x="319" y="464" type="line"/>
      <point x="319" y="474" type="line"/>
      <point x="44" y="974" type="line"/>
    </contour>
  </outline>
</glyph>
<glyph name="braceright" format="2">
  <advance width="736"/>
  <unicode hex="007D"/>
  <outline>
    <contour>
      <point x="72" y="1536" type="line"/>
      <point x="157" y="1536"/>
      <point x="287" y="1506"/>
      <point x="374" y="1436"/>
      <point x="418" y="1317"/>
      <point x="418" y="1229" type="qcurve"/>
      <point x="418" y="1064" type="line"/>
      <point x="418" y="988"/>
      <point x="426" y="860"/>
      <point x="471" y="768"/>
      <point x="567" y="716"/>
      <point x="654" y="716" type="qcurve"/>
      <point x="654" y="614" type="line"/>
      <point x="569" y="614"/>
      <point x="474" y="562"/>
      <point x="428" y="470"/>
      <point x="418" y="342"/>
      <point x="418" y="266" type="qcurve"/>
      <point x="418" y="91" type="line"/>
      <point x="418" y="2"/>
      <point x="374" y="-112"/>
      <point x="287" y="-180"/>
      <point x="157" y="-206"/>
      <point x="72" y="-206" type="qcurve"/>
      <point x="90" y="-104" type="line"/>
      <point x="153" y="-104"/>
      <point x="227" y="-83"/>
      <point x="265" y="-33"/>
      <point x="276" y="49"/>
      <point x="276" y="111" type="qcurve"/>
      <point x="276" y="286" type="line"/>
      <point x="276" y="354"/>
      <point x="293" y="478"/>
      <point x="344" y="579"/>
      <point x="437" y="650"/>
      <point x="513" y="665" type="qcurve"/>
      <point x="437" y="680"/>
      <point x="344" y="751"/>
      <point x="293" y="852"/>
      <point x="276" y="976"/>
      <point x="276" y="1044" type="qcurve"/>
      <point x="276" y="1207" type="line"/>
      <point x="276" y="1268"/>
      <point x="265" y="1355"/>
      <point x="227" y="1409"/>
      <point x="153" y="1434"/>
      <point x="90" y="1434" type="qcurve"/>
    </contour>
  </outline>
</glyph>
<glyph name="cent" format="2">
  <advance width="840"/>
  <unicode hex="00A2"/>
  <outline>
    <contour>
      <point x="679" y="1206" type="line" name="av01"/>
      <point x="744" y="1191" type="line"/>
      <point x="656" y="939" type="line"/>
      <point x="682" y="919"/>
      <point x="725" y="872"/>
      <point x="741" y="849" type="qcurve" name="ah01"/>
      <point x="665" y="747" type="line" name="iv01"/>
      <point x="656" y="764"/>
      <point x="632" y="803"/>
      <point x="615" y="823" type="qcurve" name="iv02"/>
      <point x="365" y="109" type="line"/>
      <point x="411" y="72"/>
      <point x="470" y="72" type="qcurve" name="sv01"/>
      <point x="508" y="72"/>
      <point x="571" y="105"/>
      <point x="620" y="152"/>
      <point x="655" y="206"/>
      <point x="665" y="227" type="qcurve" name="iv03"/>
      <point x="741" y="125" type="line" name="ah02"/>
      <point x="722" y="96"/>
      <point x="668" y="41"/>
      <point x="600" y="-3"/>
      <point x="518" y="-30"/>
      <point x="470" y="-30" type="qcurve" name="ab01"/>
      <point x="431" y="-30"/>
      <point x="362" y="-12"/>
      <point x="329" y="5" type="qcurve"/>
      <point x="246" y="-232" type="line" name="av02"/>
      <point x="181" y="-217" type="line"/>
      <point x="272" y="43" type="line"/>
      <point x="231" y="76"/>
      <point x="167" y="168"/>
      <point x="121" y="282"/>
      <point x="96" y="414"/>
      <point x="96" y="487" type="qcurve" name="dh01"/>
      <point x="96" y="598"/>
      <point x="153" y="788"/>
      <point x="254" y="926"/>
      <point x="390" y="1004"/>
      <point x="470" y="1004" type="qcurve" name="at01"/>
      <point x="506" y="1004"/>
      <point x="569" y="989"/>
      <point x="598" y="975" type="qcurve"/>
    </contour>
    <contour>
      <point x="562" y="872" type="line"/>
      <point x="542" y="886"/>
      <point x="496" y="902"/>
      <point x="470" y="902" type="qcurve" name="sv02"/>
      <point x="416" y="902"/>
      <point x="326" y="837"/>
      <point x="261" y="724"/>
      <point x="225" y="573"/>
      <point x="225" y="487" type="qcurve" name="dh02"/>
      <point x="225" y="387"/>
      <point x="271" y="219"/>
      <point x="314" y="162" type="qcurve" name="iv04"/>
    </contour>
  </outline>
</glyph>
<glyph name="sterling" format="2">
  <advance width="840"/>
  <unicode hex="00A3"/>
  <outline>
    <contour>
      <point x="106" y="803" type="line"/>
      <point x="269" y="803" type="line"/>
      <point x="269" y="830"/>
      <point x="256" y="906"/>
      <point x="239" y="993"/>
      <point x="226" y="1086"/>
      <point x="226" y="1130" type="qcurve"/>
      <point x="226" y="1203"/>
      <point x="260" y="1325"/>
      <point x="329" y="1414"/>
      <point x="434" y="1464"/>
      <point x="505" y="1464" type="qcurve"/>
      <point x="551" y="1464"/>
      <point x="629" y="1429"/>
      <point x="689" y="1380"/>
      <point x="733" y="1327"/>
      <point x="744" y="1309" type="qcurve"/>
      <point x="668" y="1207" type="line"/>
      <point x="656" y="1237"/>
      <point x="623" y="1293"/>
      <point x="582" y="1336"/>
      <point x="535" y="1362"/>
      <point x="510" y="1362" type="qcurve"/>
      <point x="468" y="1362"/>
      <point x="407" y="1325"/>
      <point x="367" y="1261"/>
      <point x="347" y="1173"/>
      <point x="347" y="1122" type="qcurve"/>
      <point x="347" y="1090"/>
      <point x="356" y="1003"/>
      <point x="367" y="913"/>
      <point x="376" y="830"/>
      <point x="376" y="803" type="qcurve"/>
      <point x="623" y="803" type="line"/>
      <point x="608" y="678" type="line"/>
      <point x="376" y="693" type="line"/>
      <point x="376" y="601"/>
      <point x="348" y="433"/>
      <point x="305" y="286"/>
      <point x="251" y="161"/>
      <point x="226" y="112" type="qcurve"/>
      <point x="226" y="102" type="line"/>
      <point x="278" y="102"/>
      <point x="355" y="93"/>
      <point x="418" y="81"/>
      <point x="474" y="72"/>
      <point x="505" y="72" type="qcurve"/>
      <point x="538" y="72"/>
      <point x="591" y="105"/>
      <point x="632" y="153"/>
      <point x="660" y="207"/>
      <point x="668" y="227" type="qcurve"/>
      <point x="744" y="125" type="line"/>
      <point x="731" y="106"/>
      <point x="688" y="53"/>
      <point x="626" y="4"/>
      <point x="547" y="-30"/>
      <point x="498" y="-30" type="qcurve"/>
      <point x="459" y="-30"/>
      <point x="385" y="-21"/>
      <point x="299" y="-9"/>
      <point x="195" y="0"/>
      <point x="125" y="0" type="qcurve"/>
      <point x="112" y="102" type="line"/>
      <point x="140" y="151"/>
      <point x="195" y="257"/>
      <point x="240" y="395"/>
      <point x="269" y="576"/>
      <point x="269" y="701" type="qcurve"/>
      <point x="95" y="718" type="line"/>
    </contour>
  </outline>
</glyph>
<glyph name="currency" format="2">
  <advance width="1024"/>
  <unicode hex="00A4"/>
  <outline>
    <contour>
      <point x="510" y="974" type="qcurve"/>
      <point x="462" y="974"/>
      <point x="377" y="935"/>
      <point x="312" y="869"/>
      <point x="274" y="783"/>
      <point x="274" y="736" type="qcurve"/>
      <point x="274" y="689"/>
      <point x="312" y="603"/>
      <point x="377" y="538"/>
      <point x="462" y="499"/>
      <point x="510" y="499" type="qcurve"/>
      <point x="557" y="499"/>
      <point x="643" y="537"/>
      <point x="708" y="601"/>
      <point x="747" y="688"/>
      <point x="747" y="736" type="qcurve"/>
      <point x="747" y="783"/>
      <point x="708" y="869"/>
      <point x="643" y="935"/>
      <point x="557" y="974"/>
    </contour>
    <contour>
      <point x="719" y="445" type="line"/>
      <point x="621" y="377"/>
      <point x="510" y="377" type="qcurve"/>
      <point x="401" y="377"/>
      <point x="307" y="441" type="qcurve"/>
      <point x="152" y="287" type="line"/>
      <point x="66" y="373" type="line"/>
      <point x="219" y="527" type="line"/>
      <point x="185" y="573"/>
      <point x="152" y="679"/>
      <point x="152" y="736" type="qcurve"/>
      <point x="152" y="851"/>
      <point x="219" y="945" type="qcurve"/>
      <point x="66" y="1098" type="line"/>
      <point x="152" y="1184" type="line"/>
      <point x="305" y="1031" type="line"/>
      <point x="400" y="1096"/>
      <point x="510" y="1096" type="qcurve"/>
      <point x="621" y="1096"/>
      <point x="719" y="1027" type="qcurve"/>
      <point x="877" y="1184" type="line"/>
      <point x="963" y="1098" type="line"/>
      <point x="805" y="941" type="line"/>
      <point x="837" y="893"/>
      <point x="869" y="790"/>
      <point x="869" y="738" type="qcurve"/>
      <point x="869" y="684"/>
      <point x="835" y="579"/>
      <point x="803" y="533" type="qcurve"/>
      <point x="963" y="373" type="line"/>
      <point x="877" y="287" type="line"/>
    </contour>
  </outline>
</glyph>
<glyph name="yen" format="2">
  <advance width="768"/>
  <unicode hex="00A5"/>
  <outline>
    <contour>
      <point x="207" y="1464" type="line" name="hr00"/>
      <point x="403" y="742" type="line"/>
      <point x="410" y="742" type="line"/>
      <point x="606" y="1464" type="line"/>
      <point x="697" y="1434" type="line"/>
      <point x="572" y="974" type="line"/>
      <point x="697" y="974" type="line"/>
      <point x="683" y="872" type="line"/>
      <point x="543" y="872" type="line"/>
      <point x="482" y="645" type="line"/>
      <point x="697" y="645" type="line"/>
      <point x="683" y="543" type="line"/>
      <point x="452" y="543" type="line"/>
      <point x="452" y="0" type="line"/>
      <point x="316" y="0" type="line"/>
      <point x="316" y="543" type="line"/>
      <point x="71" y="543" type="line"/>
      <point x="85" y="645" type="line"/>
      <point x="287" y="645" type="line"/>
      <point x="225" y="872" type="line"/>
      <point x="71" y="872" type="line"/>
      <point x="85" y="974" type="line"/>
      <point x="197" y="974" type="line"/>
      <point x="71" y="1434" type="line"/>
    </contour>
  </outline>
</glyph>
<glyph name="brokenbar" format="2">
  <advance width="736"/>
  <unicode hex="00A6"/>
  <outline>
    <contour>
      <point x="429" y="1682" type="line"/>
      <point x="429" y="825" type="line"/>
      <point x="307" y="825" type="line"/>
      <point x="307" y="1682" type="line"/>
    </contour>
    <contour>
      <point x="307" y="-278" type="line"/>
      <point x="307" y="579" type="line"/>
      <point x="429" y="579" type="line"/>
      <point x="429" y="-278" type="line"/>
    </contour>
  </outline>
</glyph>
<glyph name="guillemotleft" format="2">
  <advance width="1024"/>
  <unicode hex="00AB"/>
  <outline>
    <contour>
      <point x="828" y="906" type="line"/>
      <point x="930" y="876" type="line"/>
      <point x="664" y="487" type="line"/>
      <point x="930" y="98" type="line"/>
      <point x="828" y="68" type="line"/>
      <point x="500" y="487" type="line"/>
    </contour>
    <contour>
      <point x="430" y="906" type="line"/>
      <point x="532" y="876" type="line"/>
      <point x="266" y="487" type="line"/>
      <point x="532" y="98" type="line"/>
      <point x="430" y="68" type="line"/>
      <point x="102" y="487" type="line"/>
    </contour>
  </outline>
</glyph>
<glyph name="twosuperior" format="2">
  <advance width="552"/>
  <unicode hex="00B2"/>
  <outline>
    <contour>
      <point x="117" y="1362" type="line" name="hr00"/>
      <point x="147" y="1410"/>
      <point x="239" y="1464"/>
      <point x="289" y="1464" type="qcurve" name="at01"/>
      <point x="327" y="1464"/>
      <point x="397" y="1434"/>
      <point x="449" y="1373"/>
      <point x="480" y="1281"/>
      <point x="480" y="1219" type="qcurve" name="dh02"/>
      <point x="480" y="1174"/>
      <point x="452" y="1069"/>
      <point x="389" y="939"/>
      <point x="286" y="776"/>
      <point x="210" y="671" type="qcurve" name="iv01"/>
      <point x="495" y="701" type="line"/>
      <point x="480" y="586" type="line" name="sh01"/>
      <point x="71" y="586" type="line"/>
      <point x="71" y="606" type="line"/>
      <point x="164" y="742"/>
      <point x="287" y="932"/>
      <point x="359" y="1070"/>
      <point x="389" y="1172"/>
      <point x="389" y="1221" type="qcurve" name="dh01"/>
      <point x="389" y="1284"/>
      <point x="336" y="1362"/>
      <point x="289" y="1362" type="qcurve" name="sv01"/>
      <point x="252" y="1362"/>
      <point x="197" y="1311"/>
      <point x="179" y="1280" type="qcurve" name="iv02"/>
    </contour>
  </outline>
</glyph>
<glyph name="acute" format="2">
  <advance width="568"/>
  <unicode hex="00B4"/>
  <outline>
    <contour>
      <point x="71" y="1176" type="line"/>
      <point x="382" y="1521" type="line"/>
      <point x="412" y="1521" type="line"/>
      <point x="494" y="1434" type="line"/>
      <point x="494" y="1404" type="line"/>
      <point x="128" y="1116" type="line"/>
    </contour>
  </outline>
</glyph>
<glyph name="paragraph" format="2">
  <advance width="768"/>
  <unicode hex="00B6"/>
  <outline>
    <contour>
      <point x="692" y="1434" type="line"/>
      <point x="692" y="1332" type="line"/>
      <point x="606" y="1332" type="line"/>
      <point x="606" y="0" type="line"/>
      <point x="530" y="0" type="line"/>
      <point x="530" y="1332" type="line"/>
      <point x="420" y="1332" type="line"/>
      <point x="420" y="0" type="line"/>
      <point x="344" y="0" type="line"/>
      <point x="344" y="750" type="line"/>
      <point x="283" y="750"/>
      <point x="184" y="800"/>
      <point x="114" y="891"/>
      <point x="77" y="1017"/>
      <point x="77" y="1092" type="qcurve"/>
      <point x="77" y="1167"/>
      <point x="116" y="1293"/>
      <point x="190" y="1383"/>
      <point x="294" y="1434"/>
      <point x="359" y="1434" type="qcurve"/>
    </contour>
  </outline>
</glyph>
<glyph name="periodcentered" format="2">
  <advance width="576"/>
  <unicode hex="00B7"/>
  <outline>
    <contour>
      <point x="149" y="489" type="qcurve" name="dh01"/>
      <point x="149" y="517"/>
      <point x="170" y="567"/>
      <point x="208" y="604"/>
      <point x="257" y="626"/>
      <point x="286" y="626" type="qcurve" name="dv02"/>
      <point x="315" y="626"/>
      <point x="366" y="604"/>
      <point x="403" y="567"/>
      <point x="425" y="517"/>
      <point x="425" y="489" type="qcurve" name="dh02"/>
      <point x="425" y="460"/>
      <point x="403" y="409"/>
      <point x="366" y="371"/>
      <point x="315" y="350"/>
      <point x="286" y="350" type="qcurve" name="dv01"/>
      <point x="257" y="350"/>
      <point x="208" y="371"/>
      <point x="170" y="409"/>
      <point x="149" y="460"/>
    </contour>
  </outline>
</glyph>
<glyph name="ordmasculine" format="2">
  <advance width="648"/>
  <unicode hex="00BA"/>
  <outline>
    <contour>
      <point x="324" y="1464" type="qcurve" name="hr00"/>
      <point x="388" y="1464"/>
      <point x="491" y="1403"/>
      <point x="565" y="1295"/>
      <point x="605" y="1145"/>
      <point x="605" y="1057" type="qcurve"/>
      <point x="605" y="968"/>
      <point x="565" y="818"/>
      <point x="491" y="710"/>
      <point x="388" y="649"/>
      <point x="324" y="649" type="qcurve"/>
      <point x="260" y="649"/>
      <point x="156" y="709"/>
      <point x="83" y="817"/>
      <point x="43" y="967"/>
      <point x="43" y="1057" type="qcurve"/>
      <point x="43" y="1145"/>
      <point x="83" y="1295"/>
      <point x="156" y="1403"/>
      <point x="260" y="1464"/>
    </contour>
    <contour>
      <point x="324" y="1362" type="qcurve"/>
      <point x="281" y="1362"/>
      <point x="212" y="1315"/>
      <point x="161" y="1233"/>
      <point x="134" y="1121"/>
      <point x="134" y="1057" type="qcurve"/>
      <point x="134" y="991"/>
      <point x="161" y="879"/>
      <point x="212" y="797"/>
      <point x="281" y="751"/>
      <point x="324" y="751" type="qcurve"/>
      <point x="367" y="751"/>
      <point x="437" y="798"/>
      <point x="486" y="880"/>
      <point x="513" y="992"/>
      <point x="513" y="1057" type="qcurve"/>
      <point x="513" y="1121"/>
      <point x="486" y="1233"/>
      <point x="437" y="1315"/>
      <point x="367" y="1362"/>
    </contour>
  </outline>
</glyph>
<glyph name="guillemotright" format="2">
  <advance width="1024"/>
  <unicode hex="00BB"/>
  <guideline x="0" y="901" angle="0"/>
  <guideline x="594" y="0" angle="90"/>
  <guideline x="492" y="0" angle="90"/>
  <outline>
    <contour>
      <point x="524" y="487" type="line" name="sh03"/>
      <point x="196" y="68" type="line" name="av01"/>
      <point x="94" y="98" type="line" name="sh01"/>
      <point x="360" y="487" type="line" name="sh02"/>
      <point x="94" y="876" type="line" name="sh04"/>
      <point x="196" y="906" type="line" name="av03"/>
    </contour>
    <contour>
      <point x="922" y="487" type="line" name="sh07"/>
      <point x="594" y="68" type="line" name="av02"/>
      <point x="492" y="98" type="line" name="sh05"/>
      <point x="758" y="487" type="line" name="sh06"/>
      <point x="492" y="876" type="line" name="sh08"/>
      <point x="594" y="906" type="line" name="av04"/>
    </contour>
  </outline>
</glyph>
<glyph name="AE" format="2">
  <advance width="1320"/>
  <unicode hex="00C6"/>
  <outline>
    <contour>
      <point x="660" y="1434" type="line"/>
      <point x="1263" y="1434" type="line"/>
      <point x="1244" y="1292" type="line"/>
      <point x="797" y="1312" type="line"/>
      <point x="797" y="829" type="line"/>
      <point x="1183" y="829" type="line"/>
      <point x="1166" y="707" type="line"/>
      <point x="797" y="707" type="line"/>
      <point x="797" y="121" type="line"/>
      <point x="1263" y="142" type="line"/>
      <point x="1244" y="0" type="line"/>
      <point x="660" y="0" type="line"/>
      <point x="660" y="365" type="line"/>
      <point x="300" y="365" type="line"/>
      <point x="129" y="-30" type="line"/>
      <point x="39" y="0" type="line"/>
    </contour>
    <contour>
      <point x="645" y="1163" type="line"/>
      <point x="353" y="487" type="line"/>
      <point x="660" y="487" type="line"/>
      <point x="660" y="1163" type="line"/>
    </contour>
  </outline>
</glyph>
<glyph name="eth" format="2">
  <advance width="840"/>
  <unicode hex="00F0"/>
  <outline>
    <contour>
      <point x="759" y="611" type="qcurve"/>
      <point x="759" y="449"/>
      <point x="697" y="207"/>
      <point x="596" y="47"/>
      <point x="467" y="-32"/>
      <point x="401" y="-32" type="qcurve"/>
      <point x="338" y="-32"/>
      <point x="222" y="28"/>
      <point x="134" y="142"/>
      <point x="81" y="306"/>
      <point x="81" y="410" type="qcurve"/>
      <point x="81" y="506"/>
      <point x="128" y="668"/>
      <point x="212" y="784"/>
      <point x="329" y="849"/>
      <point x="401" y="849" type="qcurve"/>
      <point x="433" y="849"/>
      <point x="497" y="826"/>
      <point x="557" y="779"/>
      <point x="611" y="707"/>
      <point x="630" y="659" type="qcurve"/>
      <point x="638" y="659" type="line"/>
      <point x="638" y="705"/>
      <point x="632" y="826"/>
      <point x="612" y="956"/>
      <point x="571" y="1087"/>
      <point x="535" y="1143" type="qcurve"/>
      <point x="411" y="1005" type="line"/>
      <point x="351" y="1099" type="line"/>
      <point x="476" y="1238" type="line"/>
      <point x="385" y="1381" type="line"/>
      <point x="458" y="1464" type="line"/>
      <point x="550" y="1321" type="line"/>
      <point x="677" y="1464" type="line"/>
      <point x="737" y="1369" type="line"/>
      <point x="610" y="1227" type="line"/>
      <point x="638" y="1180"/>
      <point x="692" y="1046"/>
      <point x="734" y="886"/>
      <point x="759" y="705"/>
    </contour>
    <contour>
      <point x="401" y="747" type="qcurve"/>
      <point x="359" y="747"/>
      <point x="289" y="695"/>
      <point x="238" y="604"/>
      <point x="210" y="481"/>
      <point x="210" y="410" type="qcurve"/>
      <point x="210" y="335"/>
      <point x="238" y="210"/>
      <point x="289" y="120"/>
      <point x="359" y="70"/>
      <point x="401" y="70" type="qcurve"/>
      <point x="446" y="70"/>
      <point x="524" y="123"/>
      <point x="582" y="219"/>
      <point x="615" y="351"/>
      <point x="615" y="430" type="qcurve"/>
      <point x="615" y="486"/>
      <point x="584" y="599"/>
      <point x="528" y="690"/>
      <point x="449" y="747"/>
    </contour>
  </outline>
</glyph>
<glyph name="divide" format="2">
  <advance width="1152"/>
  <unicode hex="00F7"/>
  <outline>
    <contour>
      <point x="166" y="548" type="line"/>
      <point x="986" y="548" type="line"/>
      <point x="986" y="426" type="line"/>
      <point x="166" y="426" type="line"/>
    </contour>
    <contour>
      <point x="453" y="93" type="qcurve"/>
      <point x="453" y="118"/>
      <point x="472" y="163"/>
      <point x="506" y="197"/>
      <point x="550" y="216"/>
      <point x="576" y="216" type="qcurve"/>
      <point x="601" y="216"/>
      <point x="646" y="197"/>
      <point x="680" y="163"/>
      <point x="699" y="118"/>
      <point x="699" y="93" type="qcurve"/>
      <point x="699" y="68"/>
      <point x="680" y="23"/>
      <point x="646" y="-10"/>
      <point x="601" y="-30"/>
      <point x="576" y="-30" type="qcurve"/>
      <point x="550" y="-30"/>
      <point x="506" y="-10"/>
      <point x="472" y="23"/>
      <point x="453" y="68"/>
    </contour>
    <contour>
      <point x="453" y="881" type="qcurve"/>
      <point x="453" y="906"/>
      <point x="472" y="951"/>
      <point x="506" y="984"/>
      <point x="550" y="1004"/>
      <point x="576" y="1004" type="qcurve"/>
      <point x="601" y="1004"/>
      <point x="646" y="984"/>
      <point x="680" y="951"/>
      <point x="699" y="906"/>
      <point x="699" y="881" type="qcurve"/>
      <point x="699" y="855"/>
      <point x="680" y="811"/>
      <point x="646" y="777"/>
      <point x="601" y="758"/>
      <point x="576" y="758" type="qcurve"/>
      <point x="550" y="758"/>
      <point x="506" y="777"/>
      <point x="472" y="811"/>
      <point x="453" y="855"/>
    </contour>
  </outline>
</glyph>
<glyph name="oslash" format="2">
  <advance width="840"/>
  <unicode hex="00F8"/>
  <outline>
    <contour>
      <point x="420" y="1004" type="qcurve"/>
      <point x="456" y="1004"/>
      <point x="520" y="988"/>
      <point x="550" y="974" type="qcurve"/>
      <point x="595" y="1099" type="line"/>
      <point x="672" y="1069" type="line"/>
      <point x="621" y="926" type="line"/>
      <point x="659" y="893"/>
      <point x="720" y="801"/>
      <point x="763" y="689"/>
      <point x="786" y="559"/>
      <point x="786" y="487" type="qcurve"/>
      <point x="786" y="376"/>
      <point x="732" y="186"/>
      <point x="635" y="48"/>
      <point x="500" y="-30"/>
      <point x="420" y="-30" type="qcurve"/>
      <point x="384" y="-30"/>
      <point x="320" y="-14"/>
      <point x="290" y="0" type="qcurve"/>
      <point x="245" y="-125" type="line"/>
      <point x="168" y="-95" type="line"/>
      <point x="219" y="47" type="line"/>
      <point x="142" y="114"/>
      <point x="54" y="340"/>
      <point x="54" y="487" type="qcurve"/>
      <point x="54" y="598"/>
      <point x="108" y="788"/>
      <point x="206" y="926"/>
      <point x="340" y="1004"/>
    </contour>
    <contour>
      <point x="420" y="902" type="qcurve"/>
      <point x="367" y="902"/>
      <point x="279" y="837"/>
      <point x="217" y="724"/>
      <point x="183" y="573"/>
      <point x="183" y="487" type="qcurve"/>
      <point x="183" y="390"/>
      <point x="224" y="226"/>
      <point x="263" y="169" type="qcurve"/>
      <point x="514" y="872" type="line"/>
      <point x="492" y="886"/>
      <point x="446" y="902"/>
    </contour>
    <contour>
      <point x="420" y="72" type="qcurve"/>
      <point x="473" y="72"/>
      <point x="561" y="137"/>
      <point x="623" y="249"/>
      <point x="657" y="401"/>
      <point x="657" y="487" type="qcurve"/>
      <point x="657" y="584"/>
      <point x="616" y="747"/>
      <point x="578" y="804" type="qcurve"/>
      <point x="326" y="102" type="line"/>
      <point x="368" y="72"/>
    </contour>
  </outline>
</glyph>
<glyph name="aogonek" format="2">
  <advance width="840"/>
  <unicode hex="0105"/>
  <anchor x="420" y="1100" name="AccentDefault"/>
  <outline>
    <contour>
      <point x="773" y="-419" type="line"/>
      <point x="747" y="-432"/>
      <point x="689" y="-440"/>
      <point x="660" y="-440" type="qcurve"/>
      <point x="619" y="-440"/>
      <point x="545" y="-408"/>
      <point x="490" y="-353"/>
      <point x="458" y="-280"/>
      <point x="458" y="-239" type="qcurve"/>
      <point x="458" y="-209"/>
      <point x="476" y="-148"/>
      <point x="530" y="-83"/>
      <point x="574" y="-49" type="qcurve"/>
      <point x="612" y="-20"/>
      <point x="672" y="10" type="qcurve"/>
      <point x="664" y="19"/>
      <point x="657" y="28" type="qcurve"/>
      <point x="639" y="54"/>
      <point x="618" y="115"/>
      <point x="614" y="142" type="qcurve"/>
      <point x="606" y="142" type="line"/>
      <point x="588" y="115"/>
      <point x="531" y="55"/>
      <point x="458" y="4"/>
      <point x="372" y="-30"/>
      <point x="326" y="-30" type="qcurve"/>
      <point x="278" y="-30"/>
      <point x="194" y="4"/>
      <point x="130" y="69"/>
      <point x="93" y="164"/>
      <point x="93" y="225" type="qcurve"/>
      <point x="93" y="313"/>
      <point x="164" y="449"/>
      <point x="296" y="541"/>
      <point x="487" y="589"/>
      <point x="606" y="589" type="qcurve"/>
      <point x="606" y="637" type="line"/>
      <point x="606" y="716"/>
      <point x="572" y="819"/>
      <point x="518" y="879"/>
      <point x="454" y="902"/>
      <point x="424" y="902" type="qcurve"/>
      <point x="394" y="902"/>
      <point x="330" y="879"/>
      <point x="269" y="839"/>
      <point x="213" y="781"/>
      <point x="191" y="747" type="qcurve"/>
      <point x="115" y="849" type="line"/>
      <point x="176" y="925"/>
      <point x="338" y="1004"/>
      <point x="424" y="1004" type="qcurve"/>
      <point x="480" y="1004"/>
      <point x="589" y="960"/>
      <point x="674" y="862"/>
      <point x="728" y="708"/>
      <point x="728" y="597" type="qcurve"/>
      <point x="728" y="174" type="line"/>
      <point x="728" y="72"/>
      <point x="786" y="72" type="qcurve"/>
      <point x="773" y="-30" type="line"/>
      <point x="743" y="-30"/>
      <point x="720" y="-21" type="qcurve"/>
      <point x="685" y="-46"/>
      <point x="661" y="-66" type="qcurve"/>
      <point x="627" y="-94"/>
      <point x="589" y="-143"/>
      <point x="570" y="-191"/>
      <point x="570" y="-222" type="qcurve"/>
      <point x="570" y="-245"/>
      <point x="587" y="-284"/>
      <point x="615" y="-312"/>
      <point x="650" y="-328"/>
      <point x="668" y="-328" type="qcurve"/>
      <point x="683" y="-328"/>
      <point x="704" y="-326"/>
      <point x="723" y="-320"/>
      <point x="741" y="-310"/>
      <point x="752" y="-302" type="qcurve"/>
    </contour>
    <contour>
      <point x="606" y="507" type="line"/>
      <point x="572" y="507"/>
      <point x="488" y="501"/>
      <point x="401" y="482"/>
      <point x="319" y="447"/>
      <point x="254" y="389"/>
      <point x="215" y="305"/>
      <point x="215" y="246" type="qcurve"/>
      <point x="215" y="164"/>
      <point x="288" y="72"/>
      <point x="354" y="72" type="qcurve"/>
      <point x="392" y="72"/>
      <point x="464" y="104"/>
      <point x="529" y="157"/>
      <point x="584" y="226"/>
      <point x="606" y="263" type="qcurve"/>
    </contour>
  </outline>
</glyph>
<glyph name="Eogonek" format="2">
  <advance width="816"/>
  <unicode hex="0118"/>
  <anchor x="400" y="1600" name="AccentDefault"/>
  <outline>
    <contour>
      <point x="702" y="-419" type="line"/>
      <point x="676" y="-432"/>
      <point x="618" y="-440"/>
      <point x="589" y="-440" type="qcurve"/>
      <point x="548" y="-440"/>
      <point x="474" y="-408"/>
      <point x="419" y="-353"/>
      <point x="387" y="-280"/>
      <point x="387" y="-239" type="qcurve"/>
      <point x="387" y="-209"/>
      <point x="405" y="-148"/>
      <point x="459" y="-83"/>
      <point x="503" y="-49" type="qcurve"/>
      <point x="534" y="-25"/>
      <point x="582" y="0" type="qcurve"/>
      <point x="137" y="0" type="line"/>
      <point x="137" y="1434" type="line"/>
      <point x="740" y="1434" type="line"/>
      <point x="721" y="1292" type="line"/>
      <point x="273" y="1312" type="line"/>
      <point x="273" y="839" type="line"/>
      <point x="659" y="839" type="line"/>
      <point x="643" y="717" type="line"/>
      <point x="273" y="717" type="line"/>
      <point x="273" y="122" type="line"/>
      <point x="740" y="142" type="line"/>
      <point x="721" y="0" type="line"/>
      <point x="681" y="0" type="line"/>
      <point x="625" y="-38"/>
      <point x="556" y="-94"/>
      <point x="518" y="-143"/>
      <point x="499" y="-191"/>
      <point x="499" y="-222" type="qcurve"/>
      <point x="499" y="-245"/>
      <point x="516" y="-284"/>
      <point x="544" y="-312"/>
      <point x="579" y="-328"/>
      <point x="597" y="-328" type="qcurve"/>
      <point x="612" y="-328"/>
      <point x="633" y="-326"/>
      <point x="652" y="-320"/>
      <point x="670" y="-310"/>
      <point x="681" y="-302" type="qcurve"/>
    </contour>
  </outline>
</glyph>
<glyph name="Iogonek" format="2">
  <advance width="432"/>
  <unicode hex="012E"/>
  <outline>
    <contour>
      <point x="305" y="-419" type="line"/>
      <point x="279" y="-432"/>
      <point x="221" y="-440"/>
      <point x="192" y="-440" type="qcurve"/>
      <point x="151" y="-440"/>
      <point x="77" y="-408"/>
      <point x="22" y="-353"/>
      <point x="-10" y="-280"/>
      <point x="-10" y="-239" type="qcurve"/>
      <point x="-10" y="-209"/>
      <point x="8" y="-148"/>
      <point x="62" y="-83"/>
      <point x="106" y="-49" type="qcurve"/>
      <point x="137" y="-25"/>
      <point x="185" y="0" type="qcurve"/>
      <point x="148" y="0" type="line"/>
      <point x="148" y="1434" type="line"/>
      <point x="284" y="1464" type="line"/>
      <point x="284" y="0" type="line"/>
      <point x="228" y="-38"/>
      <point x="159" y="-94"/>
      <point x="121" y="-143"/>
      <point x="102" y="-191"/>
      <point x="102" y="-222" type="qcurve"/>
      <point x="102" y="-245"/>
      <point x="119" y="-284"/>
      <point x="147" y="-312"/>
      <point x="182" y="-328"/>
      <point x="200" y="-328" type="qcurve"/>
      <point x="215" y="-328"/>
      <point x="236" y="-326"/>
      <point x="255" y="-320"/>
      <point x="273" y="-310"/>
      <point x="284" y="-302" type="qcurve"/>
    </contour>
  </outline>
</glyph>
<glyph name="dotlessi" format="2">
  <advance width="432"/>
  <unicode hex="0131"/>
  <outline>
    <contour>
      <point x="155" y="0" type="line"/>
      <point x="155" y="974" type="line"/>
      <point x="254" y="1004" type="line"/>
      <point x="277" y="1004" type="line"/>
      <point x="277" y="0" type="line"/>
    </contour>
  </outline>
</glyph>
<glyph name="jcircumflex" format="2">
  <advance width="432"/>
  <unicode hex="0135"/>
  <outline>
    <contour>
      <point x="155" y="974" type="line" name="hr00"/>
      <point x="254" y="1004" type="line"/>
      <point x="277" y="1004" type="line"/>
      <point x="277" y="-77" type="line"/>
      <point x="277" y="-196"/>
      <point x="240" y="-354"/>
      <point x="172" y="-450"/>
      <point x="73" y="-490"/>
      <point x="11" y="-490" type="qcurve"/>
      <point x="24" y="-388" type="line"/>
      <point x="51" y="-388"/>
      <point x="99" y="-365"/>
      <point x="135" y="-310"/>
      <point x="155" y="-220"/>
      <point x="155" y="-152" type="qcurve"/>
    </contour>
    <contour>
      <point x="153" y="1517" type="line"/>
      <point x="275" y="1517" type="line"/>
      <point x="507" y="1179" type="line"/>
      <point x="416" y="1149" type="line"/>
      <point x="219" y="1394" type="line"/>
      <point x="209" y="1394" type="line"/>
      <point x="12" y="1149" type="line"/>
      <point x="-79" y="1179" type="line"/>
    </contour>
  </outline>
</glyph>
<glyph name="oe" format="2">
  <advance width="1368"/>
  <unicode hex="0153"/>
  <outline>
    <contour>
      <point x="419" y="1004" type="qcurve"/>
      <point x="518" y="1004"/>
      <point x="668" y="894"/>
      <point x="718" y="797" type="qcurve"/>
      <point x="767" y="894"/>
      <point x="915" y="1004"/>
      <point x="1004" y="1004" type="qcurve"/>
      <point x="1067" y="1004"/>
      <point x="1181" y="944"/>
      <point x="1269" y="817"/>
      <point x="1322" y="622"/>
      <point x="1322" y="487" type="qcurve"/>
      <point x="785" y="487" type="line"/>
      <point x="785" y="373"/>
      <point x="827" y="215"/>
      <point x="897" y="116"/>
      <point x="986" y="72"/>
      <point x="1032" y="72" type="qcurve"/>
      <point x="1068" y="72"/>
      <point x="1129" y="103"/>
      <point x="1177" y="149"/>
      <point x="1213" y="203"/>
      <point x="1223" y="227" type="qcurve"/>
      <point x="1299" y="125" type="line"/>
      <point x="1287" y="106"/>
      <point x="1238" y="53"/>
      <point x="1169" y="4"/>
      <point x="1080" y="-30"/>
      <point x="1028" y="-30" type="qcurve"/>
      <point x="923" y="-30"/>
      <point x="767" y="74"/>
      <point x="718" y="177" type="qcurve"/>
      <point x="668" y="80"/>
      <point x="518" y="-30"/>
      <point x="419" y="-30" type="qcurve"/>
      <point x="339" y="-30"/>
      <point x="205" y="48"/>
      <point x="108" y="186"/>
      <point x="54" y="375"/>
      <point x="54" y="487" type="qcurve"/>
      <point x="54" y="598"/>
      <point x="108" y="788"/>
      <point x="205" y="926"/>
      <point x="339" y="1004"/>
    </contour>
    <contour>
      <point x="419" y="902" type="qcurve"/>
      <point x="366" y="902"/>
      <point x="278" y="837"/>
      <point x="217" y="724"/>
      <point x="183" y="573"/>
      <point x="183" y="487" type="qcurve"/>
      <point x="183" y="400"/>
      <point x="217" y="249"/>
      <point x="278" y="137"/>
      <point x="366" y="72"/>
      <point x="419" y="72" type="qcurve"/>
      <point x="473" y="72"/>
      <point x="560" y="137"/>
      <point x="622" y="249"/>
      <point x="656" y="401"/>
      <point x="656" y="487" type="qcurve"/>
      <point x="656" y="573"/>
      <point x="622" y="724"/>
      <point x="560" y="837"/>
      <point x="473" y="902"/>
    </contour>
    <contour>
      <point x="1208" y="589" type="line"/>
      <point x="1208" y="649"/>
      <point x="1178" y="762"/>
      <point x="1124" y="849"/>
      <point x="1046" y="902"/>
      <point x="998" y="902" type="qcurve"/>
      <point x="951" y="902"/>
      <point x="875" y="853"/>
      <point x="820" y="769"/>
      <point x="788" y="655"/>
      <point x="785" y="589" type="qcurve"/>
    </contour>
  </outline>
</glyph>
<glyph name="scedilla" format="2">
  <advance width="648"/>
  <unicode hex="015F"/>
  <outline>
    <contour>
      <point x="146" y="227" type="line"/>
      <point x="161" y="193"/>
      <point x="200" y="136"/>
      <point x="246" y="95"/>
      <point x="297" y="72"/>
      <point x="323" y="72" type="qcurve"/>
      <point x="350" y="72"/>
      <point x="401" y="91"/>
      <point x="440" y="132"/>
      <point x="465" y="194"/>
      <point x="465" y="238" type="qcurve"/>
      <point x="465" y="272"/>
      <point x="447" y="325"/>
      <point x="407" y="372"/>
      <point x="342" y="414"/>
      <point x="296" y="437" type="qcurve"/>
      <point x="263" y="453"/>
      <point x="196" y="507"/>
      <point x="143" y="583"/>
      <point x="109" y="685"/>
      <point x="109" y="749" type="qcurve"/>
      <point x="109" y="807"/>
      <point x="143" y="902"/>
      <point x="201" y="968"/>
      <point x="278" y="1004"/>
      <point x="322" y="1004" type="qcurve"/>
      <point x="358" y="1004"/>
      <point x="427" y="980"/>
      <point x="489" y="938"/>
      <point x="542" y="882"/>
      <point x="563" y="849" type="qcurve"/>
      <point x="488" y="747" type="line"/>
      <point x="476" y="778"/>
      <point x="442" y="834"/>
      <point x="400" y="877"/>
      <point x="350" y="902"/>
      <point x="323" y="902" type="qcurve"/>
      <point x="302" y="902"/>
      <point x="266" y="884"/>
      <point x="239" y="850"/>
      <point x="223" y="800"/>
      <point x="223" y="768" type="qcurve"/>
      <point x="223" y="733"/>
      <point x="246" y="673"/>
      <point x="284" y="624"/>
      <point x="333" y="587"/>
      <point x="359" y="575" type="qcurve"/>
      <point x="415" y="548"/>
      <point x="498" y="484"/>
      <point x="553" y="404"/>
      <point x="579" y="306"/>
      <point x="579" y="246" type="qcurve"/>
      <point x="579" y="190"/>
      <point x="546" y="97"/>
      <point x="488" y="28"/>
      <point x="450" y="5" type="qcurve"/>
      <point x="421" y="-12"/>
      <point x="389" y="-20" type="qcurve"/>
      <point x="357" y="-110" type="line"/>
      <point x="386" y="-110"/>
      <point x="442" y="-135"/>
      <point x="487" y="-182"/>
      <point x="514" y="-250"/>
      <point x="514" y="-293" type="qcurve"/>
      <point x="514" y="-344"/>
      <point x="476" y="-418"/>
      <point x="414" y="-466"/>
      <point x="338" y="-490"/>
      <point x="301" y="-490" type="qcurve"/>
      <point x="266" y="-490"/>
      <point x="207" y="-476"/>
      <point x="161" y="-456"/>
      <point x="129" y="-433"/>
      <point x="120" y="-423" type="qcurve"/>
      <point x="174" y="-347" type="line"/>
      <point x="177" y="-352"/>
      <point x="195" y="-372"/>
      <point x="223" y="-393"/>
      <point x="260" y="-408"/>
      <point x="282" y="-408" type="qcurve"/>
      <point x="305" y="-408"/>
      <point x="345" y="-391"/>
      <point x="375" y="-361"/>
      <point x="392" y="-321"/>
      <point x="392" y="-298" type="qcurve"/>
      <point x="392" y="-276"/>
      <point x="375" y="-236"/>
      <point x="345" y="-207"/>
      <point x="305" y="-190"/>
      <point x="282" y="-190" type="qcurve"/>
      <point x="261" y="-190"/>
      <point x="235" y="-194"/>
      <point x="217" y="-199"/>
      <point x="205" y="-204"/>
      <point x="199" y="-206" type="qcurve"/>
      <point x="266" y="-23" type="line"/>
      <point x="153" y="1"/>
      <point x="69" y="125" type="qcurve"/>
    </contour>
  </outline>
</glyph>
<glyph name="Uogonek" format="2">
  <advance width="1128"/>
  <unicode hex="0172"/>
  <anchor x="550" y="1600" name="AccentDefault"/>
  <outline>
    <contour>
      <point x="748" y="-419" type="line" name="hr00"/>
      <point x="722" y="-432"/>
      <point x="664" y="-440"/>
      <point x="635" y="-440" type="qcurve" name="dv01"/>
      <point x="594" y="-440"/>
      <point x="520" y="-408"/>
      <point x="465" y="-353"/>
      <point x="433" y="-280"/>
      <point x="433" y="-239" type="qcurve" name="sh01"/>
      <point x="433" y="-209"/>
      <point x="451" y="-148"/>
      <point x="505" y="-83"/>
      <point x="549" y="-49" type="qcurve"/>
      <point x="561" y="-40"/>
      <point x="576" y="-30" type="qcurve" name="ab01"/>
      <point x="564" y="-30" type="line"/>
      <point x="467" y="-30"/>
      <point x="310" y="41"/>
      <point x="197" y="186"/>
      <point x="137" y="409"/>
      <point x="137" y="562" type="qcurve" name="sh02"/>
      <point x="137" y="1434" type="line"/>
      <point x="273" y="1464" type="line" name="at01"/>
      <point x="273" y="542" type="line" name="sh03"/>
      <point x="273" y="411"/>
      <point x="326" y="238"/>
      <point x="413" y="134"/>
      <point x="523" y="92"/>
      <point x="579" y="92" type="qcurve" name="sv01"/>
      <point x="641" y="92"/>
      <point x="756" y="137"/>
      <point x="846" y="242"/>
      <point x="900" y="414"/>
      <point x="900" y="542" type="qcurve" name="sh05"/>
      <point x="900" y="1464" type="line" name="at02"/>
      <point x="992" y="1434" type="line"/>
      <point x="992" y="562" type="line" name="sh04"/>
      <point x="992" y="410"/>
      <point x="931" y="187"/>
      <point x="817" y="38"/>
      <point x="727" y="0" type="qcurve"/>
      <point x="671" y="-38"/>
      <point x="602" y="-94"/>
      <point x="564" y="-143"/>
      <point x="545" y="-191"/>
      <point x="545" y="-222" type="qcurve" name="ah01"/>
      <point x="545" y="-245"/>
      <point x="562" y="-284"/>
      <point x="590" y="-312"/>
      <point x="625" y="-328"/>
      <point x="643" y="-328" type="qcurve" name="dv02"/>
      <point x="658" y="-328"/>
      <point x="679" y="-326"/>
      <point x="698" y="-320"/>
      <point x="716" y="-310"/>
      <point x="727" y="-302" type="qcurve"/>
    </contour>
  </outline>
</glyph>
<glyph name="uni0250" format="2">
  <advance width="768"/>
  <unicode hex="0250"/>
  <outline>
    <contour>
      <point x="692" y="125" type="line"/>
      <point x="642" y="49"/>
      <point x="506" y="-30"/>
      <point x="420" y="-30" type="qcurve"/>
      <point x="364" y="-30"/>
      <point x="259" y="16"/>
      <point x="177" y="107"/>
      <point x="128" y="245"/>
      <point x="128" y="337" type="qcurve"/>
      <point x="128" y="800" type="line"/>
      <point x="128" y="902"/>
      <point x="69" y="902" type="qcurve"/>
      <point x="83" y="1004" type="line"/>
      <point x="123" y="1004"/>
      <point x="179" y="971"/>
      <point x="216" y="920"/>
      <point x="237" y="859"/>
      <point x="242" y="832" type="qcurve"/>
      <point x="249" y="832" type="line"/>
      <point x="268" y="861"/>
      <point x="318" y="922"/>
      <point x="383" y="972"/>
      <point x="466" y="1004"/>
      <point x="518" y="1004" type="qcurve"/>
      <point x="563" y="1004"/>
      <point x="638" y="964"/>
      <point x="692" y="891"/>
      <point x="722" y="790"/>
      <point x="722" y="729" type="qcurve"/>
      <point x="722" y="559"/>
      <point x="488" y="375"/>
      <point x="249" y="375" type="qcurve"/>
      <point x="249" y="297" type="line"/>
      <point x="249" y="237"/>
      <point x="280" y="151"/>
      <point x="329" y="97"/>
      <point x="390" y="72"/>
      <point x="420" y="72" type="qcurve"/>
      <point x="486" y="72"/>
      <point x="583" y="158"/>
      <point x="615" y="227" type="qcurve"/>
    </contour>
    <contour>
      <point x="249" y="437" type="line"/>
      <point x="339" y="437"/>
      <point x="471" y="477"/>
      <point x="557" y="550"/>
      <point x="600" y="654"/>
      <point x="600" y="718" type="qcurve"/>
      <point x="600" y="766"/>
      <point x="575" y="836"/>
      <point x="536" y="881"/>
      <point x="493" y="902"/>
      <point x="475" y="902" type="qcurve"/>
      <point x="404" y="902"/>
      <point x="294" y="810"/>
      <point x="249" y="731" type="qcurve"/>
    </contour>
  </outline>
</glyph>
<glyph name="uni0252" format="2">
  <advance width="840"/>
  <unicode hex="0252"/>
  <outline>
    <contour>
      <point x="242" y="0" type="line"/>
      <point x="120" y="0" type="line"/>
      <point x="120" y="795" type="line"/>
      <point x="120" y="849"/>
      <point x="93" y="902"/>
      <point x="62" y="902" type="qcurve"/>
      <point x="75" y="1004" type="line"/>
      <point x="119" y="1004"/>
      <point x="177" y="967"/>
      <point x="213" y="914"/>
      <point x="231" y="854"/>
      <point x="234" y="832" type="qcurve"/>
      <point x="242" y="832" type="line"/>
      <point x="257" y="860"/>
      <point x="297" y="920"/>
      <point x="352" y="971"/>
      <point x="423" y="1004"/>
      <point x="469" y="1004" type="qcurve"/>
      <point x="532" y="1004"/>
      <point x="649" y="934"/>
      <point x="739" y="802"/>
      <point x="794" y="609"/>
      <point x="794" y="486" type="qcurve"/>
      <point x="794" y="380"/>
      <point x="740" y="192"/>
      <point x="650" y="52"/>
      <point x="529" y="-30"/>
      <point x="462" y="-30" type="qcurve"/>
      <point x="430" y="-30"/>
      <point x="368" y="-13"/>
      <point x="312" y="15"/>
      <point x="266" y="52"/>
      <point x="249" y="72" type="qcurve"/>
      <point x="242" y="72" type="line"/>
    </contour>
    <contour>
      <point x="242" y="189" type="line"/>
      <point x="256" y="168"/>
      <point x="295" y="126"/>
      <point x="344" y="93"/>
      <point x="404" y="72"/>
      <point x="439" y="72" type="qcurve"/>
      <point x="486" y="72"/>
      <point x="568" y="130"/>
      <point x="629" y="238"/>
      <point x="665" y="390"/>
      <point x="665" y="485" type="qcurve"/>
      <point x="665" y="599"/>
      <point x="626" y="757"/>
      <point x="563" y="857"/>
      <point x="485" y="902"/>
      <point x="446" y="902" type="qcurve"/>
      <point x="411" y="902"/>
      <point x="350" y="869"/>
      <point x="299" y="816"/>
      <point x="257" y="747"/>
      <point x="242" y="711" type="qcurve"/>
    </contour>
  </outline>
</glyph>
<glyph name="uni0253" format="2">
  <advance width="840"/>
  <unicode hex="0253"/>
  <outline>
    <contour>
      <point x="373" y="1464" type="qcurve"/>
      <point x="359" y="1362" type="line"/>
      <point x="332" y="1362"/>
      <point x="284" y="1339"/>
      <point x="248" y="1284"/>
      <point x="228" y="1193"/>
      <point x="228" y="1126" type="qcurve"/>
      <point x="228" y="902" type="line"/>
      <point x="236" y="902" type="line"/>
      <point x="252" y="921"/>
      <point x="298" y="958"/>
      <point x="351" y="987"/>
      <point x="412" y="1004"/>
      <point x="445" y="1004" type="qcurve"/>
      <point x="515" y="1004"/>
      <point x="638" y="928"/>
      <point x="732" y="791"/>
      <point x="786" y="602"/>
      <point x="786" y="488" type="qcurve"/>
      <point x="786" y="357"/>
      <point x="725" y="163"/>
      <point x="624" y="34"/>
      <point x="492" y="-30"/>
      <point x="422" y="-30" type="qcurve"/>
      <point x="389" y="-30"/>
      <point x="324" y="-12"/>
      <point x="249" y="37"/>
      <point x="161" y="123"/>
      <point x="107" y="190" type="qcurve"/>
      <point x="107" y="1051" type="line"/>
      <point x="107" y="1169"/>
      <point x="143" y="1328"/>
      <point x="212" y="1424"/>
      <point x="311" y="1464"/>
    </contour>
    <contour>
      <point x="228" y="190" type="line"/>
      <point x="264" y="139"/>
      <point x="360" y="72"/>
      <point x="414" y="72" type="qcurve"/>
      <point x="450" y="72"/>
      <point x="535" y="114"/>
      <point x="608" y="212"/>
      <point x="657" y="372"/>
      <point x="657" y="489" type="qcurve"/>
      <point x="657" y="587"/>
      <point x="617" y="741"/>
      <point x="551" y="847"/>
      <point x="466" y="902"/>
      <point x="422" y="902" type="qcurve"/>
      <point x="387" y="902"/>
      <point x="329" y="881"/>
      <point x="280" y="848"/>
      <point x="242" y="806"/>
      <point x="228" y="785" type="qcurve"/>
    </contour>
  </outline>
</glyph>
<glyph name="uni0255" format="2">
  <advance width="768"/>
  <unicode hex="0255"/>
  <outline>
    <contour>
      <point x="630" y="747" type="line" name="hr00"/>
      <point x="620" y="768"/>
      <point x="585" y="822"/>
      <point x="536" y="869"/>
      <point x="473" y="902"/>
      <point x="435" y="902" type="qcurve"/>
      <point x="382" y="902"/>
      <point x="292" y="837"/>
      <point x="227" y="724"/>
      <point x="191" y="573"/>
      <point x="191" y="487" type="qcurve"/>
      <point x="191" y="371"/>
      <point x="224" y="271" type="qcurve"/>
      <point x="273" y="338"/>
      <point x="365" y="422"/>
      <point x="444" y="470"/>
      <point x="508" y="487"/>
      <point x="530" y="487" type="qcurve"/>
      <point x="573" y="487"/>
      <point x="639" y="451"/>
      <point x="683" y="392"/>
      <point x="707" y="314"/>
      <point x="707" y="272" type="qcurve"/>
      <point x="707" y="211"/>
      <point x="668" y="101"/>
      <point x="596" y="19"/>
      <point x="491" y="-30"/>
      <point x="426" y="-30" type="qcurve"/>
      <point x="362" y="-30"/>
      <point x="240" y="31"/>
      <point x="191" y="88" type="qcurve"/>
      <point x="177" y="68"/>
      <point x="146" y="25"/>
      <point x="116" y="-16"/>
      <point x="89" y="-53"/>
      <point x="80" y="-67" type="qcurve"/>
      <point x="0" y="-30" type="line"/>
      <point x="140" y="162" type="line"/>
      <point x="101" y="228"/>
      <point x="62" y="390"/>
      <point x="62" y="487" type="qcurve"/>
      <point x="62" y="598"/>
      <point x="119" y="788"/>
      <point x="219" y="926"/>
      <point x="356" y="1004"/>
      <point x="435" y="1004" type="qcurve"/>
      <point x="483" y="1004"/>
      <point x="566" y="976"/>
      <point x="634" y="932"/>
      <point x="687" y="877"/>
      <point x="707" y="849" type="qcurve"/>
    </contour>
    <contour>
      <point x="263" y="185" type="qcurve"/>
      <point x="299" y="131"/>
      <point x="383" y="72"/>
      <point x="435" y="72" type="qcurve"/>
      <point x="482" y="72"/>
      <point x="555" y="103"/>
      <point x="605" y="157"/>
      <point x="630" y="228"/>
      <point x="630" y="268" type="qcurve"/>
      <point x="630" y="294"/>
      <point x="613" y="337"/>
      <point x="584" y="368"/>
      <point x="546" y="385"/>
      <point x="525" y="385" type="qcurve"/>
      <point x="503" y="385"/>
      <point x="453" y="371"/>
      <point x="391" y="329"/>
      <point x="313" y="250"/>
    </contour>
  </outline>
</glyph>
<glyph name="uni0257" format="2">
  <advance width="840"/>
  <unicode hex="0257"/>
  <outline>
    <contour>
      <point x="880" y="1464" type="qcurve" name="hr00"/>
      <point x="866" y="1362" type="line"/>
      <point x="839" y="1362"/>
      <point x="791" y="1339"/>
      <point x="755" y="1284"/>
      <point x="735" y="1193"/>
      <point x="735" y="1126" type="qcurve"/>
      <point x="735" y="179" type="line"/>
      <point x="735" y="125"/>
      <point x="762" y="72"/>
      <point x="794" y="72" type="qcurve"/>
      <point x="780" y="-30" type="line"/>
      <point x="737" y="-30"/>
      <point x="678" y="7"/>
      <point x="642" y="60"/>
      <point x="624" y="119"/>
      <point x="621" y="142" type="qcurve"/>
      <point x="614" y="142" type="line"/>
      <point x="599" y="114"/>
      <point x="558" y="54"/>
      <point x="503" y="3"/>
      <point x="432" y="-30"/>
      <point x="386" y="-30" type="qcurve"/>
      <point x="323" y="-30"/>
      <point x="206" y="40"/>
      <point x="116" y="172"/>
      <point x="62" y="365"/>
      <point x="62" y="488" type="qcurve"/>
      <point x="62" y="594"/>
      <point x="115" y="782"/>
      <point x="206" y="922"/>
      <point x="326" y="1004"/>
      <point x="393" y="1004" type="qcurve"/>
      <point x="425" y="1004"/>
      <point x="488" y="986"/>
      <point x="543" y="957"/>
      <point x="589" y="921"/>
      <point x="606" y="902" type="qcurve"/>
      <point x="614" y="902" type="line"/>
      <point x="614" y="1051" type="line"/>
      <point x="614" y="1169"/>
      <point x="650" y="1328"/>
      <point x="719" y="1424"/>
      <point x="818" y="1464"/>
    </contour>
    <contour>
      <point x="614" y="785" type="line"/>
      <point x="599" y="806"/>
      <point x="560" y="848"/>
      <point x="511" y="881"/>
      <point x="451" y="902"/>
      <point x="416" y="902" type="qcurve"/>
      <point x="369" y="902"/>
      <point x="287" y="844"/>
      <point x="226" y="736"/>
      <point x="191" y="583"/>
      <point x="191" y="489" type="qcurve"/>
      <point x="191" y="375"/>
      <point x="230" y="217"/>
      <point x="292" y="117"/>
      <point x="370" y="72"/>
      <point x="409" y="72" type="qcurve"/>
      <point x="444" y="72"/>
      <point x="505" y="105"/>
      <point x="557" y="158"/>
      <point x="598" y="227"/>
      <point x="614" y="263" type="qcurve"/>
    </contour>
  </outline>
</glyph>
<glyph name="uni0259" format="2">
  <advance width="768"/>
  <unicode hex="0259"/>
  <outline>
    <contour>
      <point x="593" y="487" type="line"/>
      <point x="593" y="601"/>
      <point x="550" y="759"/>
      <point x="480" y="858"/>
      <point x="391" y="902"/>
      <point x="344" y="902" type="qcurve"/>
      <point x="308" y="902"/>
      <point x="247" y="871"/>
      <point x="198" y="824"/>
      <point x="163" y="770"/>
      <point x="152" y="747" type="qcurve"/>
      <point x="77" y="849" type="line"/>
      <point x="89" y="868"/>
      <point x="138" y="921"/>
      <point x="208" y="970"/>
      <point x="296" y="1004"/>
      <point x="348" y="1004" type="qcurve"/>
      <point x="431" y="1004"/>
      <point x="569" y="935"/>
      <point x="667" y="800"/>
      <point x="722" y="599"/>
      <point x="722" y="467" type="qcurve"/>
      <point x="722" y="357"/>
      <point x="666" y="174"/>
      <point x="570" y="43"/>
      <point x="443" y="-30"/>
      <point x="373" y="-30" type="qcurve"/>
      <point x="310" y="-30"/>
      <point x="195" y="30"/>
      <point x="107" y="157"/>
      <point x="54" y="352"/>
      <point x="54" y="487" type="qcurve"/>
    </contour>
    <contour>
      <point x="168" y="385" type="line"/>
      <point x="168" y="325"/>
      <point x="197" y="212"/>
      <point x="252" y="125"/>
      <point x="330" y="72"/>
      <point x="379" y="72" type="qcurve"/>
      <point x="425" y="72"/>
      <point x="501" y="121"/>
      <point x="557" y="205"/>
      <point x="590" y="319"/>
      <point x="593" y="385" type="qcurve"/>
    </contour>
  </outline>
</glyph>
<glyph name="uni025A" format="2">
  <advance width="1080"/>
  <unicode hex="025A"/>
  <outline>
    <contour>
      <point x="62" y="849" type="line"/>
      <point x="80" y="877"/>
      <point x="134" y="932"/>
      <point x="203" y="976"/>
      <point x="286" y="1004"/>
      <point x="333" y="1004" type="qcurve"/>
      <point x="393" y="1004"/>
      <point x="488" y="966"/>
      <point x="563" y="906"/>
      <point x="617" y="832"/>
      <point x="638" y="796" type="qcurve"/>
      <point x="862" y="1004" type="line"/>
      <point x="874" y="974" type="line"/>
      <point x="854" y="933"/>
      <point x="832" y="866"/>
      <point x="821" y="812"/>
      <point x="819" y="771"/>
      <point x="819" y="756" type="qcurve"/>
      <point x="819" y="737"/>
      <point x="828" y="700"/>
      <point x="846" y="671"/>
      <point x="872" y="653"/>
      <point x="889" y="653" type="qcurve"/>
      <point x="904" y="653"/>
      <point x="929" y="668"/>
      <point x="949" y="693"/>
      <point x="959" y="727"/>
      <point x="959" y="746" type="qcurve"/>
      <point x="1028" y="786" type="line"/>
      <point x="1030" y="776"/>
      <point x="1033" y="748"/>
      <point x="1033" y="734" type="qcurve"/>
      <point x="1033" y="694"/>
      <point x="1011" y="627"/>
      <point x="974" y="578"/>
      <point x="923" y="551"/>
      <point x="896" y="551" type="qcurve"/>
      <point x="867" y="551"/>
      <point x="817" y="579"/>
      <point x="779" y="629"/>
      <point x="758" y="696"/>
      <point x="758" y="734" type="qcurve"/>
      <point x="758" y="748"/>
      <point x="760" y="769"/>
      <point x="763" y="782" type="qcurve"/>
      <point x="759" y="791" type="line"/>
      <point x="673" y="712" type="line"/>
      <point x="690" y="658"/>
      <point x="707" y="544"/>
      <point x="707" y="487" type="qcurve"/>
      <point x="707" y="376"/>
      <point x="650" y="186"/>
      <point x="550" y="48"/>
      <point x="413" y="-30"/>
      <point x="333" y="-30" type="qcurve"/>
      <point x="274" y="-30"/>
      <point x="176" y="14"/>
      <point x="98" y="85"/>
      <point x="40" y="176"/>
      <point x="22" y="223" type="qcurve"/>
      <point x="541" y="707" type="line"/>
      <point x="531" y="738"/>
      <point x="497" y="806"/>
      <point x="445" y="864"/>
      <point x="377" y="902"/>
      <point x="333" y="902" type="qcurve"/>
      <point x="295" y="902"/>
      <point x="232" y="869"/>
      <point x="183" y="822"/>
      <point x="148" y="768"/>
      <point x="138" y="747" type="qcurve"/>
    </contour>
    <contour>
      <point x="144" y="216" type="line"/>
      <point x="158" y="189"/>
      <point x="197" y="137"/>
      <point x="245" y="97"/>
      <point x="302" y="72"/>
      <point x="333" y="72" type="qcurve"/>
      <point x="390" y="72"/>
      <point x="481" y="138"/>
      <point x="544" y="251"/>
      <point x="578" y="402"/>
      <point x="578" y="487" type="qcurve"/>
      <point x="578" y="497"/>
      <point x="577" y="530"/>
      <point x="575" y="565"/>
      <point x="570" y="600"/>
      <point x="567" y="613" type="qcurve"/>
    </contour>
  </outline>
</glyph>
<glyph name="uni025C" format="2">
  <advance width="648"/>
  <unicode hex="025C"/>
  <outline>
    <contour>
      <point x="297" y="589" type="line" name="hr00"/>
      <point x="320" y="589"/>
      <point x="365" y="613"/>
      <point x="402" y="659"/>
      <point x="425" y="725"/>
      <point x="425" y="768" type="qcurve"/>
      <point x="425" y="800"/>
      <point x="410" y="850"/>
      <point x="383" y="884"/>
      <point x="347" y="902"/>
      <point x="326" y="902" type="qcurve"/>
      <point x="298" y="902" name="hr01"/>
      <point x="248" y="877"/>
      <point x="206" y="834"/>
      <point x="173" y="778"/>
      <point x="161" y="747" type="qcurve"/>
      <point x="85" y="849" type="line"/>
      <point x="106" y="882"/>
      <point x="159" y="938"/>
      <point x="221" y="980"/>
      <point x="290" y="1004"/>
      <point x="326" y="1004" type="qcurve"/>
      <point x="370" y="1004"/>
      <point x="445" y="978"/>
      <point x="500" y="922"/>
      <point x="532" y="837"/>
      <point x="532" y="779" type="qcurve"/>
      <point x="532" y="737"/>
      <point x="510" y="669"/>
      <point x="473" y="615"/>
      <point x="423" y="573"/>
      <point x="395" y="558" type="qcurve"/>
      <point x="395" y="548" type="line"/>
      <point x="454" y="522"/>
      <point x="527" y="453"/>
      <point x="566" y="375"/>
      <point x="579" y="294"/>
      <point x="579" y="256" type="qcurve"/>
      <point x="579" y="192"/>
      <point x="536" y="87"/>
      <point x="465" y="12"/>
      <point x="373" y="-30"/>
      <point x="323" y="-30" type="qcurve"/>
      <point x="176" y="-30"/>
      <point x="69" y="125" type="qcurve"/>
      <point x="146" y="227" type="line"/>
      <point x="161" y="193"/>
      <point x="200" y="136"/>
      <point x="246" y="95"/>
      <point x="297" y="72"/>
      <point x="323" y="72" type="qcurve"/>
      <point x="350" y="72"/>
      <point x="401" y="97"/>
      <point x="440" y="145"/>
      <point x="465" y="214"/>
      <point x="465" y="258" type="qcurve"/>
      <point x="465" y="303"/>
      <point x="447" y="386"/>
      <point x="413" y="449"/>
      <point x="360" y="487"/>
      <point x="326" y="487" type="qcurve"/>
      <point x="251" y="487" type="line"/>
      <point x="265" y="589" type="line"/>
    </contour>
  </outline>
</glyph>
<glyph name="uni0260" format="2">
  <advance width="840"/>
  <unicode hex="0260"/>
  <outline>
    <contour>
      <point x="734" y="40" type="line" name="hr00"/>
      <point x="734" y="-102"/>
      <point x="705" y="-232"/>
      <point x="643" y="-339"/>
      <point x="553" y="-408"/>
      <point x="434" y="-446"/>
      <point x="286" y="-460"/>
      <point x="198" y="-460" type="qcurve"/>
      <point x="212" y="-358" type="line"/>
      <point x="297" y="-358"/>
      <point x="443" y="-341"/>
      <point x="551" y="-271"/>
      <point x="612" y="-127"/>
      <point x="612" y="0" type="qcurve"/>
      <point x="612" y="142" type="line"/>
      <point x="605" y="142" type="line"/>
      <point x="600" y="127"/>
      <point x="566" y="79"/>
      <point x="512" y="33"/>
      <point x="437" y="0"/>
      <point x="392" y="0" type="qcurve"/>
      <point x="332" y="0"/>
      <point x="215" y="71"/>
      <point x="125" y="200"/>
      <point x="69" y="379"/>
      <point x="69" y="488" type="qcurve"/>
      <point x="69" y="562"/>
      <point x="95" y="696"/>
      <point x="142" y="810"/>
      <point x="205" y="903"/>
      <point x="279" y="969"/>
      <point x="360" y="1004"/>
      <point x="401" y="1004" type="qcurve"/>
      <point x="419" y="1004"/>
      <point x="468" y="994"/>
      <point x="521" y="970"/>
      <point x="578" y="931"/>
      <point x="605" y="902" type="qcurve"/>
      <point x="612" y="902" type="line"/>
      <point x="617" y="999"/>
      <point x="659" y="1121"/>
      <point x="727" y="1189"/>
      <point x="821" y="1214"/>
      <point x="878" y="1214" type="qcurve"/>
      <point x="865" y="1112" type="line"/>
      <point x="838" y="1112"/>
      <point x="790" y="1098"/>
      <point x="754" y="1055"/>
      <point x="734" y="973"/>
      <point x="734" y="906" type="qcurve"/>
    </contour>
    <contour>
      <point x="612" y="786" type="line"/>
      <point x="566" y="849"/>
      <point x="474" y="902"/>
      <point x="416" y="902" type="qcurve"/>
      <point x="371" y="902"/>
      <point x="291" y="838"/>
      <point x="232" y="726"/>
      <point x="198" y="575"/>
      <point x="198" y="488" type="qcurve"/>
      <point x="198" y="386"/>
      <point x="236" y="240"/>
      <point x="298" y="146"/>
      <point x="375" y="102"/>
      <point x="415" y="102" type="qcurve"/>
      <point x="454" y="102"/>
      <point x="518" y="132"/>
      <point x="569" y="177"/>
      <point x="603" y="230"/>
      <point x="612" y="254" type="qcurve"/>
    </contour>
  </outline>
</glyph>
<glyph name="uni0261" format="2">
  <advance width="840"/>
  <unicode hex="0261"/>
  <outline>
    <contour>
      <point x="734" y="784" type="qcurve" name="hr00"/>
      <point x="734" y="40" type="line"/>
      <point x="734" y="-69"/>
      <point x="703" y="-228"/>
      <point x="643" y="-339"/>
      <point x="553" y="-408"/>
      <point x="434" y="-446"/>
      <point x="286" y="-460"/>
      <point x="198" y="-460" type="qcurve"/>
      <point x="212" y="-358" type="line"/>
      <point x="263" y="-358"/>
      <point x="363" y="-354"/>
      <point x="452" y="-333"/>
      <point x="527" y="-289"/>
      <point x="581" y="-209"/>
      <point x="612" y="-88"/>
      <point x="612" y="0" type="qcurve"/>
      <point x="612" y="142" type="line"/>
      <point x="605" y="142" type="line"/>
      <point x="600" y="127"/>
      <point x="566" y="79"/>
      <point x="512" y="33"/>
      <point x="437" y="0"/>
      <point x="392" y="0" type="qcurve"/>
      <point x="332" y="0"/>
      <point x="215" y="71"/>
      <point x="125" y="200"/>
      <point x="69" y="379"/>
      <point x="69" y="488" type="qcurve"/>
      <point x="69" y="562"/>
      <point x="95" y="696"/>
      <point x="142" y="810"/>
      <point x="205" y="903"/>
      <point x="279" y="969"/>
      <point x="360" y="1004"/>
      <point x="401" y="1004" type="qcurve"/>
      <point x="428" y="1004"/>
      <point x="494" y="995"/>
      <point x="576" y="953"/>
      <point x="674" y="864"/>
    </contour>
    <contour>
      <point x="612" y="783" type="line"/>
      <point x="566" y="846"/>
      <point x="474" y="902"/>
      <point x="416" y="902" type="qcurve"/>
      <point x="371" y="902"/>
      <point x="291" y="838"/>
      <point x="232" y="726"/>
      <point x="198" y="575"/>
      <point x="198" y="488" type="qcurve"/>
      <point x="198" y="386"/>
      <point x="236" y="240"/>
      <point x="298" y="146"/>
      <point x="375" y="102"/>
      <point x="415" y="102" type="qcurve"/>
      <point x="454" y="102"/>
      <point x="518" y="132"/>
      <point x="569" y="177"/>
      <point x="603" y="230"/>
      <point x="612" y="254" type="qcurve"/>
    </contour>
  </outline>
</glyph>
<glyph name="uni0262" format="2">
  <advance width="840"/>
  <unicode hex="0262"/>
  <outline>
    <contour>
      <point x="484" y="487" type="line" name="hr00"/>
      <point x="746" y="487" type="line"/>
      <point x="746" y="135" type="line"/>
      <point x="718" y="93"/>
      <point x="650" y="31"/>
      <point x="574" y="-10"/>
      <point x="493" y="-30"/>
      <point x="453" y="-30" type="qcurve"/>
      <point x="376" y="-30"/>
      <point x="231" y="45"/>
      <point x="120" y="183"/>
      <point x="53" y="376"/>
      <point x="53" y="493" type="qcurve"/>
      <point x="53" y="607"/>
      <point x="118" y="796"/>
      <point x="229" y="931"/>
      <point x="374" y="1005"/>
      <point x="454" y="1005" type="qcurve"/>
      <point x="500" y="1005"/>
      <point x="587" y="982"/>
      <point x="662" y="940"/>
      <point x="724" y="883"/>
      <point x="746" y="849" type="qcurve"/>
      <point x="669" y="747" type="line"/>
      <point x="652" y="780"/>
      <point x="611" y="837"/>
      <point x="558" y="879"/>
      <point x="494" y="903"/>
      <point x="454" y="903" type="qcurve"/>
      <point x="398" y="903"/>
      <point x="298" y="848"/>
      <point x="224" y="743"/>
      <point x="182" y="590"/>
      <point x="182" y="493" type="qcurve"/>
      <point x="182" y="401"/>
      <point x="220" y="247"/>
      <point x="290" y="135"/>
      <point x="391" y="72"/>
      <point x="453" y="72" type="qcurve"/>
      <point x="513" y="72"/>
      <point x="595" y="127"/>
      <point x="624" y="167" type="qcurve"/>
      <point x="624" y="385" type="line"/>
      <point x="470" y="385" type="line"/>
    </contour>
  </outline>
</glyph>
<glyph name="uni0268" format="2">
  <advance width="432"/>
  <unicode hex="0268"/>
  <outline>
    <contour>
      <point x="31" y="589" type="line"/>
      <point x="155" y="589" type="line"/>
      <point x="155" y="974" type="line"/>
      <point x="254" y="1004" type="line"/>
      <point x="277" y="1004" type="line"/>
      <point x="277" y="589" type="line"/>
      <point x="413" y="589" type="line"/>
      <point x="396" y="457" type="line"/>
      <point x="277" y="466" type="line"/>
      <point x="277" y="0" type="line"/>
      <point x="155" y="0" type="line"/>
      <point x="155" y="476" type="line"/>
      <point x="17" y="487" type="line"/>
    </contour>
    <contour>
      <point x="144" y="1338" type="qcurve"/>
      <point x="144" y="1378"/>
      <point x="186" y="1434"/>
      <point x="216" y="1434" type="qcurve"/>
      <point x="246" y="1434"/>
      <point x="288" y="1378"/>
      <point x="288" y="1338" type="qcurve"/>
      <point x="288" y="1298"/>
      <point x="246" y="1242"/>
      <point x="216" y="1242" type="qcurve"/>
      <point x="186" y="1242"/>
      <point x="144" y="1298"/>
    </contour>
  </outline>
</glyph>
<glyph name="uni0269" format="2">
  <advance width="432"/>
  <unicode hex="0269"/>
  <outline>
    <contour>
      <point x="242" y="1004" type="line"/>
      <point x="242" y="297" type="line"/>
      <point x="242" y="240"/>
      <point x="256" y="155"/>
      <point x="292" y="99"/>
      <point x="355" y="72"/>
      <point x="404" y="72" type="qcurve"/>
      <point x="391" y="-30" type="line"/>
      <point x="311" y="-30"/>
      <point x="206" y="8"/>
      <point x="146" y="92"/>
      <point x="121" y="228"/>
      <point x="121" y="326" type="qcurve"/>
      <point x="121" y="974" type="line"/>
      <point x="219" y="1004" type="line"/>
    </contour>
  </outline>
</glyph>
<glyph name="uni026A" format="2">
  <advance width="432"/>
  <unicode hex="026A"/>
  <outline>
    <contour>
      <point x="277" y="1004" type="line" name="hr00"/>
      <point x="277" y="197" type="line"/>
      <point x="277" y="128"/>
      <point x="307" y="72"/>
      <point x="335" y="72" type="qcurve"/>
      <point x="322" y="-30" type="line"/>
      <point x="281" y="-30"/>
      <point x="219" y="-3"/>
      <point x="177" y="58"/>
      <point x="155" y="155"/>
      <point x="155" y="226" type="qcurve"/>
      <point x="155" y="974" type="line"/>
      <point x="254" y="1004" type="line"/>
    </contour>
  </outline>
</glyph>
<glyph name="uni026E" format="2">
  <advance width="936"/>
  <unicode hex="026E"/>
  <outline>
    <contour>
      <point x="131" y="1464" type="line"/>
      <point x="230" y="1494" type="line"/>
      <point x="253" y="1494" type="line"/>
      <point x="253" y="974" type="line"/>
      <point x="768" y="974" type="line"/>
      <point x="768" y="949" type="line"/>
      <point x="550" y="548" type="line"/>
      <point x="550" y="538" type="line"/>
      <point x="619" y="524"/>
      <point x="735" y="437"/>
      <point x="819" y="303"/>
      <point x="866" y="128"/>
      <point x="866" y="27" type="qcurve"/>
      <point x="866" y="-84"/>
      <point x="810" y="-274"/>
      <point x="710" y="-412"/>
      <point x="573" y="-490"/>
      <point x="493" y="-490" type="qcurve"/>
      <point x="446" y="-490"/>
      <point x="362" y="-463"/>
      <point x="294" y="-420"/>
      <point x="240" y="-364"/>
      <point x="221" y="-335" type="qcurve"/>
      <point x="298" y="-233" type="line"/>
      <point x="308" y="-254"/>
      <point x="343" y="-308"/>
      <point x="392" y="-355"/>
      <point x="455" y="-388"/>
      <point x="493" y="-388" type="qcurve"/>
      <point x="547" y="-388"/>
      <point x="636" y="-323"/>
      <point x="701" y="-211"/>
      <point x="737" y="-60"/>
      <point x="737" y="27" type="qcurve"/>
      <point x="737" y="113"/>
      <point x="701" y="264"/>
      <point x="636" y="377"/>
      <point x="546" y="442"/>
      <point x="493" y="442" type="qcurve"/>
      <point x="466" y="442"/>
      <point x="402" y="431"/>
      <point x="378" y="420" type="qcurve"/>
      <point x="378" y="437" type="line"/>
      <point x="606" y="866" type="line"/>
      <point x="606" y="876" type="line"/>
      <point x="253" y="849" type="line"/>
      <point x="253" y="219" type="line"/>
      <point x="253" y="186"/>
      <point x="257" y="132"/>
      <point x="269" y="93"/>
      <point x="293" y="72"/>
      <point x="311" y="72" type="qcurve"/>
      <point x="298" y="-30" type="line"/>
      <point x="212" y="-30"/>
      <point x="131" y="91"/>
      <point x="131" y="226" type="qcurve"/>
    </contour>
  </outline>
</glyph>
<glyph name="uni0273" format="2">
  <advance width="840"/>
  <unicode hex="0273"/>
  <outline>
    <contour>
      <point x="866" y="-490" type="line"/>
      <point x="793" y="-490"/>
      <point x="694" y="-435"/>
      <point x="632" y="-330"/>
      <point x="606" y="-176"/>
      <point x="606" y="-78" type="qcurve"/>
      <point x="606" y="687" type="line"/>
      <point x="606" y="790"/>
      <point x="533" y="902"/>
      <point x="464" y="902" type="qcurve"/>
      <point x="394" y="902"/>
      <point x="284" y="797"/>
      <point x="236" y="697" type="qcurve"/>
      <point x="236" y="0" type="line"/>
      <point x="114" y="0" type="line"/>
      <point x="114" y="944" type="line"/>
      <point x="213" y="974" type="line"/>
      <point x="236" y="974" type="line"/>
      <point x="236" y="837" type="line"/>
      <point x="243" y="837" type="line"/>
      <point x="296" y="925"/>
      <point x="413" y="1004"/>
      <point x="482" y="1004" type="qcurve"/>
      <point x="536" y="1004"/>
      <point x="626" y="963"/>
      <point x="692" y="887"/>
      <point x="728" y="776"/>
      <point x="728" y="707" type="qcurve"/>
      <point x="728" y="-183" type="line"/>
      <point x="728" y="-223"/>
      <point x="743" y="-297"/>
      <point x="779" y="-354"/>
      <point x="838" y="-388"/>
      <point x="881" y="-388" type="qcurve"/>
    </contour>
  </outline>
</glyph>
<glyph name="uni0274" format="2">
  <advance width="840"/>
  <unicode hex="0274"/>
  <outline>
    <contour>
      <point x="198" y="1004" type="line" name="hr00"/>
      <point x="637" y="285" type="line"/>
      <point x="642" y="285" type="line"/>
      <point x="642" y="974" type="line"/>
      <point x="726" y="1004" type="line"/>
      <point x="749" y="1004" type="line"/>
      <point x="749" y="0" type="line"/>
      <point x="642" y="0" type="line"/>
      <point x="203" y="719" type="line"/>
      <point x="198" y="719" type="line"/>
      <point x="198" y="0" type="line"/>
      <point x="92" y="0" type="line"/>
      <point x="92" y="974" type="line"/>
    </contour>
  </outline>
</glyph>
<glyph name="uni0277" format="2">
  <advance width="1200"/>
  <unicode hex="0277"/>
  <outline>
    <contour>
      <point x="1131" y="425" type="qcurve"/>
      <point x="1131" y="312"/>
      <point x="1081" y="142"/>
      <point x="998" y="28"/>
      <point x="889" y="-30"/>
      <point x="831" y="-30" type="qcurve"/>
      <point x="793" y="-30"/>
      <point x="722" y="-8"/>
      <point x="662" y="40"/>
      <point x="616" y="114"/>
      <point x="603" y="167" type="qcurve"/>
      <point x="596" y="167" type="line"/>
      <point x="583" y="114"/>
      <point x="537" y="40"/>
      <point x="478" y="-8"/>
      <point x="407" y="-30"/>
      <point x="369" y="-30" type="qcurve"/>
      <point x="311" y="-30"/>
      <point x="203" y="28"/>
      <point x="119" y="142"/>
      <point x="69" y="312"/>
      <point x="69" y="425" type="qcurve"/>
      <point x="69" y="566"/>
      <point x="143" y="782"/>
      <point x="280" y="929"/>
      <point x="476" y="1004"/>
      <point x="599" y="1004" type="qcurve"/>
      <point x="722" y="1004"/>
      <point x="920" y="929"/>
      <point x="1058" y="782"/>
      <point x="1131" y="566"/>
    </contour>
    <contour>
      <point x="198" y="422" type="qcurve"/>
      <point x="198" y="333"/>
      <point x="230" y="202"/>
      <point x="281" y="115"/>
      <point x="345" y="72"/>
      <point x="377" y="72" type="qcurve"/>
      <point x="463" y="72"/>
      <point x="554" y="234"/>
      <point x="554" y="393" type="qcurve"/>
      <point x="554" y="611" type="line"/>
      <point x="646" y="611" type="line"/>
      <point x="646" y="393" type="line"/>
      <point x="646" y="234"/>
      <point x="737" y="72"/>
      <point x="824" y="72" type="qcurve"/>
      <point x="855" y="72"/>
      <point x="919" y="115"/>
      <point x="970" y="202"/>
      <point x="1002" y="333"/>
      <point x="1002" y="422" type="qcurve"/>
      <point x="1002" y="526"/>
      <point x="962" y="702"/>
      <point x="867" y="830"/>
      <point x="713" y="902"/>
      <point x="599" y="902" type="qcurve"/>
      <point x="486" y="902"/>
      <point x="332" y="830"/>
      <point x="239" y="702"/>
      <point x="198" y="526"/>
    </contour>
  </outline>
</glyph>
<glyph name="uni0278" format="2">
  <advance width="936"/>
  <unicode hex="0278"/>
  <outline>
    <contour>
      <point x="529" y="-460" type="line" name="hr00"/>
      <point x="430" y="-490" type="line"/>
      <point x="407" y="-490" type="line"/>
      <point x="407" y="-30" type="line"/>
      <point x="331" y="-24"/>
      <point x="202" y="58"/>
      <point x="109" y="195"/>
      <point x="57" y="379"/>
      <point x="57" y="487" type="qcurve"/>
      <point x="57" y="595"/>
      <point x="109" y="779"/>
      <point x="202" y="915"/>
      <point x="331" y="998"/>
      <point x="407" y="1004" type="qcurve"/>
      <point x="407" y="1434" type="line"/>
      <point x="506" y="1464" type="line"/>
      <point x="529" y="1464" type="line"/>
      <point x="529" y="1004" type="line"/>
      <point x="605" y="998"/>
      <point x="734" y="915"/>
      <point x="827" y="779"/>
      <point x="879" y="595"/>
      <point x="879" y="487" type="qcurve"/>
      <point x="879" y="379"/>
      <point x="827" y="195"/>
      <point x="734" y="59"/>
      <point x="605" y="-24"/>
      <point x="529" y="-30" type="qcurve"/>
    </contour>
    <contour>
      <point x="186" y="487" type="qcurve"/>
      <point x="186" y="402"/>
      <point x="218" y="258"/>
      <point x="277" y="149"/>
      <point x="359" y="81"/>
      <point x="407" y="72" type="qcurve"/>
      <point x="407" y="902" type="line"/>
      <point x="359" y="893"/>
      <point x="277" y="824"/>
      <point x="218" y="716"/>
      <point x="186" y="572"/>
    </contour>
    <contour>
      <point x="750" y="487" type="qcurve"/>
      <point x="750" y="572"/>
      <point x="718" y="716"/>
      <point x="659" y="824"/>
      <point x="578" y="893"/>
      <point x="529" y="902" type="qcurve"/>
      <point x="529" y="72" type="line"/>
      <point x="578" y="81"/>
      <point x="659" y="149"/>
      <point x="718" y="258"/>
      <point x="750" y="403"/>
    </contour>
  </outline>
</glyph>
<glyph name="uni027B" format="2">
  <advance width="552"/>
  <unicode hex="027B"/>
  <outline>
    <contour>
      <point x="309" y="974" type="line"/>
      <point x="408" y="1004" type="line"/>
      <point x="431" y="1004" type="line"/>
      <point x="431" y="-183" type="line"/>
      <point x="431" y="-223"/>
      <point x="446" y="-297"/>
      <point x="482" y="-354"/>
      <point x="541" y="-388"/>
      <point x="584" y="-388" type="qcurve"/>
      <point x="569" y="-490" type="line"/>
      <point x="496" y="-490"/>
      <point x="397" y="-435"/>
      <point x="335" y="-330"/>
      <point x="309" y="-176"/>
      <point x="309" y="-78" type="qcurve"/>
      <point x="309" y="166" type="line"/>
      <point x="302" y="166" type="line"/>
      <point x="269" y="70"/>
      <point x="180" y="-30"/>
      <point x="113" y="-30" type="qcurve"/>
      <point x="93" y="-30"/>
      <point x="64" y="-24"/>
      <point x="42" y="-15"/>
      <point x="25" y="-5"/>
      <point x="17" y="0" type="qcurve"/>
      <point x="33" y="125" type="line"/>
      <point x="51" y="109"/>
      <point x="100" y="92"/>
      <point x="132" y="92" type="qcurve"/>
      <point x="188" y="92"/>
      <point x="257" y="153"/>
      <point x="296" y="240"/>
      <point x="309" y="334"/>
      <point x="309" y="367" type="qcurve"/>
    </contour>
  </outline>
</glyph>
<glyph name="uni027D" format="2">
  <advance width="552"/>
  <unicode hex="027D"/>
  <outline>
    <contour>
      <point x="382" y="-490" type="line"/>
      <point x="308" y="-490"/>
      <point x="209" y="-435"/>
      <point x="148" y="-330"/>
      <point x="122" y="-176"/>
      <point x="122" y="-78" type="qcurve"/>
      <point x="122" y="944" type="line"/>
      <point x="221" y="974" type="line"/>
      <point x="243" y="974" type="line"/>
      <point x="243" y="808" type="line"/>
      <point x="251" y="808" type="line"/>
      <point x="284" y="904"/>
      <point x="372" y="1004"/>
      <point x="440" y="1004" type="qcurve"/>
      <point x="459" y="1004"/>
      <point x="488" y="998"/>
      <point x="510" y="989"/>
      <point x="527" y="979"/>
      <point x="536" y="974" type="qcurve"/>
      <point x="519" y="849" type="line"/>
      <point x="501" y="865"/>
      <point x="452" y="882"/>
      <point x="420" y="882" type="qcurve"/>
      <point x="364" y="882"/>
      <point x="294" y="821"/>
      <point x="256" y="734"/>
      <point x="243" y="640"/>
      <point x="243" y="607" type="qcurve"/>
      <point x="243" y="-183" type="line"/>
      <point x="243" y="-223"/>
      <point x="259" y="-297"/>
      <point x="295" y="-354"/>
      <point x="353" y="-388"/>
      <point x="396" y="-388" type="qcurve"/>
    </contour>
  </outline>
</glyph>
<glyph name="uni0281" format="2">
  <advance width="768"/>
  <unicode hex="0281"/>
  <outline>
    <contour>
      <point x="122" y="974" type="line" name="hr00"/>
      <point x="221" y="1004" type="line"/>
      <point x="243" y="1004" type="line"/>
      <point x="243" y="569" type="line"/>
      <point x="324" y="569" type="line"/>
      <point x="561" y="1004" type="line" name="hr01"/>
      <point x="686" y="974" type="line"/>
      <point x="423" y="549" type="line"/>
      <point x="423" y="545" type="line"/>
      <point x="455" y="538"/>
      <point x="538" y="500"/>
      <point x="613" y="434"/>
      <point x="665" y="338"/>
      <point x="665" y="274" type="qcurve"/>
      <point x="665" y="142"/>
      <point x="534" y="0"/>
      <point x="402" y="0" type="qcurve"/>
      <point x="122" y="0" type="line"/>
    </contour>
    <contour>
      <point x="381" y="102" type="line"/>
      <point x="415" y="102"/>
      <point x="472" y="120"/>
      <point x="513" y="160"/>
      <point x="536" y="226"/>
      <point x="536" y="274" type="qcurve"/>
      <point x="536" y="323"/>
      <point x="507" y="402"/>
      <point x="459" y="458"/>
      <point x="395" y="487"/>
      <point x="359" y="487" type="qcurve"/>
      <point x="243" y="487" type="line"/>
      <point x="243" y="102" type="line"/>
    </contour>
  </outline>
</glyph>
<glyph name="uni0284" format="2">
  <advance width="552"/>
  <unicode hex="0284"/>
  <outline>
    <contour>
      <point x="499" y="1464" type="qcurve" name="hr00"/>
      <point x="485" y="1362" type="line"/>
      <point x="440" y="1362"/>
      <point x="383" y="1332"/>
      <point x="350" y="1274"/>
      <point x="337" y="1191"/>
      <point x="337" y="1137" type="qcurve"/>
      <point x="337" y="115" type="line"/>
      <point x="485" y="125" type="line"/>
      <point x="469" y="0" type="line"/>
      <point x="337" y="0" type="line"/>
      <point x="337" y="-77" type="line"/>
      <point x="337" y="-196"/>
      <point x="300" y="-354"/>
      <point x="232" y="-450"/>
      <point x="133" y="-490"/>
      <point x="71" y="-490" type="qcurve"/>
      <point x="84" y="-388" type="line"/>
      <point x="111" y="-388"/>
      <point x="159" y="-365"/>
      <point x="195" y="-310"/>
      <point x="215" y="-220"/>
      <point x="215" y="-152" type="qcurve"/>
      <point x="215" y="0" type="line"/>
      <point x="67" y="0" type="line"/>
      <point x="80" y="99" type="line"/>
      <point x="215" y="107" type="line"/>
      <point x="215" y="1108" type="line"/>
      <point x="215" y="1210"/>
      <point x="242" y="1346"/>
      <point x="307" y="1429"/>
      <point x="416" y="1464"/>
    </contour>
  </outline>
</glyph>
<glyph name="uni0286" format="2">
  <advance width="552"/>
  <unicode hex="0286"/>
  <outline>
    <contour>
      <point x="522" y="0" type="line" name="hr00"/>
      <point x="506" y="-125" type="line"/>
      <point x="377" y="-113" type="line"/>
      <point x="377" y="-223"/>
      <point x="340" y="-369"/>
      <point x="281" y="-455"/>
      <point x="206" y="-490"/>
      <point x="169" y="-490" type="qcurve"/>
      <point x="125" y="-490"/>
      <point x="62" y="-454"/>
      <point x="20" y="-391"/>
      <point x="0" y="-305"/>
      <point x="0" y="-255" type="qcurve"/>
      <point x="0" y="-203"/>
      <point x="30" y="-110"/>
      <point x="89" y="-40"/>
      <point x="173" y="0"/>
      <point x="229" y="0" type="qcurve"/>
      <point x="256" y="0" type="line"/>
      <point x="256" y="1051" type="line"/>
      <point x="256" y="1169"/>
      <point x="292" y="1328"/>
      <point x="361" y="1424"/>
      <point x="460" y="1464"/>
      <point x="522" y="1464" type="qcurve"/>
      <point x="509" y="1362" type="line"/>
      <point x="482" y="1362"/>
      <point x="434" y="1339"/>
      <point x="398" y="1284"/>
      <point x="377" y="1193"/>
      <point x="377" y="1126" type="qcurve"/>
      <point x="377" y="0" type="line"/>
    </contour>
    <contour>
      <point x="256" y="-106" type="line"/>
      <point x="201" y="-102" type="line"/>
      <point x="175" y="-102"/>
      <point x="129" y="-125"/>
      <point x="95" y="-167"/>
      <point x="77" y="-227"/>
      <point x="77" y="-265" type="qcurve"/>
      <point x="77" y="-293"/>
      <point x="89" y="-338"/>
      <point x="111" y="-370"/>
      <point x="140" y="-388"/>
      <point x="155" y="-388" type="qcurve"/>
      <point x="172" y="-388"/>
      <point x="208" y="-371"/>
      <point x="237" y="-329"/>
      <point x="256" y="-259"/>
      <point x="256" y="-205" type="qcurve"/>
    </contour>
  </outline>
</glyph>
<glyph name="uni028A" format="2">
  <advance width="840"/>
  <unicode hex="028A"/>
  <outline>
    <contour>
      <point x="554" y="974" type="line"/>
      <point x="824" y="974" type="line"/>
      <point x="808" y="849" type="line"/>
      <point x="657" y="864" type="line"/>
      <point x="657" y="854" type="line"/>
      <point x="683" y="827"/>
      <point x="729" y="745"/>
      <point x="765" y="646"/>
      <point x="786" y="534"/>
      <point x="786" y="477" type="qcurve"/>
      <point x="786" y="366"/>
      <point x="732" y="179"/>
      <point x="635" y="45"/>
      <point x="500" y="-30"/>
      <point x="420" y="-30" type="qcurve"/>
      <point x="340" y="-30"/>
      <point x="206" y="45"/>
      <point x="108" y="179"/>
      <point x="54" y="365"/>
      <point x="54" y="477" type="qcurve"/>
      <point x="54" y="534"/>
      <point x="75" y="646"/>
      <point x="111" y="745"/>
      <point x="158" y="827"/>
      <point x="183" y="854" type="qcurve"/>
      <point x="183" y="864" type="line"/>
      <point x="16" y="849" type="line"/>
      <point x="32" y="974" type="line"/>
      <point x="287" y="974" type="line"/>
      <point x="302" y="863" type="line"/>
      <point x="273" y="837"/>
      <point x="229" y="752"/>
      <point x="199" y="646"/>
      <point x="183" y="527"/>
      <point x="183" y="467" type="qcurve"/>
      <point x="183" y="380"/>
      <point x="217" y="235"/>
      <point x="279" y="130"/>
      <point x="367" y="72"/>
      <point x="420" y="72" type="qcurve"/>
      <point x="473" y="72"/>
      <point x="561" y="131"/>
      <point x="623" y="236"/>
      <point x="657" y="381"/>
      <point x="657" y="467" type="qcurve"/>
      <point x="657" y="526"/>
      <point x="641" y="645"/>
      <point x="611" y="751"/>
      <point x="566" y="837"/>
      <point x="539" y="863" type="qcurve"/>
    </contour>
  </outline>
</glyph>
<glyph name="uni028D" format="2">
  <advance width="1080"/>
  <unicode hex="028D"/>
  <outline>
    <contour>
      <point x="42" y="0" type="line"/>
      <point x="280" y="974" type="line"/>
      <point x="371" y="974" type="line"/>
      <point x="536" y="296" type="line"/>
      <point x="544" y="296" type="line"/>
      <point x="709" y="974" type="line"/>
      <point x="800" y="974" type="line"/>
      <point x="1038" y="0" type="line"/>
      <point x="908" y="-30" type="line"/>
      <point x="735" y="705" type="line"/>
      <point x="728" y="705" type="line"/>
      <point x="563" y="0" type="line"/>
      <point x="472" y="0" type="line"/>
      <point x="306" y="705" type="line"/>
      <point x="299" y="705" type="line"/>
      <point x="127" y="-30" type="line"/>
    </contour>
  </outline>
</glyph>
<glyph name="uni0290" format="2">
  <advance width="720"/>
  <unicode hex="0290"/>
  <outline>
    <contour>
      <point x="54" y="25" type="line"/>
      <point x="501" y="866" type="line"/>
      <point x="501" y="876" type="line"/>
      <point x="116" y="849" type="line"/>
      <point x="132" y="974" type="line"/>
      <point x="663" y="974" type="line"/>
      <point x="663" y="949" type="line"/>
      <point x="215" y="105" type="line"/>
      <point x="215" y="95" type="line"/>
      <point x="663" y="125" type="line"/>
      <point x="647" y="0" type="line"/>
      <point x="647" y="-183" type="line"/>
      <point x="647" y="-223"/>
      <point x="662" y="-297"/>
      <point x="698" y="-354"/>
      <point x="757" y="-388"/>
      <point x="800" y="-388" type="qcurve"/>
      <point x="785" y="-490" type="line"/>
      <point x="712" y="-490"/>
      <point x="613" y="-435"/>
      <point x="551" y="-330"/>
      <point x="525" y="-176"/>
      <point x="525" y="-78" type="qcurve"/>
      <point x="525" y="0" type="line"/>
      <point x="54" y="0" type="line"/>
    </contour>
  </outline>
</glyph>
<glyph name="uni029B" format="2">
  <advance width="840"/>
  <unicode hex="029B"/>
  <outline>
    <contour>
      <point x="491" y="487" type="line" name="hr00"/>
      <point x="746" y="487" type="line"/>
      <point x="746" y="126" type="line"/>
      <point x="692" y="45"/>
      <point x="541" y="-30"/>
      <point x="461" y="-30" type="qcurve"/>
      <point x="383" y="-30"/>
      <point x="239" y="45"/>
      <point x="128" y="183"/>
      <point x="60" y="376"/>
      <point x="60" y="493" type="qcurve"/>
      <point x="60" y="607"/>
      <point x="125" y="796"/>
      <point x="236" y="930"/>
      <point x="381" y="1004"/>
      <point x="461" y="1004" type="qcurve"/>
      <point x="485" y="1004"/>
      <point x="526" y="1000"/>
      <point x="564" y="990"/>
      <point x="602" y="973"/>
      <point x="624" y="961" type="qcurve"/>
      <point x="635" y="1034"/>
      <point x="683" y="1131"/>
      <point x="752" y="1189"/>
      <point x="839" y="1214"/>
      <point x="890" y="1214" type="qcurve"/>
      <point x="877" y="1112" type="line"/>
      <point x="850" y="1112"/>
      <point x="803" y="1092"/>
      <point x="767" y="1034"/>
      <point x="746" y="931"/>
      <point x="746" y="849" type="qcurve"/>
      <point x="669" y="747" type="line"/>
      <point x="628" y="831"/>
      <point x="518" y="902"/>
      <point x="461" y="902" type="qcurve"/>
      <point x="405" y="902"/>
      <point x="305" y="847"/>
      <point x="232" y="742"/>
      <point x="189" y="590"/>
      <point x="189" y="493" type="qcurve"/>
      <point x="189" y="401"/>
      <point x="227" y="247"/>
      <point x="298" y="135"/>
      <point x="398" y="72"/>
      <point x="461" y="72" type="qcurve"/>
      <point x="491" y="72"/>
      <point x="539" y="87"/>
      <point x="578" y="112"/>
      <point x="609" y="147"/>
      <point x="624" y="167" type="qcurve"/>
      <point x="624" y="385" type="line"/>
      <point x="478" y="385" type="line"/>
    </contour>
  </outline>
</glyph>
<glyph name="uni029D" format="2">
  <advance width="552"/>
  <unicode hex="029D"/>
  <outline>
    <contour>
      <point x="285" y="974" type="line"/>
      <point x="384" y="1004" type="line"/>
      <point x="407" y="1004" type="line"/>
      <point x="407" y="-72" type="line"/>
      <point x="522" y="-72" type="line"/>
      <point x="507" y="-174" type="line"/>
      <point x="407" y="-174" type="line"/>
      <point x="407" y="-227"/>
      <point x="379" y="-338"/>
      <point x="323" y="-431"/>
      <point x="239" y="-490"/>
      <point x="185" y="-490" type="qcurve"/>
      <point x="152" y="-490"/>
      <point x="95" y="-457"/>
      <point x="53" y="-400"/>
      <point x="29" y="-324"/>
      <point x="29" y="-280" type="qcurve"/>
      <point x="29" y="-237"/>
      <point x="53" y="-161"/>
      <point x="95" y="-105"/>
      <point x="152" y="-72"/>
      <point x="185" y="-72" type="qcurve"/>
      <point x="285" y="-72" type="line"/>
    </contour>
    <contour>
      <point x="285" y="-174" type="line"/>
      <point x="169" y="-174" type="line"/>
      <point x="135" y="-174"/>
      <point x="90" y="-235"/>
      <point x="90" y="-280" type="qcurve"/>
      <point x="90" y="-302"/>
      <point x="102" y="-341"/>
      <point x="123" y="-371"/>
      <point x="152" y="-388"/>
      <point x="168" y="-388" type="qcurve"/>
      <point x="185" y="-388"/>
      <point x="226" y="-369"/>
      <point x="261" y="-325"/>
      <point x="285" y="-252"/>
      <point x="285" y="-197" type="qcurve"/>
    </contour>
    <contour>
      <point x="250" y="1272" type="qcurve"/>
      <point x="250" y="1312"/>
      <point x="306" y="1368"/>
      <point x="346" y="1368" type="qcurve"/>
      <point x="386" y="1368"/>
      <point x="442" y="1312"/>
      <point x="442" y="1272" type="qcurve"/>
      <point x="442" y="1232"/>
      <point x="386" y="1176"/>
      <point x="346" y="1176" type="qcurve"/>
      <point x="306" y="1176"/>
      <point x="250" y="1232"/>
    </contour>
  </outline>
</glyph>
<glyph name="uni02A1" format="2">
  <advance width="768"/>
  <unicode hex="02A1"/>
  <outline>
    <contour>
      <point x="152" y="487" type="line"/>
      <point x="304" y="487" type="line"/>
      <point x="304" y="687" type="line"/>
      <point x="341" y="687" type="line"/>
      <point x="402" y="687"/>
      <point x="491" y="743"/>
      <point x="550" y="838"/>
      <point x="578" y="964"/>
      <point x="578" y="1033" type="qcurve"/>
      <point x="578" y="1094"/>
      <point x="545" y="1212"/>
      <point x="485" y="1305"/>
      <point x="401" y="1362"/>
      <point x="349" y="1362" type="qcurve"/>
      <point x="308" y="1362"/>
      <point x="244" y="1337"/>
      <point x="194" y="1295"/>
      <point x="155" y="1238"/>
      <point x="138" y="1207" type="qcurve"/>
      <point x="62" y="1309" type="line"/>
      <point x="84" y="1340"/>
      <point x="139" y="1396"/>
      <point x="208" y="1439"/>
      <point x="294" y="1464"/>
      <point x="349" y="1464" type="qcurve"/>
      <point x="432" y="1464"/>
      <point x="565" y="1393"/>
      <point x="657" y="1272"/>
      <point x="707" y="1111"/>
      <point x="707" y="1021" type="qcurve"/>
      <point x="707" y="920"/>
      <point x="653" y="753"/>
      <point x="569" y="632"/>
      <point x="470" y="565"/>
      <point x="425" y="565" type="qcurve"/>
      <point x="425" y="487" type="line"/>
      <point x="594" y="487" type="line"/>
      <point x="578" y="362" type="line"/>
      <point x="425" y="370" type="line"/>
      <point x="425" y="0" type="line"/>
      <point x="304" y="0" type="line"/>
      <point x="304" y="380" type="line"/>
      <point x="139" y="389" type="line"/>
    </contour>
  </outline>
</glyph>
<glyph name="uni02A6" format="2">
  <advance width="936"/>
  <unicode hex="02A6"/>
  <outline>
    <contour>
      <point x="242" y="1322" type="line"/>
      <point x="242" y="974" type="line"/>
      <point x="506" y="974" type="line"/>
      <point x="529" y="988"/>
      <point x="581" y="1004"/>
      <point x="610" y="1004" type="qcurve"/>
      <point x="646" y="1004"/>
      <point x="715" y="980"/>
      <point x="777" y="938"/>
      <point x="830" y="882"/>
      <point x="851" y="849" type="qcurve"/>
      <point x="776" y="747" type="line"/>
      <point x="764" y="778"/>
      <point x="730" y="834"/>
      <point x="688" y="877"/>
      <point x="638" y="902"/>
      <point x="611" y="902" type="qcurve"/>
      <point x="590" y="902"/>
      <point x="554" y="884"/>
      <point x="527" y="850"/>
      <point x="511" y="800"/>
      <point x="511" y="768" type="qcurve"/>
      <point x="511" y="733"/>
      <point x="534" y="673"/>
      <point x="572" y="624"/>
      <point x="621" y="587"/>
      <point x="647" y="575" type="qcurve"/>
      <point x="703" y="548"/>
      <point x="786" y="484"/>
      <point x="841" y="404"/>
      <point x="867" y="306"/>
      <point x="867" y="246" type="qcurve"/>
      <point x="867" y="182"/>
      <point x="824" y="80"/>
      <point x="753" y="8"/>
      <point x="661" y="-30"/>
      <point x="611" y="-30" type="qcurve"/>
      <point x="376" y="-30" type="line"/>
      <point x="300" y="-30"/>
      <point x="202" y="10"/>
      <point x="144" y="95"/>
      <point x="121" y="230"/>
      <point x="121" y="326" type="qcurve"/>
      <point x="121" y="868" type="line"/>
      <point x="24" y="876" type="line"/>
      <point x="37" y="974" type="line"/>
      <point x="121" y="974" type="line"/>
      <point x="121" y="1292" type="line"/>
      <point x="219" y="1322" type="line"/>
    </contour>
    <contour>
      <point x="242" y="297" type="line"/>
      <point x="242" y="240"/>
      <point x="256" y="155"/>
      <point x="292" y="99"/>
      <point x="355" y="72"/>
      <point x="404" y="72" type="qcurve"/>
      <point x="611" y="72" type="line"/>
      <point x="638" y="72"/>
      <point x="689" y="91"/>
      <point x="728" y="132"/>
      <point x="753" y="194"/>
      <point x="753" y="238" type="qcurve"/>
      <point x="753" y="272"/>
      <point x="735" y="325"/>
      <point x="695" y="372"/>
      <point x="630" y="414"/>
      <point x="584" y="437" type="qcurve"/>
      <point x="551" y="453"/>
      <point x="484" y="507"/>
      <point x="431" y="583"/>
      <point x="397" y="685"/>
      <point x="397" y="749" type="qcurve"/>
      <point x="397" y="800"/>
      <point x="412" y="849" type="qcurve"/>
      <point x="242" y="860" type="line"/>
    </contour>
  </outline>
</glyph>
<glyph name="uni02A8" format="2">
  <advance width="1080"/>
  <unicode hex="02A8"/>
  <outline>
    <contour>
      <point x="242" y="1322" type="line" name="hr00"/>
      <point x="242" y="974" type="line"/>
      <point x="420" y="974" type="line"/>
      <point x="404" y="849" type="line"/>
      <point x="242" y="860" type="line"/>
      <point x="242" y="297" type="line"/>
      <point x="242" y="182"/>
      <point x="293" y="72"/>
      <point x="336" y="72" type="qcurve"/>
      <point x="372" y="72"/>
      <point x="428" y="123"/>
      <point x="452" y="162" type="qcurve"/>
      <point x="413" y="228"/>
      <point x="374" y="390"/>
      <point x="374" y="487" type="qcurve"/>
      <point x="374" y="598"/>
      <point x="431" y="788"/>
      <point x="531" y="926"/>
      <point x="668" y="1004"/>
      <point x="747" y="1004" type="qcurve" name="hr01"/>
      <point x="795" y="1004"/>
      <point x="878" y="976"/>
      <point x="946" y="932"/>
      <point x="999" y="877"/>
      <point x="1019" y="849" type="qcurve"/>
      <point x="942" y="747" type="line"/>
      <point x="932" y="768"/>
      <point x="897" y="822"/>
      <point x="848" y="869"/>
      <point x="785" y="902" name="hr02"/>
      <point x="747" y="902" type="qcurve"/>
      <point x="694" y="902"/>
      <point x="604" y="837"/>
      <point x="539" y="724"/>
      <point x="503" y="573"/>
      <point x="503" y="487" type="qcurve"/>
      <point x="503" y="371"/>
      <point x="536" y="271" type="qcurve"/>
      <point x="585" y="338"/>
      <point x="677" y="422"/>
      <point x="756" y="470"/>
      <point x="820" y="487"/>
      <point x="842" y="487" type="qcurve"/>
      <point x="885" y="487"/>
      <point x="951" y="451"/>
      <point x="995" y="392"/>
      <point x="1019" y="314"/>
      <point x="1019" y="272" type="qcurve"/>
      <point x="1019" y="211"/>
      <point x="980" y="101"/>
      <point x="908" y="19"/>
      <point x="803" y="-30"/>
      <point x="738" y="-30" type="qcurve"/>
      <point x="674" y="-30"/>
      <point x="552" y="31"/>
      <point x="503" y="88" type="qcurve"/>
      <point x="464" y="22"/>
      <point x="373" y="-30"/>
      <point x="323" y="-30" type="qcurve"/>
      <point x="277" y="-30"/>
      <point x="203" y="8"/>
      <point x="149" y="92"/>
      <point x="121" y="228"/>
      <point x="121" y="326" type="qcurve"/>
      <point x="121" y="868" type="line"/>
      <point x="24" y="876" type="line"/>
      <point x="37" y="974" type="line"/>
      <point x="121" y="974" type="line"/>
      <point x="121" y="1292" type="line"/>
      <point x="219" y="1322" type="line"/>
    </contour>
    <contour>
      <point x="575" y="185" type="qcurve"/>
      <point x="611" y="131"/>
      <point x="695" y="72"/>
      <point x="747" y="72" type="qcurve"/>
      <point x="794" y="72"/>
      <point x="867" y="103"/>
      <point x="917" y="157"/>
      <point x="942" y="228"/>
      <point x="942" y="268" type="qcurve"/>
      <point x="942" y="294"/>
      <point x="925" y="337"/>
      <point x="896" y="368"/>
      <point x="858" y="385"/>
      <point x="837" y="385" type="qcurve"/>
      <point x="815" y="385"/>
      <point x="765" y="371"/>
      <point x="703" y="329"/>
      <point x="625" y="250"/>
    </contour>
  </outline>
</glyph>
<glyph name="uni02A9" format="2">
  <advance width="1200"/>
  <unicode hex="02A9"/>
  <outline>
    <contour>
      <point x="75" y="1004" type="line"/>
      <point x="188" y="1004" type="line"/>
      <point x="188" y="1106"/>
      <point x="215" y="1258"/>
      <point x="262" y="1367"/>
      <point x="329" y="1437"/>
      <point x="409" y="1478"/>
      <point x="502" y="1494"/>
      <point x="552" y="1494" type="qcurve"/>
      <point x="539" y="1392" type="line"/>
      <point x="488" y="1392"/>
      <point x="404" y="1364"/>
      <point x="344" y="1290"/>
      <point x="310" y="1164"/>
      <point x="310" y="1066" type="qcurve"/>
      <point x="310" y="1004" type="line"/>
      <point x="598" y="1004" type="line"/>
      <point x="598" y="837" type="line"/>
      <point x="605" y="837" type="line"/>
      <point x="632" y="881"/>
      <point x="683" y="944"/>
      <point x="736" y="985"/>
      <point x="795" y="1004"/>
      <point x="829" y="1004" type="qcurve"/>
      <point x="881" y="1004"/>
      <point x="968" y="963"/>
      <point x="1031" y="887"/>
      <point x="1067" y="776"/>
      <point x="1067" y="707" type="qcurve"/>
      <point x="1067" y="-77" type="line"/>
      <point x="1067" y="-196"/>
      <point x="1031" y="-354"/>
      <point x="962" y="-450"/>
      <point x="863" y="-490"/>
      <point x="801" y="-490" type="qcurve"/>
      <point x="815" y="-388" type="line"/>
      <point x="842" y="-388"/>
      <point x="890" y="-365"/>
      <point x="926" y="-310"/>
      <point x="946" y="-220"/>
      <point x="946" y="-152" type="qcurve"/>
      <point x="946" y="687" type="line"/>
      <point x="946" y="790"/>
      <point x="875" y="902"/>
      <point x="812" y="902" type="qcurve"/>
      <point x="782" y="902"/>
      <point x="726" y="871"/>
      <point x="673" y="817"/>
      <point x="622" y="742"/>
      <point x="598" y="697" type="qcurve"/>
      <point x="598" y="0" type="line"/>
      <point x="476" y="0" type="line"/>
      <point x="476" y="873" type="line"/>
      <point x="310" y="886" type="line"/>
      <point x="310" y="0" type="line"/>
      <point x="188" y="0" type="line"/>
      <point x="188" y="893" type="line"/>
      <point x="62" y="902" type="line"/>
    </contour>
  </outline>
</glyph>
<glyph name="uni02AA" format="2">
  <advance width="936"/>
  <unicode hex="02AA"/>
  <outline>
    <contour>
      <point x="245" y="1494" type="line"/>
      <point x="245" y="219" type="line"/>
      <point x="245" y="149"/>
      <point x="275" y="72"/>
      <point x="311" y="72" type="qcurve"/>
      <point x="608" y="72" type="line"/>
      <point x="635" y="72"/>
      <point x="686" y="91"/>
      <point x="725" y="132"/>
      <point x="750" y="194"/>
      <point x="750" y="238" type="qcurve"/>
      <point x="750" y="272"/>
      <point x="732" y="325"/>
      <point x="692" y="372"/>
      <point x="627" y="414"/>
      <point x="581" y="437" type="qcurve"/>
      <point x="548" y="453"/>
      <point x="481" y="507"/>
      <point x="428" y="583"/>
      <point x="394" y="685"/>
      <point x="394" y="749" type="qcurve"/>
      <point x="394" y="807"/>
      <point x="428" y="902"/>
      <point x="486" y="968"/>
      <point x="563" y="1004"/>
      <point x="607" y="1004" type="qcurve"/>
      <point x="643" y="1004"/>
      <point x="712" y="980"/>
      <point x="774" y="938"/>
      <point x="827" y="882"/>
      <point x="848" y="849" type="qcurve"/>
      <point x="773" y="747" type="line"/>
      <point x="761" y="778"/>
      <point x="727" y="834"/>
      <point x="685" y="877"/>
      <point x="635" y="902"/>
      <point x="608" y="902" type="qcurve"/>
      <point x="587" y="902"/>
      <point x="551" y="884"/>
      <point x="524" y="850"/>
      <point x="508" y="800"/>
      <point x="508" y="768" type="qcurve"/>
      <point x="508" y="733"/>
      <point x="531" y="673"/>
      <point x="569" y="624"/>
      <point x="618" y="587"/>
      <point x="644" y="575" type="qcurve"/>
      <point x="700" y="548"/>
      <point x="783" y="484"/>
      <point x="838" y="404"/>
      <point x="864" y="306"/>
      <point x="864" y="246" type="qcurve"/>
      <point x="864" y="182"/>
      <point x="821" y="80"/>
      <point x="750" y="8"/>
      <point x="658" y="-30"/>
      <point x="608" y="-30" type="qcurve"/>
      <point x="270" y="-30" type="line"/>
      <point x="203" y="-30"/>
      <point x="124" y="92"/>
      <point x="124" y="226" type="qcurve"/>
      <point x="124" y="1464" type="line"/>
      <point x="222" y="1494" type="line"/>
    </contour>
  </outline>
</glyph>
<glyph name="uni02BD" format="2">
  <advance width="568"/>
  <unicode hex="02BD"/>
  <outline>
    <contour>
      <point x="388" y="1441" type="line" name="sh01"/>
      <point x="382" y="1436"/>
      <point x="359" y="1417"/>
      <point x="338" y="1386"/>
      <point x="322" y="1344"/>
      <point x="322" y="1317" type="qcurve" name="dh02"/>
      <point x="322" y="1293"/>
      <point x="335" y="1250"/>
      <point x="355" y="1214"/>
      <point x="378" y="1185"/>
      <point x="388" y="1175" type="qcurve" name="sh02"/>
      <point x="329" y="1116" type="line" name="av01"/>
      <point x="302" y="1138"/>
      <point x="249" y="1195"/>
      <point x="206" y="1264"/>
      <point x="180" y="1345"/>
      <point x="180" y="1390" type="qcurve" name="dh01"/>
      <point x="180" y="1434"/>
      <point x="199" y="1499"/>
      <point x="225" y="1544"/>
      <point x="249" y="1570"/>
      <point x="254" y="1574" type="qcurve" name="av02"/>
      <point x="275" y="1574" type="line"/>
      <point x="388" y="1461" type="line"/>
    </contour>
  </outline>
</glyph>
<glyph name="uni02C8" format="2">
  <advance width="568"/>
  <unicode hex="02C8"/>
  <outline>
    <contour>
      <point x="233" y="912" type="line" name="dh01"/>
      <point x="233" y="1516" type="line" name="av01"/>
      <point x="335" y="1516" type="line"/>
      <point x="335" y="912" type="line" name="dh02"/>
    </contour>
  </outline>
</glyph>
<glyph name="uni02D1" format="2">
  <advance width="568"/>
  <unicode hex="02D1"/>
  <outline>
    <contour>
      <point x="434" y="270" type="line"/>
      <point x="284" y="-30" type="line"/>
      <point x="134" y="270" type="line"/>
    </contour>
  </outline>
</glyph>
<glyph name="dotaccent" format="2">
  <advance width="568"/>
  <unicode hex="02D9"/>
  <outline>
    <contour>
      <point x="188" y="1272" type="qcurve"/>
      <point x="188" y="1312"/>
      <point x="244" y="1368"/>
      <point x="284" y="1368" type="qcurve"/>
      <point x="324" y="1368"/>
      <point x="380" y="1312"/>
      <point x="380" y="1272" type="qcurve"/>
      <point x="380" y="1232"/>
      <point x="324" y="1176"/>
      <point x="284" y="1176" type="qcurve"/>
      <point x="244" y="1176"/>
      <point x="188" y="1232"/>
    </contour>
  </outline>
</glyph>
<glyph name="tilde" format="2">
  <advance width="568"/>
  <unicode hex="02DC"/>
  <outline>
    <contour>
      <point x="142" y="1434" type="qcurve" name="sv03"/>
      <point x="189" y="1434"/>
      <point x="264" y="1390"/>
      <point x="330" y="1336"/>
      <point x="392" y="1292"/>
      <point x="426" y="1292" type="qcurve" name="sv01"/>
      <point x="469" y="1292"/>
      <point x="513" y="1371"/>
      <point x="513" y="1434" type="qcurve" name="sh01"/>
      <point x="615" y="1434" type="line" name="sh02"/>
      <point x="615" y="1375"/>
      <point x="588" y="1281"/>
      <point x="538" y="1215"/>
      <point x="468" y="1180"/>
      <point x="426" y="1180" type="qcurve" name="av01"/>
      <point x="379" y="1180"/>
      <point x="305" y="1224"/>
      <point x="240" y="1278"/>
      <point x="178" y="1322"/>
      <point x="142" y="1322" type="qcurve" name="sv02"/>
      <point x="99" y="1322"/>
      <point x="55" y="1243"/>
      <point x="55" y="1180" type="qcurve" name="sh03"/>
      <point x="-47" y="1180" type="line" name="sh04"/>
      <point x="-47" y="1238"/>
      <point x="-20" y="1332"/>
      <point x="30" y="1398"/>
      <point x="100" y="1434"/>
    </contour>
  </outline>
</glyph>
<glyph name="hungarumlaut" format="2">
  <advance width="568"/>
  <unicode hex="02DD"/>
  <outline>
    <contour>
      <point x="1" y="1194" type="line"/>
      <point x="172" y="1531" type="line"/>
      <point x="194" y="1537" type="line"/>
      <point x="278" y="1485" type="line"/>
      <point x="284" y="1464" type="line"/>
      <point x="58" y="1159" type="line"/>
    </contour>
    <contour>
      <point x="284" y="1194" type="line"/>
      <point x="455" y="1531" type="line"/>
      <point x="477" y="1537" type="line"/>
      <point x="561" y="1485" type="line"/>
      <point x="567" y="1464" type="line"/>
      <point x="341" y="1159" type="line"/>
    </contour>
  </outline>
</glyph>
<glyph name="toneextrahigh" format="2">
  <advance width="768"/>
  <unicode hex="02E5"/>
  <outline>
    <contour>
      <point x="543" y="0" type="line"/>
      <point x="543" y="1332" type="line"/>
      <point x="55" y="1332" type="line"/>
      <point x="55" y="1434" type="line"/>
      <point x="665" y="1434" type="line"/>
      <point x="665" y="0" type="line"/>
    </contour>
  </outline>
</glyph>
<glyph name="tonelow" format="2">
  <advance width="768"/>
  <unicode hex="02E8"/>
  <outline>
    <contour>
      <point x="55" y="430" type="line"/>
      <point x="543" y="430" type="line"/>
      <point x="543" y="1434" type="line"/>
      <point x="665" y="1434" type="line"/>
      <point x="665" y="0" type="line"/>
      <point x="543" y="0" type="line"/>
      <point x="543" y="328" type="line"/>
      <point x="55" y="328" type="line"/>
    </contour>
  </outline>
</glyph>
<glyph name="uni02ED" format="2">
  <advance width="568"/>
  <unicode hex="02ED"/>
  <outline>
    <contour>
      <point x="548" y="1386" type="line" name="sv02"/>
      <point x="548" y="1284" type="line" name="sv01"/>
      <point x="20" y="1284" type="line"/>
      <point x="20" y="1386" type="line"/>
    </contour>
    <contour>
      <point x="548" y="1182" type="line" name="dv02"/>
      <point x="548" y="1080" type="line" name="dv01"/>
      <point x="20" y="1080" type="line"/>
      <point x="20" y="1182" type="line"/>
    </contour>
  </outline>
</glyph>
<glyph name="circumflexcomb" format="2">
  <unicode hex="0302"/>
  <anchor x="-400" y="1500" name="_AccentDefault"/>
  <outline>
    <contour>
      <point x="-473" y="1904" type="line" name="sv01"/>
      <point x="-351" y="1904" type="line"/>
      <point x="-119" y="1566" type="line" name="sh01"/>
      <point x="-210" y="1536" type="line" name="dh02"/>
      <point x="-407" y="1781" type="line" name="av01"/>
      <point x="-417" y="1781" type="line"/>
      <point x="-614" y="1536" type="line" name="dh01"/>
      <point x="-705" y="1566" type="line" name="sh02"/>
    </contour>
  </outline>
</glyph>
<glyph name="tildecomb" format="2">
  <unicode hex="0303"/>
  <anchor x="-400" y="1500" name="_AccentDefault"/>
  <outline>
    <contour>
      <point x="-554" y="1845" type="qcurve"/>
      <point x="-507" y="1845"/>
      <point x="-432" y="1801"/>
      <point x="-366" y="1747"/>
      <point x="-304" y="1703"/>
      <point x="-270" y="1703" type="qcurve"/>
      <point x="-227" y="1703"/>
      <point x="-183" y="1782"/>
      <point x="-183" y="1845" type="qcurve"/>
      <point x="-81" y="1845" type="line"/>
      <point x="-81" y="1786"/>
      <point x="-108" y="1692"/>
      <point x="-158" y="1626"/>
      <point x="-228" y="1591"/>
      <point x="-270" y="1591" type="qcurve"/>
      <point x="-317" y="1591"/>
      <point x="-391" y="1635"/>
      <point x="-456" y="1689"/>
      <point x="-518" y="1733"/>
      <point x="-554" y="1733" type="qcurve"/>
      <point x="-597" y="1733"/>
      <point x="-641" y="1654"/>
      <point x="-641" y="1591" type="qcurve"/>
      <point x="-743" y="1591" type="line"/>
      <point x="-743" y="1649"/>
      <point x="-716" y="1743"/>
      <point x="-666" y="1809"/>
      <point x="-596" y="1845"/>
    </contour>
  </outline>
</glyph>
<glyph name="overscorecomb" format="2">
  <unicode hex="0305"/>
  <outline>
    <contour>
      <point x="-746" y="1718" type="line"/>
      <point x="-12" y="1718" type="line"/>
      <point x="-38" y="1566" type="line"/>
      <point x="-772" y="1566" type="line"/>
    </contour>
  </outline>
</glyph>
<glyph name="dieresiscomb" format="2">
  <unicode hex="0308"/>
  <anchor x="-400" y="1500" name="_AccentDefault"/>
  <outline>
    <contour>
      <point x="-719" y="1718" type="qcurve"/>
      <point x="-719" y="1737"/>
      <point x="-703" y="1773"/>
      <point x="-676" y="1800"/>
      <point x="-640" y="1816"/>
      <point x="-619" y="1816" type="qcurve"/>
      <point x="-599" y="1816"/>
      <point x="-562" y="1800"/>
      <point x="-534" y="1773"/>
      <point x="-517" y="1737"/>
      <point x="-517" y="1718" type="qcurve"/>
      <point x="-517" y="1697"/>
      <point x="-534" y="1659"/>
      <point x="-562" y="1630"/>
      <point x="-599" y="1614"/>
      <point x="-619" y="1614" type="qcurve"/>
      <point x="-640" y="1614"/>
      <point x="-676" y="1630"/>
      <point x="-703" y="1659"/>
      <point x="-719" y="1697"/>
    </contour>
    <contour>
      <point x="-306" y="1718" type="qcurve"/>
      <point x="-306" y="1737"/>
      <point x="-290" y="1773"/>
      <point x="-263" y="1800"/>
      <point x="-227" y="1816"/>
      <point x="-206" y="1816" type="qcurve"/>
      <point x="-186" y="1816"/>
      <point x="-149" y="1800"/>
      <point x="-121" y="1773"/>
      <point x="-104" y="1737"/>
      <point x="-104" y="1718" type="qcurve"/>
      <point x="-104" y="1697"/>
      <point x="-121" y="1659"/>
      <point x="-149" y="1630"/>
      <point x="-186" y="1614"/>
      <point x="-206" y="1614" type="qcurve"/>
      <point x="-227" y="1614"/>
      <point x="-263" y="1630"/>
      <point x="-290" y="1659"/>
      <point x="-306" y="1697"/>
    </contour>
  </outline>
</glyph>
<glyph name="haceknosp" format="2">
  <unicode hex="030C"/>
  <anchor x="-400" y="1500" name="_AccentDefault"/>
  <outline>
    <contour>
      <point x="-675" y="1847" type="line"/>
      <point x="-604" y="1877" type="line"/>
      <point x="-417" y="1662" type="line"/>
      <point x="-407" y="1662" type="line"/>
      <point x="-220" y="1877" type="line"/>
      <point x="-149" y="1847" type="line"/>
      <point x="-351" y="1559" type="line"/>
      <point x="-473" y="1559" type="line"/>
    </contour>
  </outline>
</glyph>
<glyph name="gravedblnosp" format="2">
  <unicode hex="030F"/>
  <anchor x="-400" y="1500" name="_AccentDefault"/>
  <outline>
    <contour>
      <point x="-186" y="1516" type="line"/>
      <point x="-412" y="1821" type="line"/>
      <point x="-406" y="1842" type="line"/>
      <point x="-322" y="1894" type="line"/>
      <point x="-300" y="1888" type="line"/>
      <point x="-129" y="1551" type="line"/>
    </contour>
    <contour>
      <point x="-469" y="1516" type="line"/>
      <point x="-695" y="1821" type="line"/>
      <point x="-689" y="1842" type="line"/>
      <point x="-605" y="1894" type="line"/>
      <point x="-583" y="1888" type="line"/>
      <point x="-412" y="1551" type="line"/>
    </contour>
  </outline>
</glyph>
<glyph name="candrabindunosp" format="2">
  <unicode hex="0310"/>
  <anchor x="-400" y="1500" name="_AccentDefault"/>
  <outline>
    <contour>
      <point x="-525" y="1914" type="qcurve" name="dh01"/>
      <point x="-525" y="1936"/>
      <point x="-506" y="1976"/>
      <point x="-475" y="2006"/>
      <point x="-434" y="2024" name="hr00"/>
      <point x="-412" y="2024" type="qcurve" name="sv03"/>
      <point x="-388" y="2024"/>
      <point x="-347" y="2006"/>
      <point x="-317" y="1976"/>
      <point x="-299" y="1936"/>
      <point x="-299" y="1914" type="qcurve" name="dh02"/>
      <point x="-299" y="1890"/>
      <point x="-317" y="1848"/>
      <point x="-347" y="1817"/>
      <point x="-388" y="1799"/>
      <point x="-412" y="1799" type="qcurve" name="sv02"/>
      <point x="-434" y="1799"/>
      <point x="-475" y="1817"/>
      <point x="-506" y="1848"/>
      <point x="-525" y="1890"/>
    </contour>
    <contour>
      <point x="-617" y="1799" type="line" name="sh01"/>
      <point x="-617" y="1766"/>
      <point x="-584" y="1707"/>
      <point x="-529" y="1663"/>
      <point x="-454" y="1638"/>
      <point x="-412" y="1638" type="qcurve" name="sv01"/>
      <point x="-370" y="1638"/>
      <point x="-295" y="1663"/>
      <point x="-240" y="1707"/>
      <point x="-207" y="1766"/>
      <point x="-207" y="1799" type="qcurve" name="sh02"/>
      <point x="-128" y="1799" type="line" name="sh03"/>
      <point x="-128" y="1740"/>
      <point x="-172" y="1637"/>
      <point x="-249" y="1560"/>
      <point x="-352" y="1516"/>
      <point x="-411" y="1516" type="qcurve" name="av01"/>
      <point x="-471" y="1516"/>
      <point x="-575" y="1560"/>
      <point x="-652" y="1637"/>
      <point x="-696" y="1740"/>
      <point x="-696" y="1799" type="qcurve" name="sh04"/>
    </contour>
  </outline>
</glyph>
<glyph name="commaturnsupnosp" format="2">
  <unicode hex="0312"/>
  <anchor x="-400" y="1500" name="_AccentDefault"/>
  <outline>
    <contour>
      <point x="-299" y="1629" type="line" name="hr00"/>
      <point x="-412" y="1516" type="line" name="av01"/>
      <point x="-433" y="1516" type="line"/>
      <point x="-438" y="1520"/>
      <point x="-462" y="1546"/>
      <point x="-488" y="1591"/>
      <point x="-507" y="1656"/>
      <point x="-507" y="1700" type="qcurve" name="dh01"/>
      <point x="-507" y="1745"/>
      <point x="-481" y="1826"/>
      <point x="-438" y="1895"/>
      <point x="-385" y="1952"/>
      <point x="-358" y="1974" type="qcurve" name="av02"/>
      <point x="-299" y="1915" type="line" name="sh02"/>
      <point x="-309" y="1904"/>
      <point x="-332" y="1876"/>
      <point x="-352" y="1840"/>
      <point x="-365" y="1797"/>
      <point x="-365" y="1773" type="qcurve" name="dh02"/>
      <point x="-365" y="1746"/>
      <point x="-349" y="1704"/>
      <point x="-328" y="1673"/>
      <point x="-305" y="1653"/>
      <point x="-299" y="1649" type="qcurve" name="sh01"/>
    </contour>
  </outline>
</glyph>
<glyph name="apostrophesupnosp" format="2">
  <unicode hex="0313"/>
  <outline>
    <contour>
      <point x="-525" y="1861" type="line"/>
      <point x="-412" y="1974" type="line"/>
      <point x="-391" y="1974" type="line"/>
      <point x="-386" y="1970"/>
      <point x="-362" y="1944"/>
      <point x="-336" y="1899"/>
      <point x="-317" y="1834"/>
      <point x="-317" y="1790" type="qcurve"/>
      <point x="-317" y="1745"/>
      <point x="-343" y="1664"/>
      <point x="-386" y="1595"/>
      <point x="-439" y="1538"/>
      <point x="-466" y="1516" type="qcurve"/>
      <point x="-525" y="1575" type="line"/>
      <point x="-515" y="1586"/>
      <point x="-492" y="1614"/>
      <point x="-472" y="1650"/>
      <point x="-459" y="1693"/>
      <point x="-459" y="1717" type="qcurve"/>
      <point x="-459" y="1744"/>
      <point x="-475" y="1786"/>
      <point x="-496" y="1817"/>
      <point x="-519" y="1837"/>
      <point x="-525" y="1841" type="qcurve"/>
    </contour>
  </outline>
</glyph>
<glyph name="commasuprevnosp" format="2">
  <unicode hex="0314"/>
  <anchor x="-400" y="1500" name="_AccentDefault"/>
  <outline>
    <contour>
      <point x="-299" y="1841" type="line"/>
      <point x="-305" y="1837"/>
      <point x="-328" y="1817"/>
      <point x="-349" y="1786"/>
      <point x="-365" y="1744"/>
      <point x="-365" y="1717" type="qcurve"/>
      <point x="-365" y="1693"/>
      <point x="-352" y="1650"/>
      <point x="-332" y="1614"/>
      <point x="-309" y="1586"/>
      <point x="-299" y="1575" type="qcurve"/>
      <point x="-358" y="1516" type="line"/>
      <point x="-385" y="1538"/>
      <point x="-438" y="1595"/>
      <point x="-481" y="1664"/>
      <point x="-507" y="1745"/>
      <point x="-507" y="1790" type="qcurve"/>
      <point x="-507" y="1834"/>
      <point x="-488" y="1899"/>
      <point x="-462" y="1944"/>
      <point x="-438" y="1970"/>
      <point x="-433" y="1974" type="qcurve"/>
      <point x="-412" y="1974" type="line"/>
      <point x="-299" y="1861" type="line"/>
    </contour>
  </outline>
</glyph>
<glyph name="gravesubnosp" format="2">
  <unicode hex="0316"/>
  <anchor x="-512" y="0" name="_AccentBelow"/>
  <outline>
    <contour>
      <point x="-258" y="-490" type="line"/>
      <point x="-624" y="-202" type="line"/>
      <point x="-624" y="-172" type="line"/>
      <point x="-542" y="-85" type="line"/>
      <point x="-512" y="-85" type="line"/>
      <point x="-201" y="-430" type="line"/>
    </contour>
  </outline>
</glyph>
<glyph name="hornnosp" format="2">
  <unicode hex="031B"/>
  <outline>
    <contour>
      <point x="-20" y="1060" type="line"/>
      <point x="119" y="1060" type="line"/>
      <point x="131" y="1043" type="line"/>
      <point x="131" y="993"/>
      <point x="98" y="888"/>
      <point x="20" y="802"/>
      <point x="-108" y="747"/>
      <point x="-203" y="747" type="qcurve"/>
      <point x="-203" y="849" type="line"/>
      <point x="-160" y="849"/>
      <point x="-95" y="870"/>
      <point x="-52" y="916"/>
      <point x="-31" y="990"/>
      <point x="-31" y="1043" type="qcurve"/>
    </contour>
  </outline>
</glyph>
<glyph name="ringlefthalfsubnosp" format="2">
  <unicode hex="031C"/>
  <outline>
    <contour>
      <point x="-299" y="-161" type="line"/>
      <point x="-321" y="-161" type="line"/>
      <point x="-346" y="-161"/>
      <point x="-391" y="-180"/>
      <point x="-424" y="-213"/>
      <point x="-444" y="-258"/>
      <point x="-444" y="-284" type="qcurve"/>
      <point x="-444" y="-310"/>
      <point x="-424" y="-356"/>
      <point x="-391" y="-389"/>
      <point x="-346" y="-408"/>
      <point x="-321" y="-408" type="qcurve"/>
      <point x="-299" y="-408" type="line"/>
      <point x="-299" y="-490" type="line"/>
      <point x="-320" y="-490" type="line"/>
      <point x="-362" y="-490"/>
      <point x="-437" y="-457"/>
      <point x="-493" y="-402"/>
      <point x="-525" y="-327"/>
      <point x="-525" y="-285" type="qcurve"/>
      <point x="-525" y="-243"/>
      <point x="-493" y="-168"/>
      <point x="-437" y="-112"/>
      <point x="-362" y="-79"/>
      <point x="-320" y="-79" type="qcurve"/>
      <point x="-299" y="-79" type="line"/>
    </contour>
  </outline>
</glyph>
<glyph name="plussubnosp" format="2">
  <unicode hex="031F"/>
  <outline>
    <contour>
      <point x="-361" y="-60" type="line"/>
      <point x="-361" y="-224" type="line"/>
      <point x="-197" y="-224" type="line"/>
      <point x="-197" y="-326" type="line"/>
      <point x="-361" y="-326" type="line"/>
      <point x="-361" y="-490" type="line"/>
      <point x="-463" y="-490" type="line"/>
      <point x="-463" y="-326" type="line"/>
      <point x="-627" y="-326" type="line"/>
      <point x="-627" y="-224" type="line"/>
      <point x="-463" y="-224" type="line"/>
      <point x="-463" y="-60" type="line"/>
    </contour>
  </outline>
</glyph>
<glyph name="minussubnosp" format="2">
  <unicode hex="0320"/>
  <outline>
    <contour>
      <point x="-655" y="-169" type="line"/>
      <point x="-655" y="-192"/>
      <point x="-633" y="-219"/>
      <point x="-604" y="-219" type="qcurve"/>
      <point x="-221" y="-219" type="line"/>
      <point x="-192" y="-219"/>
      <point x="-170" y="-192"/>
      <point x="-170" y="-169" type="qcurve"/>
      <point x="-129" y="-169" type="line"/>
      <point x="-129" y="-391" type="line"/>
      <point x="-170" y="-391" type="line"/>
      <point x="-170" y="-368"/>
      <point x="-192" y="-341"/>
      <point x="-221" y="-341" type="qcurve"/>
      <point x="-604" y="-341" type="line"/>
      <point x="-633" y="-341"/>
      <point x="-655" y="-368"/>
      <point x="-655" y="-391" type="qcurve"/>
      <point x="-696" y="-391" type="line"/>
      <point x="-696" y="-169" type="line"/>
    </contour>
  </outline>
</glyph>
<glyph name="commasubnosp" format="2">
  <unicode hex="0326"/>
  <anchor x="-512" y="0" name="_AccentBelow"/>
  <outline>
    <contour>
      <point x="-495" y="-187" type="line"/>
      <point x="-413" y="-105" type="line"/>
      <point x="-392" y="-105" type="line"/>
      <point x="-387" y="-109"/>
      <point x="-363" y="-134"/>
      <point x="-337" y="-175"/>
      <point x="-318" y="-233"/>
      <point x="-318" y="-269" type="qcurve"/>
      <point x="-318" y="-303"/>
      <point x="-340" y="-375"/>
      <point x="-382" y="-436"/>
      <point x="-441" y="-482"/>
      <point x="-477" y="-490" type="qcurve"/>
      <point x="-495" y="-388" type="line"/>
      <point x="-475" y="-380"/>
      <point x="-440" y="-336"/>
      <point x="-440" y="-302" type="qcurve"/>
      <point x="-440" y="-270"/>
      <point x="-469" y="-221"/>
      <point x="-495" y="-207" type="qcurve"/>
    </contour>
  </outline>
</glyph>
<glyph name="cedillanosp" format="2">
  <unicode hex="0327"/>
  <outline>
    <contour>
      <point x="-300" y="29" type="line"/>
      <point x="-350" y="-110" type="line"/>
      <point x="-321" y="-110"/>
      <point x="-265" y="-135"/>
      <point x="-220" y="-182"/>
      <point x="-193" y="-250"/>
      <point x="-193" y="-293" type="qcurve"/>
      <point x="-193" y="-344"/>
      <point x="-231" y="-418"/>
      <point x="-293" y="-466"/>
      <point x="-369" y="-490"/>
      <point x="-406" y="-490" type="qcurve"/>
      <point x="-441" y="-490"/>
      <point x="-500" y="-476"/>
      <point x="-546" y="-456"/>
      <point x="-578" y="-433"/>
      <point x="-587" y="-423" type="qcurve"/>
      <point x="-533" y="-347" type="line"/>
      <point x="-530" y="-352"/>
      <point x="-512" y="-372"/>
      <point x="-484" y="-393"/>
      <point x="-447" y="-408"/>
      <point x="-425" y="-408" type="qcurve"/>
      <point x="-402" y="-408"/>
      <point x="-362" y="-391"/>
      <point x="-332" y="-361"/>
      <point x="-315" y="-321"/>
      <point x="-315" y="-298" type="qcurve"/>
      <point x="-315" y="-276"/>
      <point x="-332" y="-236"/>
      <point x="-362" y="-207"/>
      <point x="-402" y="-190"/>
      <point x="-425" y="-190" type="qcurve"/>
      <point x="-446" y="-190"/>
      <point x="-472" y="-194"/>
      <point x="-490" y="-199"/>
      <point x="-502" y="-204"/>
      <point x="-508" y="-206" type="qcurve"/>
      <point x="-422" y="29" type="line"/>
    </contour>
  </outline>
</glyph>
<glyph name="ogoneknosp" format="2">
  <unicode hex="0328"/>
  <outline>
    <contour>
      <point x="-20" y="-348" type="line"/>
      <point x="-39" y="-367"/>
      <point x="-112" y="-406"/>
      <point x="-163" y="-406" type="qcurve"/>
      <point x="-208" y="-406"/>
      <point x="-284" y="-381"/>
      <point x="-338" y="-333"/>
      <point x="-369" y="-263"/>
      <point x="-369" y="-218" type="qcurve"/>
      <point x="-369" y="-184"/>
      <point x="-346" y="-117"/>
      <point x="-293" y="-55"/>
      <point x="-207" y="-1"/>
      <point x="-144" y="20" type="qcurve"/>
      <point x="-75" y="0" type="line"/>
      <point x="-157" y="-35"/>
      <point x="-257" y="-135"/>
      <point x="-257" y="-198" type="qcurve"/>
      <point x="-257" y="-246"/>
      <point x="-206" y="-304"/>
      <point x="-158" y="-304" type="qcurve"/>
      <point x="-129" y="-304"/>
      <point x="-88" y="-282"/>
      <point x="-75" y="-269" type="qcurve"/>
    </contour>
  </outline>
</glyph>
<glyph name="bridgesubnosp" format="2">
  <unicode hex="032A"/>
  <anchor x="-512" y="0" name="_AccentBelow"/>
  <outline>
    <contour>
      <point x="-126" y="-136" type="line"/>
      <point x="-126" y="-425" type="line"/>
      <point x="-208" y="-425" type="line"/>
      <point x="-208" y="-238" type="line"/>
      <point x="-617" y="-238" type="line"/>
      <point x="-617" y="-425" type="line"/>
      <point x="-699" y="-425" type="line"/>
      <point x="-699" y="-136" type="line"/>
    </contour>
  </outline>
</glyph>
<glyph name="circumflexsubnosp" format="2">
  <unicode hex="032D"/>
  <anchor x="-512" y="0" name="_AccentBelow"/>
  <outline>
    <contour>
      <point x="-149" y="-430" type="line"/>
      <point x="-220" y="-460" type="line"/>
      <point x="-407" y="-245" type="line"/>
      <point x="-417" y="-245" type="line"/>
      <point x="-604" y="-460" type="line"/>
      <point x="-675" y="-430" type="line"/>
      <point x="-473" y="-142" type="line"/>
      <point x="-351" y="-142" type="line"/>
    </contour>
  </outline>
</glyph>
<glyph name="breveinvsubnosp" format="2">
  <unicode hex="032F"/>
  <anchor x="-512" y="0" name="_AccentBelow"/>
  <outline>
    <contour>
      <point x="-697" y="-460" type="line"/>
      <point x="-697" y="-401"/>
      <point x="-653" y="-298"/>
      <point x="-576" y="-221"/>
      <point x="-472" y="-177"/>
      <point x="-412" y="-177" type="qcurve"/>
      <point x="-353" y="-177"/>
      <point x="-250" y="-221"/>
      <point x="-173" y="-298"/>
      <point x="-129" y="-401"/>
      <point x="-129" y="-460" type="qcurve"/>
      <point x="-208" y="-460" type="line"/>
      <point x="-208" y="-427"/>
      <point x="-241" y="-368"/>
      <point x="-296" y="-324"/>
      <point x="-371" y="-299"/>
      <point x="-413" y="-299" type="qcurve"/>
      <point x="-455" y="-299"/>
      <point x="-530" y="-324"/>
      <point x="-585" y="-368"/>
      <point x="-618" y="-427"/>
      <point x="-618" y="-460" type="qcurve"/>
    </contour>
  </outline>
</glyph>
<glyph name="macronsubnosp" format="2">
  <unicode hex="0331"/>
  <anchor x="-512" y="0" name="_AccentBelow"/>
  <outline>
    <contour>
      <point x="-609" y="-211" type="line"/>
      <point x="-135" y="-211" type="line"/>
      <point x="-156" y="-333" type="line"/>
      <point x="-630" y="-333" type="line"/>
    </contour>
  </outline>
</glyph>
<glyph name="underscorenosp" format="2">
  <unicode hex="0332"/>
  <outline>
    <contour>
      <point x="-908" y="-211" type="line"/>
      <point x="104" y="-211" type="line"/>
      <point x="82" y="-333" type="line"/>
      <point x="-929" y="-333" type="line"/>
    </contour>
  </outline>
</glyph>
<glyph name="underscoredblnosp" format="2">
  <unicode hex="0333"/>
  <outline>
    <contour>
      <point x="-910" y="-368" type="line"/>
      <point x="94" y="-368" type="line"/>
      <point x="72" y="-490" type="line"/>
      <point x="-931" y="-490" type="line"/>
    </contour>
    <contour>
      <point x="-910" y="-150" type="line"/>
      <point x="94" y="-150" type="line"/>
      <point x="72" y="-272" type="line"/>
      <point x="-931" y="-272" type="line"/>
    </contour>
  </outline>
</glyph>
<glyph name="tildemidnosp" format="2">
  <unicode hex="0334"/>
  <anchor x="-512" y="500" name="_AccentMiddle"/>
  <outline>
    <contour>
      <point x="-988" y="407" type="line"/>
      <point x="-988" y="435"/>
      <point x="-952" y="515"/>
      <point x="-882" y="589"/>
      <point x="-780" y="641"/>
      <point x="-713" y="641" type="qcurve"/>
      <point x="-658" y="641"/>
      <point x="-579" y="614"/>
      <point x="-517" y="573"/>
      <point x="-467" y="525"/>
      <point x="-414" y="484"/>
      <point x="-353" y="457"/>
      <point x="-312" y="457" type="qcurve"/>
      <point x="-270" y="457"/>
      <point x="-206" y="489"/>
      <point x="-161" y="541"/>
      <point x="-138" y="607"/>
      <point x="-138" y="641" type="qcurve"/>
      <point x="-108" y="641" type="line"/>
      <point x="-36" y="569" type="line"/>
      <point x="-36" y="541"/>
      <point x="-72" y="461"/>
      <point x="-142" y="387"/>
      <point x="-246" y="335"/>
      <point x="-313" y="335" type="qcurve"/>
      <point x="-372" y="335"/>
      <point x="-452" y="362"/>
      <point x="-512" y="403"/>
      <point x="-559" y="451"/>
      <point x="-609" y="492"/>
      <point x="-670" y="519"/>
      <point x="-714" y="519" type="qcurve"/>
      <point x="-755" y="519"/>
      <point x="-819" y="487"/>
      <point x="-863" y="435"/>
      <point x="-886" y="369"/>
      <point x="-886" y="335" type="qcurve"/>
      <point x="-916" y="335" type="line"/>
    </contour>
  </outline>
</glyph>
<glyph name="barmidlongnosp" format="2">
  <unicode hex="0336"/>
  <anchor x="-512" y="600" name="_AccentMiddle"/>
  <outline>
    <contour>
      <point x="-924" y="548" type="line"/>
      <point x="100" y="548" type="line"/>
      <point x="100" y="426" type="line"/>
      <point x="-924" y="426" type="line"/>
    </contour>
  </outline>
</glyph>
<glyph name="slashshortnosp" format="2">
  <unicode hex="0337"/>
  <anchor x="-400" y="1100" name="_AccentDefault"/>
  <outline>
    <contour>
      <point x="-967" y="0" type="line"/>
      <point x="35" y="1004" type="line"/>
      <point x="143" y="974" type="line"/>
      <point x="-862" y="-30" type="line"/>
    </contour>
  </outline>
</glyph>
<glyph name="seagullsubnosp" format="2">
  <unicode hex="033C"/>
  <anchor x="-512" y="0" name="_AccentBelow"/>
  <outline>
    <contour>
      <point x="-751" y="-423" type="line"/>
      <point x="-751" y="-387" type="line"/>
      <point x="-751" y="-348"/>
      <point x="-721" y="-279"/>
      <point x="-670" y="-227"/>
      <point x="-600" y="-197"/>
      <point x="-561" y="-197" type="qcurve"/>
      <point x="-516" y="-197"/>
      <point x="-438" y="-237"/>
      <point x="-412" y="-270" type="qcurve"/>
      <point x="-386" y="-237"/>
      <point x="-309" y="-197"/>
      <point x="-263" y="-197" type="qcurve"/>
      <point x="-224" y="-197"/>
      <point x="-154" y="-227"/>
      <point x="-103" y="-279"/>
      <point x="-73" y="-348"/>
      <point x="-73" y="-387" type="qcurve"/>
      <point x="-73" y="-423" type="line"/>
      <point x="-155" y="-423" type="line"/>
      <point x="-155" y="-387" type="line"/>
      <point x="-155" y="-364"/>
      <point x="-172" y="-325"/>
      <point x="-201" y="-296"/>
      <point x="-240" y="-279"/>
      <point x="-263" y="-279" type="qcurve"/>
      <point x="-285" y="-279"/>
      <point x="-325" y="-296"/>
      <point x="-354" y="-325"/>
      <point x="-371" y="-364"/>
      <point x="-371" y="-387" type="qcurve"/>
      <point x="-371" y="-423" type="line"/>
      <point x="-453" y="-423" type="line"/>
      <point x="-453" y="-387" type="line"/>
      <point x="-453" y="-364"/>
      <point x="-470" y="-325"/>
      <point x="-500" y="-296"/>
      <point x="-539" y="-279"/>
      <point x="-561" y="-279" type="qcurve"/>
      <point x="-583" y="-279"/>
      <point x="-623" y="-296"/>
      <point x="-652" y="-325"/>
      <point x="-669" y="-364"/>
      <point x="-669" y="-387" type="qcurve"/>
      <point x="-669" y="-423" type="line"/>
    </contour>
  </outline>
</glyph>
<glyph name="xsupnosp" format="2">
  <unicode hex="033D"/>
  <outline>
    <contour>
      <point x="-231" y="1843" type="line"/>
      <point x="-354" y="1720" type="line"/>
      <point x="-231" y="1597" type="line"/>
      <point x="-289" y="1539" type="line"/>
      <point x="-412" y="1662" type="line"/>
      <point x="-535" y="1539" type="line"/>
      <point x="-593" y="1597" type="line"/>
      <point x="-470" y="1720" type="line"/>
      <point x="-593" y="1843" type="line"/>
      <point x="-535" y="1901" type="line"/>
      <point x="-412" y="1778" type="line"/>
      <point x="-289" y="1901" type="line"/>
    </contour>
  </outline>
</glyph>
<glyph name="graveleftnosp" format="2">
  <unicode hex="0340"/>
  <anchor x="-400" y="1500" name="_AccentDefault"/>
  <outline>
    <contour>
      <point x="-258" y="1589" type="line" name="av02"/>
      <point x="-624" y="1877" type="line" name="ah02"/>
      <point x="-624" y="1907" type="line"/>
      <point x="-542" y="1994" type="line" name="av01"/>
      <point x="-512" y="1994" type="line"/>
      <point x="-201" y="1649" type="line" name="ah01"/>
    </contour>
  </outline>
</glyph>
<glyph name="acuterightnosp" format="2">
  <unicode hex="0341"/>
  <anchor x="-630" y="1600" name="_AccentDefault"/>
  <outline>
    <contour>
      <point x="-624" y="1649" type="line" name="ah02"/>
      <point x="-313" y="1994" type="line" name="av01"/>
      <point x="-283" y="1994" type="line"/>
      <point x="-201" y="1907" type="line"/>
      <point x="-201" y="1877" type="line" name="ah01"/>
      <point x="-567" y="1589" type="line" name="av02"/>
    </contour>
  </outline>
</glyph>
<glyph name="uni0342" format="2">
  <unicode hex="0342"/>
  <anchor x="-400" y="1500" name="_AccentDefault"/>
  <outline>
    <contour>
      <point x="-554" y="1972" type="qcurve"/>
      <point x="-507" y="1972"/>
      <point x="-432" y="1928"/>
      <point x="-366" y="1874"/>
      <point x="-304" y="1830"/>
      <point x="-270" y="1830" type="qcurve"/>
      <point x="-227" y="1830"/>
      <point x="-183" y="1909"/>
      <point x="-183" y="1972" type="qcurve"/>
      <point x="-81" y="1972" type="line"/>
      <point x="-81" y="1913"/>
      <point x="-108" y="1819"/>
      <point x="-158" y="1753"/>
      <point x="-228" y="1718"/>
      <point x="-270" y="1718" type="qcurve"/>
      <point x="-317" y="1718"/>
      <point x="-391" y="1762"/>
      <point x="-456" y="1816"/>
      <point x="-518" y="1860"/>
      <point x="-554" y="1860" type="qcurve"/>
      <point x="-597" y="1860"/>
      <point x="-641" y="1781"/>
      <point x="-641" y="1718" type="qcurve"/>
      <point x="-743" y="1718" type="line"/>
      <point x="-743" y="1776"/>
      <point x="-716" y="1870"/>
      <point x="-666" y="1936"/>
      <point x="-596" y="1972"/>
    </contour>
  </outline>
</glyph>
<glyph name="iotasubnosp" format="2">
  <unicode hex="0345"/>
  <outline>
    <contour>
      <point x="-587" y="0" type="line"/>
      <point x="-475" y="0" type="line"/>
      <point x="-475" y="-198" type="line"/>
      <point x="-475" y="-246"/>
      <point x="-424" y="-304"/>
      <point x="-376" y="-304" type="qcurve"/>
      <point x="-347" y="-304"/>
      <point x="-306" y="-282"/>
      <point x="-293" y="-269" type="qcurve"/>
      <point x="-238" y="-348" type="line"/>
      <point x="-257" y="-367"/>
      <point x="-330" y="-406"/>
      <point x="-381" y="-406" type="qcurve"/>
      <point x="-426" y="-406"/>
      <point x="-502" y="-381"/>
      <point x="-556" y="-333"/>
      <point x="-587" y="-263"/>
      <point x="-587" y="-218" type="qcurve"/>
    </contour>
  </outline>
</glyph>
